%TF.GenerationSoftware,KiCad,Pcbnew,6.0.11+dfsg-1*%
%TF.CreationDate,2023-04-13T00:21:47+02:00*%
%TF.ProjectId,LampeV1,4c616d70-6556-4312-9e6b-696361645f70,rev?*%
%TF.SameCoordinates,Original*%
%TF.FileFunction,Soldermask,Bot*%
%TF.FilePolarity,Negative*%
%FSLAX46Y46*%
G04 Gerber Fmt 4.6, Leading zero omitted, Abs format (unit mm)*
G04 Created by KiCad (PCBNEW 6.0.11+dfsg-1) date 2023-04-13 00:21:47*
%MOMM*%
%LPD*%
G01*
G04 APERTURE LIST*
%ADD10C,4.500000*%
%ADD11C,3.100000*%
%ADD12R,2.600000X2.600000*%
%ADD13C,2.600000*%
%ADD14C,1.600000*%
%ADD15O,1.600000X1.600000*%
%ADD16C,1.800000*%
%ADD17C,1.524000*%
%ADD18R,1.700000X2.500000*%
%ADD19O,1.700000X2.500000*%
%ADD20R,1.450000X1.450000*%
%ADD21C,1.450000*%
%ADD22R,1.600000X1.600000*%
%ADD23R,1.200000X2.000000*%
%ADD24O,1.200000X2.000000*%
%ADD25R,1.905000X2.000000*%
%ADD26O,1.905000X2.000000*%
G04 APERTURE END LIST*
D10*
%TO.C,H3*%
X81280000Y-100330000D03*
D11*
X81280000Y-100330000D03*
%TD*%
D12*
%TO.C,J1*%
X106680000Y-114300000D03*
D13*
X101680000Y-114300000D03*
X96680000Y-114300000D03*
X91680000Y-114300000D03*
X86680000Y-114300000D03*
X81680000Y-114300000D03*
%TD*%
D14*
%TO.C,R8*%
X123190000Y-76240000D03*
D15*
X130810000Y-76240000D03*
%TD*%
D11*
%TO.C,H1*%
X83130000Y-49530000D03*
D10*
X83130000Y-49530000D03*
%TD*%
%TO.C,H4*%
X110490000Y-104140000D03*
D11*
X110490000Y-104140000D03*
%TD*%
D14*
%TO.C,R7*%
X111760000Y-88900000D03*
D15*
X111760000Y-96520000D03*
%TD*%
D16*
%TO.C,J4*%
X83047500Y-63647500D03*
X85587500Y-63647500D03*
X88127500Y-63647500D03*
X90667500Y-63637500D03*
X93207500Y-63647500D03*
X95747500Y-63647500D03*
X98287500Y-63647500D03*
%TD*%
D17*
%TO.C,J3*%
X87630000Y-101600000D03*
X90170000Y-101600000D03*
X92710000Y-101600000D03*
X95250000Y-101600000D03*
X97790000Y-101600000D03*
X100330000Y-101600000D03*
%TD*%
D18*
%TO.C,U5*%
X132080000Y-70580000D03*
D19*
X129540000Y-70580000D03*
X127000000Y-70580000D03*
%TD*%
D20*
%TO.C,U2*%
X80010000Y-106710000D03*
D21*
X82550000Y-106710000D03*
X85090000Y-106710000D03*
X87630000Y-106710000D03*
X90170000Y-106710000D03*
X92710000Y-106710000D03*
X95250000Y-106710000D03*
X97790000Y-106710000D03*
%TD*%
D10*
%TO.C,H2*%
X135890000Y-49530000D03*
D11*
X135890000Y-49530000D03*
%TD*%
D22*
%TO.C,U4*%
X115590000Y-99075000D03*
D15*
X115590000Y-101615000D03*
X115590000Y-104155000D03*
X123210000Y-104155000D03*
X123210000Y-101615000D03*
X123210000Y-99075000D03*
%TD*%
D23*
%TO.C,U1*%
X84152920Y-59688161D03*
D24*
X86692920Y-59688161D03*
X89232920Y-59688161D03*
X91772920Y-59688161D03*
X94312920Y-59688161D03*
X96852920Y-59688161D03*
X99392920Y-59688161D03*
X101932920Y-59688161D03*
X104472920Y-59688161D03*
X107012920Y-59688161D03*
X109552920Y-59688161D03*
X112092920Y-59688161D03*
X114632920Y-59688161D03*
X117172920Y-59688161D03*
X119712920Y-59688161D03*
X122252920Y-59688161D03*
X124792920Y-59688161D03*
X127332920Y-59688161D03*
X129872920Y-59688161D03*
X132410200Y-59691841D03*
X134950200Y-59691841D03*
X134950200Y-36831841D03*
X132410200Y-36828161D03*
X129870200Y-36828161D03*
X127330200Y-36828161D03*
X124790200Y-36828161D03*
X122250200Y-36828161D03*
X119710200Y-36828161D03*
X117170200Y-36828161D03*
X114630200Y-36828161D03*
X112090200Y-36828161D03*
X109550200Y-36828161D03*
X107010200Y-36828161D03*
X104470200Y-36828161D03*
X101930200Y-36828161D03*
X99390200Y-36828161D03*
X96850200Y-36828161D03*
X94310200Y-36828161D03*
X91770200Y-36828161D03*
X89230200Y-36828161D03*
X86690200Y-36828161D03*
X84150200Y-36828161D03*
%TD*%
D22*
%TO.C,U3*%
X123180000Y-92715000D03*
D15*
X123180000Y-90175000D03*
X115560000Y-90175000D03*
X115560000Y-92715000D03*
%TD*%
D14*
%TO.C,R9*%
X128270000Y-96520000D03*
D15*
X135890000Y-96520000D03*
%TD*%
D25*
%TO.C,Q7*%
X134620000Y-104140000D03*
D26*
X132080000Y-104140000D03*
X129540000Y-104140000D03*
%TD*%
D14*
%TO.C,R10*%
X128270000Y-86360000D03*
D15*
X135890000Y-86360000D03*
%TD*%
D14*
%TO.C,R11*%
X128270000Y-91440000D03*
D15*
X135890000Y-91440000D03*
%TD*%
D12*
%TO.C,J2*%
X134500000Y-114580000D03*
D13*
X129500000Y-114580000D03*
X124500000Y-114580000D03*
X119500000Y-114580000D03*
%TD*%
M02*
