%TF.GenerationSoftware,KiCad,Pcbnew,6.0.11+dfsg-1*%
%TF.CreationDate,2023-04-13T00:21:45+02:00*%
%TF.ProjectId,LampeV1,4c616d70-6556-4312-9e6b-696361645f70,rev?*%
%TF.SameCoordinates,Original*%
%TF.FileFunction,Drillmap*%
%TF.FilePolarity,Positive*%
%FSLAX45Y45*%
G04 Gerber Fmt 4.5, Leading zero omitted, Abs format (unit mm)*
G04 Created by KiCad (PCBNEW 6.0.11+dfsg-1) date 2023-04-13 00:21:45*
%MOMM*%
%LPD*%
G01*
G04 APERTURE LIST*
%ADD10C,0.100000*%
%ADD11C,0.200000*%
%ADD12C,0.040000*%
%ADD13C,0.076200*%
%ADD14C,0.080000*%
%ADD15C,0.085000*%
%ADD16C,0.110000*%
%ADD17C,0.120000*%
%ADD18C,0.130000*%
%ADD19C,0.270000*%
G04 APERTURE END LIST*
D10*
X7620000Y-11811000D02*
X7620000Y-3556000D01*
X13843000Y-11938000D02*
X7747000Y-11938000D01*
X7747000Y-3429000D02*
G75*
G03*
X7620000Y-3556000I0J-127000D01*
G01*
X13970000Y-3556000D02*
G75*
G03*
X13843000Y-3429000I-127000J0D01*
G01*
X7620000Y-11811000D02*
G75*
G03*
X7747000Y-11938000I127000J0D01*
G01*
X13843000Y-11938000D02*
G75*
G03*
X13970000Y-11811000I0J127000D01*
G01*
X7747000Y-3429000D02*
X13843000Y-3429000D01*
X13970000Y-3556000D02*
X13970000Y-11811000D01*
D11*
D12*
X8108000Y-6584000D02*
X8148000Y-6624000D01*
X8148000Y-6584000D02*
X8108000Y-6624000D01*
X8616000Y-8616000D02*
X8656000Y-8656000D01*
X8656000Y-8616000D02*
X8616000Y-8656000D01*
X8870000Y-6838000D02*
X8910000Y-6878000D01*
X8910000Y-6838000D02*
X8870000Y-6878000D01*
X9124000Y-10394000D02*
X9164000Y-10434000D01*
X9164000Y-10394000D02*
X9124000Y-10434000D01*
X9886000Y-8616000D02*
X9926000Y-8656000D01*
X9926000Y-8616000D02*
X9886000Y-8656000D01*
X9886000Y-8870000D02*
X9926000Y-8910000D01*
X9926000Y-8870000D02*
X9886000Y-8910000D01*
X11156000Y-9378000D02*
X11196000Y-9418000D01*
X11196000Y-9378000D02*
X11156000Y-9418000D01*
X12172000Y-6838000D02*
X12212000Y-6878000D01*
X12212000Y-6838000D02*
X12172000Y-6878000D01*
D13*
X8801100Y-10160000D02*
G75*
G03*
X8801100Y-10160000I-38100J0D01*
G01*
X9055100Y-10160000D02*
G75*
G03*
X9055100Y-10160000I-38100J0D01*
G01*
X9309100Y-10160000D02*
G75*
G03*
X9309100Y-10160000I-38100J0D01*
G01*
X9563100Y-10160000D02*
G75*
G03*
X9563100Y-10160000I-38100J0D01*
G01*
X9817100Y-10160000D02*
G75*
G03*
X9817100Y-10160000I-38100J0D01*
G01*
X10071100Y-10160000D02*
G75*
G03*
X10071100Y-10160000I-38100J0D01*
G01*
D14*
X8415020Y-3642816D02*
X8415020Y-3722816D01*
X8375020Y-3682816D02*
X8455020Y-3682816D01*
X8415292Y-5928816D02*
X8415292Y-6008816D01*
X8375292Y-5968816D02*
X8455292Y-5968816D01*
X8669020Y-3642816D02*
X8669020Y-3722816D01*
X8629020Y-3682816D02*
X8709020Y-3682816D01*
X8669292Y-5928816D02*
X8669292Y-6008816D01*
X8629292Y-5968816D02*
X8709292Y-5968816D01*
X8923020Y-3642816D02*
X8923020Y-3722816D01*
X8883020Y-3682816D02*
X8963020Y-3682816D01*
X8923292Y-5928816D02*
X8923292Y-6008816D01*
X8883292Y-5968816D02*
X8963292Y-5968816D01*
X9177020Y-3642816D02*
X9177020Y-3722816D01*
X9137020Y-3682816D02*
X9217020Y-3682816D01*
X9177292Y-5928816D02*
X9177292Y-6008816D01*
X9137292Y-5968816D02*
X9217292Y-5968816D01*
X9431020Y-3642816D02*
X9431020Y-3722816D01*
X9391020Y-3682816D02*
X9471020Y-3682816D01*
X9431292Y-5928816D02*
X9431292Y-6008816D01*
X9391292Y-5968816D02*
X9471292Y-5968816D01*
X9685020Y-3642816D02*
X9685020Y-3722816D01*
X9645020Y-3682816D02*
X9725020Y-3682816D01*
X9685292Y-5928816D02*
X9685292Y-6008816D01*
X9645292Y-5968816D02*
X9725292Y-5968816D01*
X9939020Y-3642816D02*
X9939020Y-3722816D01*
X9899020Y-3682816D02*
X9979020Y-3682816D01*
X9939292Y-5928816D02*
X9939292Y-6008816D01*
X9899292Y-5968816D02*
X9979292Y-5968816D01*
X10193020Y-3642816D02*
X10193020Y-3722816D01*
X10153020Y-3682816D02*
X10233020Y-3682816D01*
X10193292Y-5928816D02*
X10193292Y-6008816D01*
X10153292Y-5968816D02*
X10233292Y-5968816D01*
X10447020Y-3642816D02*
X10447020Y-3722816D01*
X10407020Y-3682816D02*
X10487020Y-3682816D01*
X10447292Y-5928816D02*
X10447292Y-6008816D01*
X10407292Y-5968816D02*
X10487292Y-5968816D01*
X10701020Y-3642816D02*
X10701020Y-3722816D01*
X10661020Y-3682816D02*
X10741020Y-3682816D01*
X10701292Y-5928816D02*
X10701292Y-6008816D01*
X10661292Y-5968816D02*
X10741292Y-5968816D01*
X10955020Y-3642816D02*
X10955020Y-3722816D01*
X10915020Y-3682816D02*
X10995020Y-3682816D01*
X10955292Y-5928816D02*
X10955292Y-6008816D01*
X10915292Y-5968816D02*
X10995292Y-5968816D01*
X11176000Y-8850000D02*
X11176000Y-8930000D01*
X11136000Y-8890000D02*
X11216000Y-8890000D01*
X11176000Y-9612000D02*
X11176000Y-9692000D01*
X11136000Y-9652000D02*
X11216000Y-9652000D01*
X11209020Y-3642816D02*
X11209020Y-3722816D01*
X11169020Y-3682816D02*
X11249020Y-3682816D01*
X11209292Y-5928816D02*
X11209292Y-6008816D01*
X11169292Y-5968816D02*
X11249292Y-5968816D01*
X11463020Y-3642816D02*
X11463020Y-3722816D01*
X11423020Y-3682816D02*
X11503020Y-3682816D01*
X11463292Y-5928816D02*
X11463292Y-6008816D01*
X11423292Y-5968816D02*
X11503292Y-5968816D01*
X11556000Y-8977500D02*
X11556000Y-9057500D01*
X11516000Y-9017500D02*
X11596000Y-9017500D01*
X11556000Y-9231500D02*
X11556000Y-9311500D01*
X11516000Y-9271500D02*
X11596000Y-9271500D01*
X11559000Y-9867500D02*
X11559000Y-9947500D01*
X11519000Y-9907500D02*
X11599000Y-9907500D01*
X11559000Y-10121500D02*
X11559000Y-10201500D01*
X11519000Y-10161500D02*
X11599000Y-10161500D01*
X11559000Y-10375500D02*
X11559000Y-10455500D01*
X11519000Y-10415500D02*
X11599000Y-10415500D01*
X11717020Y-3642816D02*
X11717020Y-3722816D01*
X11677020Y-3682816D02*
X11757020Y-3682816D01*
X11717292Y-5928816D02*
X11717292Y-6008816D01*
X11677292Y-5968816D02*
X11757292Y-5968816D01*
X11971020Y-3642816D02*
X11971020Y-3722816D01*
X11931020Y-3682816D02*
X12011020Y-3682816D01*
X11971292Y-5928816D02*
X11971292Y-6008816D01*
X11931292Y-5968816D02*
X12011292Y-5968816D01*
X12225020Y-3642816D02*
X12225020Y-3722816D01*
X12185020Y-3682816D02*
X12265020Y-3682816D01*
X12225292Y-5928816D02*
X12225292Y-6008816D01*
X12185292Y-5968816D02*
X12265292Y-5968816D01*
X12318000Y-8977500D02*
X12318000Y-9057500D01*
X12278000Y-9017500D02*
X12358000Y-9017500D01*
X12318000Y-9231500D02*
X12318000Y-9311500D01*
X12278000Y-9271500D02*
X12358000Y-9271500D01*
X12319000Y-7584000D02*
X12319000Y-7664000D01*
X12279000Y-7624000D02*
X12359000Y-7624000D01*
X12321000Y-9867500D02*
X12321000Y-9947500D01*
X12281000Y-9907500D02*
X12361000Y-9907500D01*
X12321000Y-10121500D02*
X12321000Y-10201500D01*
X12281000Y-10161500D02*
X12361000Y-10161500D01*
X12321000Y-10375500D02*
X12321000Y-10455500D01*
X12281000Y-10415500D02*
X12361000Y-10415500D01*
X12479020Y-3642816D02*
X12479020Y-3722816D01*
X12439020Y-3682816D02*
X12519020Y-3682816D01*
X12479292Y-5928816D02*
X12479292Y-6008816D01*
X12439292Y-5968816D02*
X12519292Y-5968816D01*
X12733020Y-3642816D02*
X12733020Y-3722816D01*
X12693020Y-3682816D02*
X12773020Y-3682816D01*
X12733292Y-5928816D02*
X12733292Y-6008816D01*
X12693292Y-5968816D02*
X12773292Y-5968816D01*
X12827000Y-8596000D02*
X12827000Y-8676000D01*
X12787000Y-8636000D02*
X12867000Y-8636000D01*
X12827000Y-9104000D02*
X12827000Y-9184000D01*
X12787000Y-9144000D02*
X12867000Y-9144000D01*
X12827000Y-9612000D02*
X12827000Y-9692000D01*
X12787000Y-9652000D02*
X12867000Y-9652000D01*
X12987020Y-3642816D02*
X12987020Y-3722816D01*
X12947020Y-3682816D02*
X13027020Y-3682816D01*
X12987292Y-5928816D02*
X12987292Y-6008816D01*
X12947292Y-5968816D02*
X13027292Y-5968816D01*
X13081000Y-7584000D02*
X13081000Y-7664000D01*
X13041000Y-7624000D02*
X13121000Y-7624000D01*
X13241020Y-3642816D02*
X13241020Y-3722816D01*
X13201020Y-3682816D02*
X13281020Y-3682816D01*
X13241020Y-5929184D02*
X13241020Y-6009184D01*
X13201020Y-5969184D02*
X13281020Y-5969184D01*
X13495020Y-3643184D02*
X13495020Y-3723184D01*
X13455020Y-3683184D02*
X13535020Y-3683184D01*
X13495020Y-5929184D02*
X13495020Y-6009184D01*
X13455020Y-5969184D02*
X13535020Y-5969184D01*
X13589000Y-8596000D02*
X13589000Y-8676000D01*
X13549000Y-8636000D02*
X13629000Y-8636000D01*
X13589000Y-9104000D02*
X13589000Y-9184000D01*
X13549000Y-9144000D02*
X13629000Y-9144000D01*
X13589000Y-9612000D02*
X13589000Y-9692000D01*
X13549000Y-9652000D02*
X13629000Y-9652000D01*
D15*
X8031052Y-10701052D02*
X8031052Y-10640948D01*
X7970948Y-10640948D01*
X7970948Y-10701052D01*
X8031052Y-10701052D01*
X8285052Y-10701052D02*
X8285052Y-10640948D01*
X8224948Y-10640948D01*
X8224948Y-10701052D01*
X8285052Y-10701052D01*
X8539052Y-10701052D02*
X8539052Y-10640948D01*
X8478948Y-10640948D01*
X8478948Y-10701052D01*
X8539052Y-10701052D01*
X8793052Y-10701052D02*
X8793052Y-10640948D01*
X8732948Y-10640948D01*
X8732948Y-10701052D01*
X8793052Y-10701052D01*
X9047052Y-10701052D02*
X9047052Y-10640948D01*
X8986948Y-10640948D01*
X8986948Y-10701052D01*
X9047052Y-10701052D01*
X9301052Y-10701052D02*
X9301052Y-10640948D01*
X9240948Y-10640948D01*
X9240948Y-10701052D01*
X9301052Y-10701052D01*
X9555052Y-10701052D02*
X9555052Y-10640948D01*
X9494948Y-10640948D01*
X9494948Y-10701052D01*
X9555052Y-10701052D01*
X9809052Y-10701052D02*
X9809052Y-10640948D01*
X9748948Y-10640948D01*
X9748948Y-10701052D01*
X9809052Y-10701052D01*
D10*
X8304750Y-6414750D02*
X8354750Y-6364750D01*
X8304750Y-6314750D01*
X8254750Y-6364750D01*
X8304750Y-6414750D01*
X8558750Y-6414750D02*
X8608750Y-6364750D01*
X8558750Y-6314750D01*
X8508750Y-6364750D01*
X8558750Y-6414750D01*
X8812750Y-6414750D02*
X8862750Y-6364750D01*
X8812750Y-6314750D01*
X8762750Y-6364750D01*
X8812750Y-6414750D01*
X9066750Y-6413750D02*
X9116750Y-6363750D01*
X9066750Y-6313750D01*
X9016750Y-6363750D01*
X9066750Y-6413750D01*
X9320750Y-6414750D02*
X9370750Y-6364750D01*
X9320750Y-6314750D01*
X9270750Y-6364750D01*
X9320750Y-6414750D01*
X9574750Y-6414750D02*
X9624750Y-6364750D01*
X9574750Y-6314750D01*
X9524750Y-6364750D01*
X9574750Y-6414750D01*
X9828750Y-6414750D02*
X9878750Y-6364750D01*
X9828750Y-6314750D01*
X9778750Y-6364750D01*
X9828750Y-6414750D01*
D16*
X12899000Y-10359000D02*
X13009000Y-10469000D01*
X13009000Y-10359000D02*
X12899000Y-10469000D01*
X13009000Y-10414000D02*
G75*
G03*
X13009000Y-10414000I-55000J0D01*
G01*
X13153000Y-10359000D02*
X13263000Y-10469000D01*
X13263000Y-10359000D02*
X13153000Y-10469000D01*
X13263000Y-10414000D02*
G75*
G03*
X13263000Y-10414000I-55000J0D01*
G01*
X13407000Y-10359000D02*
X13517000Y-10469000D01*
X13517000Y-10359000D02*
X13407000Y-10469000D01*
X13517000Y-10414000D02*
G75*
G03*
X13517000Y-10414000I-55000J0D01*
G01*
D17*
X12640000Y-6998000D02*
X12760000Y-7118000D01*
X12760000Y-6998000D02*
X12640000Y-7118000D01*
X12700000Y-6998000D02*
X12700000Y-7118000D01*
X12640000Y-7058000D02*
X12760000Y-7058000D01*
X12894000Y-6998000D02*
X13014000Y-7118000D01*
X13014000Y-6998000D02*
X12894000Y-7118000D01*
X12954000Y-6998000D02*
X12954000Y-7118000D01*
X12894000Y-7058000D02*
X13014000Y-7058000D01*
X13148000Y-6998000D02*
X13268000Y-7118000D01*
X13268000Y-6998000D02*
X13148000Y-7118000D01*
X13208000Y-6998000D02*
X13208000Y-7118000D01*
X13148000Y-7058000D02*
X13268000Y-7058000D01*
D18*
X8103000Y-11365000D02*
X8233000Y-11495000D01*
X8233000Y-11365000D02*
X8103000Y-11495000D01*
X8213962Y-11475962D02*
X8213962Y-11384038D01*
X8122038Y-11384038D01*
X8122038Y-11475962D01*
X8213962Y-11475962D01*
X8603000Y-11365000D02*
X8733000Y-11495000D01*
X8733000Y-11365000D02*
X8603000Y-11495000D01*
X8713962Y-11475962D02*
X8713962Y-11384038D01*
X8622038Y-11384038D01*
X8622038Y-11475962D01*
X8713962Y-11475962D01*
X9103000Y-11365000D02*
X9233000Y-11495000D01*
X9233000Y-11365000D02*
X9103000Y-11495000D01*
X9213962Y-11475962D02*
X9213962Y-11384038D01*
X9122038Y-11384038D01*
X9122038Y-11475962D01*
X9213962Y-11475962D01*
X9603000Y-11365000D02*
X9733000Y-11495000D01*
X9733000Y-11365000D02*
X9603000Y-11495000D01*
X9713962Y-11475962D02*
X9713962Y-11384038D01*
X9622038Y-11384038D01*
X9622038Y-11475962D01*
X9713962Y-11475962D01*
X10103000Y-11365000D02*
X10233000Y-11495000D01*
X10233000Y-11365000D02*
X10103000Y-11495000D01*
X10213962Y-11475962D02*
X10213962Y-11384038D01*
X10122038Y-11384038D01*
X10122038Y-11475962D01*
X10213962Y-11475962D01*
X10603000Y-11365000D02*
X10733000Y-11495000D01*
X10733000Y-11365000D02*
X10603000Y-11495000D01*
X10713962Y-11475962D02*
X10713962Y-11384038D01*
X10622038Y-11384038D01*
X10622038Y-11475962D01*
X10713962Y-11475962D01*
X11885000Y-11393000D02*
X12015000Y-11523000D01*
X12015000Y-11393000D02*
X11885000Y-11523000D01*
X11995962Y-11503962D02*
X11995962Y-11412038D01*
X11904038Y-11412038D01*
X11904038Y-11503962D01*
X11995962Y-11503962D01*
X12385000Y-11393000D02*
X12515000Y-11523000D01*
X12515000Y-11393000D02*
X12385000Y-11523000D01*
X12495962Y-11503962D02*
X12495962Y-11412038D01*
X12404038Y-11412038D01*
X12404038Y-11503962D01*
X12495962Y-11503962D01*
X12885000Y-11393000D02*
X13015000Y-11523000D01*
X13015000Y-11393000D02*
X12885000Y-11523000D01*
X12995962Y-11503962D02*
X12995962Y-11412038D01*
X12904038Y-11412038D01*
X12904038Y-11503962D01*
X12995962Y-11503962D01*
X13385000Y-11393000D02*
X13515000Y-11523000D01*
X13515000Y-11393000D02*
X13385000Y-11523000D01*
X13495962Y-11503962D02*
X13495962Y-11412038D01*
X13404038Y-11412038D01*
X13404038Y-11503962D01*
X13495962Y-11503962D01*
D19*
X7993000Y-9898000D02*
X8263000Y-10168000D01*
X8263000Y-9898000D02*
X7993000Y-10168000D01*
X8128000Y-10168000D02*
X8263000Y-10033000D01*
X8128000Y-9898000D01*
X7993000Y-10033000D01*
X8128000Y-10168000D01*
X8178000Y-4818000D02*
X8448000Y-5088000D01*
X8448000Y-4818000D02*
X8178000Y-5088000D01*
X8313000Y-5088000D02*
X8448000Y-4953000D01*
X8313000Y-4818000D01*
X8178000Y-4953000D01*
X8313000Y-5088000D01*
X10914000Y-10279000D02*
X11184000Y-10549000D01*
X11184000Y-10279000D02*
X10914000Y-10549000D01*
X11049000Y-10549000D02*
X11184000Y-10414000D01*
X11049000Y-10279000D01*
X10914000Y-10414000D01*
X11049000Y-10549000D01*
X13454000Y-4818000D02*
X13724000Y-5088000D01*
X13724000Y-4818000D02*
X13454000Y-5088000D01*
X13589000Y-5088000D02*
X13724000Y-4953000D01*
X13589000Y-4818000D01*
X13454000Y-4953000D01*
X13589000Y-5088000D01*
D11*
X7872619Y-12253476D02*
X7872619Y-12053476D01*
X7920238Y-12053476D01*
X7948809Y-12063000D01*
X7967857Y-12082048D01*
X7977381Y-12101095D01*
X7986905Y-12139190D01*
X7986905Y-12167762D01*
X7977381Y-12205857D01*
X7967857Y-12224905D01*
X7948809Y-12243952D01*
X7920238Y-12253476D01*
X7872619Y-12253476D01*
X8072619Y-12253476D02*
X8072619Y-12120143D01*
X8072619Y-12158238D02*
X8082143Y-12139190D01*
X8091667Y-12129667D01*
X8110714Y-12120143D01*
X8129762Y-12120143D01*
X8196428Y-12253476D02*
X8196428Y-12120143D01*
X8196428Y-12053476D02*
X8186905Y-12063000D01*
X8196428Y-12072524D01*
X8205952Y-12063000D01*
X8196428Y-12053476D01*
X8196428Y-12072524D01*
X8320238Y-12253476D02*
X8301190Y-12243952D01*
X8291667Y-12224905D01*
X8291667Y-12053476D01*
X8425000Y-12253476D02*
X8405952Y-12243952D01*
X8396429Y-12224905D01*
X8396429Y-12053476D01*
X8653571Y-12253476D02*
X8653571Y-12053476D01*
X8720238Y-12196333D01*
X8786905Y-12053476D01*
X8786905Y-12253476D01*
X8967857Y-12253476D02*
X8967857Y-12148714D01*
X8958333Y-12129667D01*
X8939286Y-12120143D01*
X8901190Y-12120143D01*
X8882143Y-12129667D01*
X8967857Y-12243952D02*
X8948810Y-12253476D01*
X8901190Y-12253476D01*
X8882143Y-12243952D01*
X8872619Y-12224905D01*
X8872619Y-12205857D01*
X8882143Y-12186809D01*
X8901190Y-12177286D01*
X8948810Y-12177286D01*
X8967857Y-12167762D01*
X9063095Y-12120143D02*
X9063095Y-12320143D01*
X9063095Y-12129667D02*
X9082143Y-12120143D01*
X9120238Y-12120143D01*
X9139286Y-12129667D01*
X9148810Y-12139190D01*
X9158333Y-12158238D01*
X9158333Y-12215381D01*
X9148810Y-12234428D01*
X9139286Y-12243952D01*
X9120238Y-12253476D01*
X9082143Y-12253476D01*
X9063095Y-12243952D01*
X9244048Y-12234428D02*
X9253571Y-12243952D01*
X9244048Y-12253476D01*
X9234524Y-12243952D01*
X9244048Y-12234428D01*
X9244048Y-12253476D01*
X9244048Y-12129667D02*
X9253571Y-12139190D01*
X9244048Y-12148714D01*
X9234524Y-12139190D01*
X9244048Y-12129667D01*
X9244048Y-12148714D01*
D12*
X7575000Y-12563000D02*
X7615000Y-12603000D01*
X7615000Y-12563000D02*
X7575000Y-12603000D01*
D11*
X7910714Y-12473476D02*
X7929762Y-12473476D01*
X7948809Y-12483000D01*
X7958333Y-12492524D01*
X7967857Y-12511571D01*
X7977381Y-12549667D01*
X7977381Y-12597286D01*
X7967857Y-12635381D01*
X7958333Y-12654428D01*
X7948809Y-12663952D01*
X7929762Y-12673476D01*
X7910714Y-12673476D01*
X7891667Y-12663952D01*
X7882143Y-12654428D01*
X7872619Y-12635381D01*
X7863095Y-12597286D01*
X7863095Y-12549667D01*
X7872619Y-12511571D01*
X7882143Y-12492524D01*
X7891667Y-12483000D01*
X7910714Y-12473476D01*
X8063095Y-12654428D02*
X8072619Y-12663952D01*
X8063095Y-12673476D01*
X8053571Y-12663952D01*
X8063095Y-12654428D01*
X8063095Y-12673476D01*
X8244048Y-12540143D02*
X8244048Y-12673476D01*
X8196428Y-12463952D02*
X8148809Y-12606809D01*
X8272619Y-12606809D01*
X8386905Y-12473476D02*
X8405952Y-12473476D01*
X8425000Y-12483000D01*
X8434524Y-12492524D01*
X8444048Y-12511571D01*
X8453571Y-12549667D01*
X8453571Y-12597286D01*
X8444048Y-12635381D01*
X8434524Y-12654428D01*
X8425000Y-12663952D01*
X8405952Y-12673476D01*
X8386905Y-12673476D01*
X8367857Y-12663952D01*
X8358333Y-12654428D01*
X8348809Y-12635381D01*
X8339286Y-12597286D01*
X8339286Y-12549667D01*
X8348809Y-12511571D01*
X8358333Y-12492524D01*
X8367857Y-12483000D01*
X8386905Y-12473476D01*
X8577381Y-12473476D02*
X8596429Y-12473476D01*
X8615476Y-12483000D01*
X8625000Y-12492524D01*
X8634524Y-12511571D01*
X8644048Y-12549667D01*
X8644048Y-12597286D01*
X8634524Y-12635381D01*
X8625000Y-12654428D01*
X8615476Y-12663952D01*
X8596429Y-12673476D01*
X8577381Y-12673476D01*
X8558333Y-12663952D01*
X8548810Y-12654428D01*
X8539286Y-12635381D01*
X8529762Y-12597286D01*
X8529762Y-12549667D01*
X8539286Y-12511571D01*
X8548810Y-12492524D01*
X8558333Y-12483000D01*
X8577381Y-12473476D01*
X8729762Y-12673476D02*
X8729762Y-12540143D01*
X8729762Y-12559190D02*
X8739286Y-12549667D01*
X8758333Y-12540143D01*
X8786905Y-12540143D01*
X8805952Y-12549667D01*
X8815476Y-12568714D01*
X8815476Y-12673476D01*
X8815476Y-12568714D02*
X8825000Y-12549667D01*
X8844048Y-12540143D01*
X8872619Y-12540143D01*
X8891667Y-12549667D01*
X8901190Y-12568714D01*
X8901190Y-12673476D01*
X8996429Y-12673476D02*
X8996429Y-12540143D01*
X8996429Y-12559190D02*
X9005952Y-12549667D01*
X9025000Y-12540143D01*
X9053571Y-12540143D01*
X9072619Y-12549667D01*
X9082143Y-12568714D01*
X9082143Y-12673476D01*
X9082143Y-12568714D02*
X9091667Y-12549667D01*
X9110714Y-12540143D01*
X9139286Y-12540143D01*
X9158333Y-12549667D01*
X9167857Y-12568714D01*
X9167857Y-12673476D01*
X9558333Y-12463952D02*
X9386905Y-12721095D01*
X9815476Y-12473476D02*
X9834524Y-12473476D01*
X9853571Y-12483000D01*
X9863095Y-12492524D01*
X9872619Y-12511571D01*
X9882143Y-12549667D01*
X9882143Y-12597286D01*
X9872619Y-12635381D01*
X9863095Y-12654428D01*
X9853571Y-12663952D01*
X9834524Y-12673476D01*
X9815476Y-12673476D01*
X9796429Y-12663952D01*
X9786905Y-12654428D01*
X9777381Y-12635381D01*
X9767857Y-12597286D01*
X9767857Y-12549667D01*
X9777381Y-12511571D01*
X9786905Y-12492524D01*
X9796429Y-12483000D01*
X9815476Y-12473476D01*
X9967857Y-12654428D02*
X9977381Y-12663952D01*
X9967857Y-12673476D01*
X9958333Y-12663952D01*
X9967857Y-12654428D01*
X9967857Y-12673476D01*
X10101190Y-12473476D02*
X10120238Y-12473476D01*
X10139286Y-12483000D01*
X10148810Y-12492524D01*
X10158333Y-12511571D01*
X10167857Y-12549667D01*
X10167857Y-12597286D01*
X10158333Y-12635381D01*
X10148810Y-12654428D01*
X10139286Y-12663952D01*
X10120238Y-12673476D01*
X10101190Y-12673476D01*
X10082143Y-12663952D01*
X10072619Y-12654428D01*
X10063095Y-12635381D01*
X10053571Y-12597286D01*
X10053571Y-12549667D01*
X10063095Y-12511571D01*
X10072619Y-12492524D01*
X10082143Y-12483000D01*
X10101190Y-12473476D01*
X10358333Y-12673476D02*
X10244048Y-12673476D01*
X10301190Y-12673476D02*
X10301190Y-12473476D01*
X10282143Y-12502048D01*
X10263095Y-12521095D01*
X10244048Y-12530619D01*
X10539286Y-12473476D02*
X10444048Y-12473476D01*
X10434524Y-12568714D01*
X10444048Y-12559190D01*
X10463095Y-12549667D01*
X10510714Y-12549667D01*
X10529762Y-12559190D01*
X10539286Y-12568714D01*
X10548810Y-12587762D01*
X10548810Y-12635381D01*
X10539286Y-12654428D01*
X10529762Y-12663952D01*
X10510714Y-12673476D01*
X10463095Y-12673476D01*
X10444048Y-12663952D01*
X10434524Y-12654428D01*
X10615476Y-12473476D02*
X10748810Y-12473476D01*
X10663095Y-12673476D01*
X10815476Y-12473476D02*
X10815476Y-12511571D01*
X10891667Y-12473476D02*
X10891667Y-12511571D01*
X11186905Y-12749667D02*
X11177381Y-12740143D01*
X11158333Y-12711571D01*
X11148810Y-12692524D01*
X11139286Y-12663952D01*
X11129762Y-12616333D01*
X11129762Y-12578238D01*
X11139286Y-12530619D01*
X11148810Y-12502048D01*
X11158333Y-12483000D01*
X11177381Y-12454428D01*
X11186905Y-12444905D01*
X11291667Y-12559190D02*
X11272619Y-12549667D01*
X11263095Y-12540143D01*
X11253571Y-12521095D01*
X11253571Y-12511571D01*
X11263095Y-12492524D01*
X11272619Y-12483000D01*
X11291667Y-12473476D01*
X11329762Y-12473476D01*
X11348809Y-12483000D01*
X11358333Y-12492524D01*
X11367857Y-12511571D01*
X11367857Y-12521095D01*
X11358333Y-12540143D01*
X11348809Y-12549667D01*
X11329762Y-12559190D01*
X11291667Y-12559190D01*
X11272619Y-12568714D01*
X11263095Y-12578238D01*
X11253571Y-12597286D01*
X11253571Y-12635381D01*
X11263095Y-12654428D01*
X11272619Y-12663952D01*
X11291667Y-12673476D01*
X11329762Y-12673476D01*
X11348809Y-12663952D01*
X11358333Y-12654428D01*
X11367857Y-12635381D01*
X11367857Y-12597286D01*
X11358333Y-12578238D01*
X11348809Y-12568714D01*
X11329762Y-12559190D01*
X11605952Y-12673476D02*
X11605952Y-12473476D01*
X11691667Y-12673476D02*
X11691667Y-12568714D01*
X11682143Y-12549667D01*
X11663095Y-12540143D01*
X11634524Y-12540143D01*
X11615476Y-12549667D01*
X11605952Y-12559190D01*
X11815476Y-12673476D02*
X11796428Y-12663952D01*
X11786905Y-12654428D01*
X11777381Y-12635381D01*
X11777381Y-12578238D01*
X11786905Y-12559190D01*
X11796428Y-12549667D01*
X11815476Y-12540143D01*
X11844048Y-12540143D01*
X11863095Y-12549667D01*
X11872619Y-12559190D01*
X11882143Y-12578238D01*
X11882143Y-12635381D01*
X11872619Y-12654428D01*
X11863095Y-12663952D01*
X11844048Y-12673476D01*
X11815476Y-12673476D01*
X11996428Y-12673476D02*
X11977381Y-12663952D01*
X11967857Y-12644905D01*
X11967857Y-12473476D01*
X12148809Y-12663952D02*
X12129762Y-12673476D01*
X12091667Y-12673476D01*
X12072619Y-12663952D01*
X12063095Y-12644905D01*
X12063095Y-12568714D01*
X12072619Y-12549667D01*
X12091667Y-12540143D01*
X12129762Y-12540143D01*
X12148809Y-12549667D01*
X12158333Y-12568714D01*
X12158333Y-12587762D01*
X12063095Y-12606809D01*
X12234524Y-12663952D02*
X12253571Y-12673476D01*
X12291667Y-12673476D01*
X12310714Y-12663952D01*
X12320238Y-12644905D01*
X12320238Y-12635381D01*
X12310714Y-12616333D01*
X12291667Y-12606809D01*
X12263095Y-12606809D01*
X12244048Y-12597286D01*
X12234524Y-12578238D01*
X12234524Y-12568714D01*
X12244048Y-12549667D01*
X12263095Y-12540143D01*
X12291667Y-12540143D01*
X12310714Y-12549667D01*
X12386905Y-12749667D02*
X12396428Y-12740143D01*
X12415476Y-12711571D01*
X12425000Y-12692524D01*
X12434524Y-12663952D01*
X12444048Y-12616333D01*
X12444048Y-12578238D01*
X12434524Y-12530619D01*
X12425000Y-12502048D01*
X12415476Y-12483000D01*
X12396428Y-12454428D01*
X12386905Y-12444905D01*
D13*
X7615000Y-12847000D02*
G75*
G03*
X7615000Y-12847000I-38100J0D01*
G01*
D11*
X7910714Y-12737476D02*
X7929762Y-12737476D01*
X7948809Y-12747000D01*
X7958333Y-12756524D01*
X7967857Y-12775571D01*
X7977381Y-12813667D01*
X7977381Y-12861286D01*
X7967857Y-12899381D01*
X7958333Y-12918428D01*
X7948809Y-12927952D01*
X7929762Y-12937476D01*
X7910714Y-12937476D01*
X7891667Y-12927952D01*
X7882143Y-12918428D01*
X7872619Y-12899381D01*
X7863095Y-12861286D01*
X7863095Y-12813667D01*
X7872619Y-12775571D01*
X7882143Y-12756524D01*
X7891667Y-12747000D01*
X7910714Y-12737476D01*
X8063095Y-12918428D02*
X8072619Y-12927952D01*
X8063095Y-12937476D01*
X8053571Y-12927952D01*
X8063095Y-12918428D01*
X8063095Y-12937476D01*
X8139286Y-12737476D02*
X8272619Y-12737476D01*
X8186905Y-12937476D01*
X8434524Y-12737476D02*
X8396429Y-12737476D01*
X8377381Y-12747000D01*
X8367857Y-12756524D01*
X8348809Y-12785095D01*
X8339286Y-12823190D01*
X8339286Y-12899381D01*
X8348809Y-12918428D01*
X8358333Y-12927952D01*
X8377381Y-12937476D01*
X8415476Y-12937476D01*
X8434524Y-12927952D01*
X8444048Y-12918428D01*
X8453571Y-12899381D01*
X8453571Y-12851762D01*
X8444048Y-12832714D01*
X8434524Y-12823190D01*
X8415476Y-12813667D01*
X8377381Y-12813667D01*
X8358333Y-12823190D01*
X8348809Y-12832714D01*
X8339286Y-12851762D01*
X8529762Y-12756524D02*
X8539286Y-12747000D01*
X8558333Y-12737476D01*
X8605952Y-12737476D01*
X8625000Y-12747000D01*
X8634524Y-12756524D01*
X8644048Y-12775571D01*
X8644048Y-12794619D01*
X8634524Y-12823190D01*
X8520238Y-12937476D01*
X8644048Y-12937476D01*
X8729762Y-12937476D02*
X8729762Y-12804143D01*
X8729762Y-12823190D02*
X8739286Y-12813667D01*
X8758333Y-12804143D01*
X8786905Y-12804143D01*
X8805952Y-12813667D01*
X8815476Y-12832714D01*
X8815476Y-12937476D01*
X8815476Y-12832714D02*
X8825000Y-12813667D01*
X8844048Y-12804143D01*
X8872619Y-12804143D01*
X8891667Y-12813667D01*
X8901190Y-12832714D01*
X8901190Y-12937476D01*
X8996429Y-12937476D02*
X8996429Y-12804143D01*
X8996429Y-12823190D02*
X9005952Y-12813667D01*
X9025000Y-12804143D01*
X9053571Y-12804143D01*
X9072619Y-12813667D01*
X9082143Y-12832714D01*
X9082143Y-12937476D01*
X9082143Y-12832714D02*
X9091667Y-12813667D01*
X9110714Y-12804143D01*
X9139286Y-12804143D01*
X9158333Y-12813667D01*
X9167857Y-12832714D01*
X9167857Y-12937476D01*
X9558333Y-12727952D02*
X9386905Y-12985095D01*
X9815476Y-12737476D02*
X9834524Y-12737476D01*
X9853571Y-12747000D01*
X9863095Y-12756524D01*
X9872619Y-12775571D01*
X9882143Y-12813667D01*
X9882143Y-12861286D01*
X9872619Y-12899381D01*
X9863095Y-12918428D01*
X9853571Y-12927952D01*
X9834524Y-12937476D01*
X9815476Y-12937476D01*
X9796429Y-12927952D01*
X9786905Y-12918428D01*
X9777381Y-12899381D01*
X9767857Y-12861286D01*
X9767857Y-12813667D01*
X9777381Y-12775571D01*
X9786905Y-12756524D01*
X9796429Y-12747000D01*
X9815476Y-12737476D01*
X9967857Y-12918428D02*
X9977381Y-12927952D01*
X9967857Y-12937476D01*
X9958333Y-12927952D01*
X9967857Y-12918428D01*
X9967857Y-12937476D01*
X10101190Y-12737476D02*
X10120238Y-12737476D01*
X10139286Y-12747000D01*
X10148810Y-12756524D01*
X10158333Y-12775571D01*
X10167857Y-12813667D01*
X10167857Y-12861286D01*
X10158333Y-12899381D01*
X10148810Y-12918428D01*
X10139286Y-12927952D01*
X10120238Y-12937476D01*
X10101190Y-12937476D01*
X10082143Y-12927952D01*
X10072619Y-12918428D01*
X10063095Y-12899381D01*
X10053571Y-12861286D01*
X10053571Y-12813667D01*
X10063095Y-12775571D01*
X10072619Y-12756524D01*
X10082143Y-12747000D01*
X10101190Y-12737476D01*
X10234524Y-12737476D02*
X10358333Y-12737476D01*
X10291667Y-12813667D01*
X10320238Y-12813667D01*
X10339286Y-12823190D01*
X10348810Y-12832714D01*
X10358333Y-12851762D01*
X10358333Y-12899381D01*
X10348810Y-12918428D01*
X10339286Y-12927952D01*
X10320238Y-12937476D01*
X10263095Y-12937476D01*
X10244048Y-12927952D01*
X10234524Y-12918428D01*
X10482143Y-12737476D02*
X10501190Y-12737476D01*
X10520238Y-12747000D01*
X10529762Y-12756524D01*
X10539286Y-12775571D01*
X10548810Y-12813667D01*
X10548810Y-12861286D01*
X10539286Y-12899381D01*
X10529762Y-12918428D01*
X10520238Y-12927952D01*
X10501190Y-12937476D01*
X10482143Y-12937476D01*
X10463095Y-12927952D01*
X10453571Y-12918428D01*
X10444048Y-12899381D01*
X10434524Y-12861286D01*
X10434524Y-12813667D01*
X10444048Y-12775571D01*
X10453571Y-12756524D01*
X10463095Y-12747000D01*
X10482143Y-12737476D01*
X10672619Y-12737476D02*
X10691667Y-12737476D01*
X10710714Y-12747000D01*
X10720238Y-12756524D01*
X10729762Y-12775571D01*
X10739286Y-12813667D01*
X10739286Y-12861286D01*
X10729762Y-12899381D01*
X10720238Y-12918428D01*
X10710714Y-12927952D01*
X10691667Y-12937476D01*
X10672619Y-12937476D01*
X10653571Y-12927952D01*
X10644048Y-12918428D01*
X10634524Y-12899381D01*
X10625000Y-12861286D01*
X10625000Y-12813667D01*
X10634524Y-12775571D01*
X10644048Y-12756524D01*
X10653571Y-12747000D01*
X10672619Y-12737476D01*
X10815476Y-12737476D02*
X10815476Y-12775571D01*
X10891667Y-12737476D02*
X10891667Y-12775571D01*
X11186905Y-13013667D02*
X11177381Y-13004143D01*
X11158333Y-12975571D01*
X11148810Y-12956524D01*
X11139286Y-12927952D01*
X11129762Y-12880333D01*
X11129762Y-12842238D01*
X11139286Y-12794619D01*
X11148810Y-12766048D01*
X11158333Y-12747000D01*
X11177381Y-12718428D01*
X11186905Y-12708905D01*
X11348809Y-12737476D02*
X11310714Y-12737476D01*
X11291667Y-12747000D01*
X11282143Y-12756524D01*
X11263095Y-12785095D01*
X11253571Y-12823190D01*
X11253571Y-12899381D01*
X11263095Y-12918428D01*
X11272619Y-12927952D01*
X11291667Y-12937476D01*
X11329762Y-12937476D01*
X11348809Y-12927952D01*
X11358333Y-12918428D01*
X11367857Y-12899381D01*
X11367857Y-12851762D01*
X11358333Y-12832714D01*
X11348809Y-12823190D01*
X11329762Y-12813667D01*
X11291667Y-12813667D01*
X11272619Y-12823190D01*
X11263095Y-12832714D01*
X11253571Y-12851762D01*
X11605952Y-12937476D02*
X11605952Y-12737476D01*
X11691667Y-12937476D02*
X11691667Y-12832714D01*
X11682143Y-12813667D01*
X11663095Y-12804143D01*
X11634524Y-12804143D01*
X11615476Y-12813667D01*
X11605952Y-12823190D01*
X11815476Y-12937476D02*
X11796428Y-12927952D01*
X11786905Y-12918428D01*
X11777381Y-12899381D01*
X11777381Y-12842238D01*
X11786905Y-12823190D01*
X11796428Y-12813667D01*
X11815476Y-12804143D01*
X11844048Y-12804143D01*
X11863095Y-12813667D01*
X11872619Y-12823190D01*
X11882143Y-12842238D01*
X11882143Y-12899381D01*
X11872619Y-12918428D01*
X11863095Y-12927952D01*
X11844048Y-12937476D01*
X11815476Y-12937476D01*
X11996428Y-12937476D02*
X11977381Y-12927952D01*
X11967857Y-12908905D01*
X11967857Y-12737476D01*
X12148809Y-12927952D02*
X12129762Y-12937476D01*
X12091667Y-12937476D01*
X12072619Y-12927952D01*
X12063095Y-12908905D01*
X12063095Y-12832714D01*
X12072619Y-12813667D01*
X12091667Y-12804143D01*
X12129762Y-12804143D01*
X12148809Y-12813667D01*
X12158333Y-12832714D01*
X12158333Y-12851762D01*
X12063095Y-12870809D01*
X12234524Y-12927952D02*
X12253571Y-12937476D01*
X12291667Y-12937476D01*
X12310714Y-12927952D01*
X12320238Y-12908905D01*
X12320238Y-12899381D01*
X12310714Y-12880333D01*
X12291667Y-12870809D01*
X12263095Y-12870809D01*
X12244048Y-12861286D01*
X12234524Y-12842238D01*
X12234524Y-12832714D01*
X12244048Y-12813667D01*
X12263095Y-12804143D01*
X12291667Y-12804143D01*
X12310714Y-12813667D01*
X12386905Y-13013667D02*
X12396428Y-13004143D01*
X12415476Y-12975571D01*
X12425000Y-12956524D01*
X12434524Y-12927952D01*
X12444048Y-12880333D01*
X12444048Y-12842238D01*
X12434524Y-12794619D01*
X12425000Y-12766048D01*
X12415476Y-12747000D01*
X12396428Y-12718428D01*
X12386905Y-12708905D01*
D14*
X7575000Y-13071000D02*
X7575000Y-13151000D01*
X7535000Y-13111000D02*
X7615000Y-13111000D01*
D11*
X7910714Y-13001476D02*
X7929762Y-13001476D01*
X7948809Y-13011000D01*
X7958333Y-13020524D01*
X7967857Y-13039571D01*
X7977381Y-13077667D01*
X7977381Y-13125286D01*
X7967857Y-13163381D01*
X7958333Y-13182428D01*
X7948809Y-13191952D01*
X7929762Y-13201476D01*
X7910714Y-13201476D01*
X7891667Y-13191952D01*
X7882143Y-13182428D01*
X7872619Y-13163381D01*
X7863095Y-13125286D01*
X7863095Y-13077667D01*
X7872619Y-13039571D01*
X7882143Y-13020524D01*
X7891667Y-13011000D01*
X7910714Y-13001476D01*
X8063095Y-13182428D02*
X8072619Y-13191952D01*
X8063095Y-13201476D01*
X8053571Y-13191952D01*
X8063095Y-13182428D01*
X8063095Y-13201476D01*
X8186905Y-13087190D02*
X8167857Y-13077667D01*
X8158333Y-13068143D01*
X8148809Y-13049095D01*
X8148809Y-13039571D01*
X8158333Y-13020524D01*
X8167857Y-13011000D01*
X8186905Y-13001476D01*
X8225000Y-13001476D01*
X8244048Y-13011000D01*
X8253571Y-13020524D01*
X8263095Y-13039571D01*
X8263095Y-13049095D01*
X8253571Y-13068143D01*
X8244048Y-13077667D01*
X8225000Y-13087190D01*
X8186905Y-13087190D01*
X8167857Y-13096714D01*
X8158333Y-13106238D01*
X8148809Y-13125286D01*
X8148809Y-13163381D01*
X8158333Y-13182428D01*
X8167857Y-13191952D01*
X8186905Y-13201476D01*
X8225000Y-13201476D01*
X8244048Y-13191952D01*
X8253571Y-13182428D01*
X8263095Y-13163381D01*
X8263095Y-13125286D01*
X8253571Y-13106238D01*
X8244048Y-13096714D01*
X8225000Y-13087190D01*
X8386905Y-13001476D02*
X8405952Y-13001476D01*
X8425000Y-13011000D01*
X8434524Y-13020524D01*
X8444048Y-13039571D01*
X8453571Y-13077667D01*
X8453571Y-13125286D01*
X8444048Y-13163381D01*
X8434524Y-13182428D01*
X8425000Y-13191952D01*
X8405952Y-13201476D01*
X8386905Y-13201476D01*
X8367857Y-13191952D01*
X8358333Y-13182428D01*
X8348809Y-13163381D01*
X8339286Y-13125286D01*
X8339286Y-13077667D01*
X8348809Y-13039571D01*
X8358333Y-13020524D01*
X8367857Y-13011000D01*
X8386905Y-13001476D01*
X8577381Y-13001476D02*
X8596429Y-13001476D01*
X8615476Y-13011000D01*
X8625000Y-13020524D01*
X8634524Y-13039571D01*
X8644048Y-13077667D01*
X8644048Y-13125286D01*
X8634524Y-13163381D01*
X8625000Y-13182428D01*
X8615476Y-13191952D01*
X8596429Y-13201476D01*
X8577381Y-13201476D01*
X8558333Y-13191952D01*
X8548810Y-13182428D01*
X8539286Y-13163381D01*
X8529762Y-13125286D01*
X8529762Y-13077667D01*
X8539286Y-13039571D01*
X8548810Y-13020524D01*
X8558333Y-13011000D01*
X8577381Y-13001476D01*
X8729762Y-13201476D02*
X8729762Y-13068143D01*
X8729762Y-13087190D02*
X8739286Y-13077667D01*
X8758333Y-13068143D01*
X8786905Y-13068143D01*
X8805952Y-13077667D01*
X8815476Y-13096714D01*
X8815476Y-13201476D01*
X8815476Y-13096714D02*
X8825000Y-13077667D01*
X8844048Y-13068143D01*
X8872619Y-13068143D01*
X8891667Y-13077667D01*
X8901190Y-13096714D01*
X8901190Y-13201476D01*
X8996429Y-13201476D02*
X8996429Y-13068143D01*
X8996429Y-13087190D02*
X9005952Y-13077667D01*
X9025000Y-13068143D01*
X9053571Y-13068143D01*
X9072619Y-13077667D01*
X9082143Y-13096714D01*
X9082143Y-13201476D01*
X9082143Y-13096714D02*
X9091667Y-13077667D01*
X9110714Y-13068143D01*
X9139286Y-13068143D01*
X9158333Y-13077667D01*
X9167857Y-13096714D01*
X9167857Y-13201476D01*
X9558333Y-12991952D02*
X9386905Y-13249095D01*
X9815476Y-13001476D02*
X9834524Y-13001476D01*
X9853571Y-13011000D01*
X9863095Y-13020524D01*
X9872619Y-13039571D01*
X9882143Y-13077667D01*
X9882143Y-13125286D01*
X9872619Y-13163381D01*
X9863095Y-13182428D01*
X9853571Y-13191952D01*
X9834524Y-13201476D01*
X9815476Y-13201476D01*
X9796429Y-13191952D01*
X9786905Y-13182428D01*
X9777381Y-13163381D01*
X9767857Y-13125286D01*
X9767857Y-13077667D01*
X9777381Y-13039571D01*
X9786905Y-13020524D01*
X9796429Y-13011000D01*
X9815476Y-13001476D01*
X9967857Y-13182428D02*
X9977381Y-13191952D01*
X9967857Y-13201476D01*
X9958333Y-13191952D01*
X9967857Y-13182428D01*
X9967857Y-13201476D01*
X10101190Y-13001476D02*
X10120238Y-13001476D01*
X10139286Y-13011000D01*
X10148810Y-13020524D01*
X10158333Y-13039571D01*
X10167857Y-13077667D01*
X10167857Y-13125286D01*
X10158333Y-13163381D01*
X10148810Y-13182428D01*
X10139286Y-13191952D01*
X10120238Y-13201476D01*
X10101190Y-13201476D01*
X10082143Y-13191952D01*
X10072619Y-13182428D01*
X10063095Y-13163381D01*
X10053571Y-13125286D01*
X10053571Y-13077667D01*
X10063095Y-13039571D01*
X10072619Y-13020524D01*
X10082143Y-13011000D01*
X10101190Y-13001476D01*
X10234524Y-13001476D02*
X10358333Y-13001476D01*
X10291667Y-13077667D01*
X10320238Y-13077667D01*
X10339286Y-13087190D01*
X10348810Y-13096714D01*
X10358333Y-13115762D01*
X10358333Y-13163381D01*
X10348810Y-13182428D01*
X10339286Y-13191952D01*
X10320238Y-13201476D01*
X10263095Y-13201476D01*
X10244048Y-13191952D01*
X10234524Y-13182428D01*
X10548810Y-13201476D02*
X10434524Y-13201476D01*
X10491667Y-13201476D02*
X10491667Y-13001476D01*
X10472619Y-13030048D01*
X10453571Y-13049095D01*
X10434524Y-13058619D01*
X10729762Y-13001476D02*
X10634524Y-13001476D01*
X10625000Y-13096714D01*
X10634524Y-13087190D01*
X10653571Y-13077667D01*
X10701190Y-13077667D01*
X10720238Y-13087190D01*
X10729762Y-13096714D01*
X10739286Y-13115762D01*
X10739286Y-13163381D01*
X10729762Y-13182428D01*
X10720238Y-13191952D01*
X10701190Y-13201476D01*
X10653571Y-13201476D01*
X10634524Y-13191952D01*
X10625000Y-13182428D01*
X10815476Y-13001476D02*
X10815476Y-13039571D01*
X10891667Y-13001476D02*
X10891667Y-13039571D01*
X11186905Y-13277667D02*
X11177381Y-13268143D01*
X11158333Y-13239571D01*
X11148810Y-13220524D01*
X11139286Y-13191952D01*
X11129762Y-13144333D01*
X11129762Y-13106238D01*
X11139286Y-13058619D01*
X11148810Y-13030048D01*
X11158333Y-13011000D01*
X11177381Y-12982428D01*
X11186905Y-12972905D01*
X11348809Y-13001476D02*
X11310714Y-13001476D01*
X11291667Y-13011000D01*
X11282143Y-13020524D01*
X11263095Y-13049095D01*
X11253571Y-13087190D01*
X11253571Y-13163381D01*
X11263095Y-13182428D01*
X11272619Y-13191952D01*
X11291667Y-13201476D01*
X11329762Y-13201476D01*
X11348809Y-13191952D01*
X11358333Y-13182428D01*
X11367857Y-13163381D01*
X11367857Y-13115762D01*
X11358333Y-13096714D01*
X11348809Y-13087190D01*
X11329762Y-13077667D01*
X11291667Y-13077667D01*
X11272619Y-13087190D01*
X11263095Y-13096714D01*
X11253571Y-13115762D01*
X11444048Y-13020524D02*
X11453571Y-13011000D01*
X11472619Y-13001476D01*
X11520238Y-13001476D01*
X11539286Y-13011000D01*
X11548809Y-13020524D01*
X11558333Y-13039571D01*
X11558333Y-13058619D01*
X11548809Y-13087190D01*
X11434524Y-13201476D01*
X11558333Y-13201476D01*
X11796428Y-13201476D02*
X11796428Y-13001476D01*
X11882143Y-13201476D02*
X11882143Y-13096714D01*
X11872619Y-13077667D01*
X11853571Y-13068143D01*
X11825000Y-13068143D01*
X11805952Y-13077667D01*
X11796428Y-13087190D01*
X12005952Y-13201476D02*
X11986905Y-13191952D01*
X11977381Y-13182428D01*
X11967857Y-13163381D01*
X11967857Y-13106238D01*
X11977381Y-13087190D01*
X11986905Y-13077667D01*
X12005952Y-13068143D01*
X12034524Y-13068143D01*
X12053571Y-13077667D01*
X12063095Y-13087190D01*
X12072619Y-13106238D01*
X12072619Y-13163381D01*
X12063095Y-13182428D01*
X12053571Y-13191952D01*
X12034524Y-13201476D01*
X12005952Y-13201476D01*
X12186905Y-13201476D02*
X12167857Y-13191952D01*
X12158333Y-13172905D01*
X12158333Y-13001476D01*
X12339286Y-13191952D02*
X12320238Y-13201476D01*
X12282143Y-13201476D01*
X12263095Y-13191952D01*
X12253571Y-13172905D01*
X12253571Y-13096714D01*
X12263095Y-13077667D01*
X12282143Y-13068143D01*
X12320238Y-13068143D01*
X12339286Y-13077667D01*
X12348809Y-13096714D01*
X12348809Y-13115762D01*
X12253571Y-13134809D01*
X12425000Y-13191952D02*
X12444048Y-13201476D01*
X12482143Y-13201476D01*
X12501190Y-13191952D01*
X12510714Y-13172905D01*
X12510714Y-13163381D01*
X12501190Y-13144333D01*
X12482143Y-13134809D01*
X12453571Y-13134809D01*
X12434524Y-13125286D01*
X12425000Y-13106238D01*
X12425000Y-13096714D01*
X12434524Y-13077667D01*
X12453571Y-13068143D01*
X12482143Y-13068143D01*
X12501190Y-13077667D01*
X12577381Y-13277667D02*
X12586905Y-13268143D01*
X12605952Y-13239571D01*
X12615476Y-13220524D01*
X12625000Y-13191952D01*
X12634524Y-13144333D01*
X12634524Y-13106238D01*
X12625000Y-13058619D01*
X12615476Y-13030048D01*
X12605952Y-13011000D01*
X12586905Y-12982428D01*
X12577381Y-12972905D01*
D15*
X7602552Y-13405052D02*
X7602552Y-13344948D01*
X7542448Y-13344948D01*
X7542448Y-13405052D01*
X7602552Y-13405052D01*
D11*
X7910714Y-13265476D02*
X7929762Y-13265476D01*
X7948809Y-13275000D01*
X7958333Y-13284524D01*
X7967857Y-13303571D01*
X7977381Y-13341667D01*
X7977381Y-13389286D01*
X7967857Y-13427381D01*
X7958333Y-13446428D01*
X7948809Y-13455952D01*
X7929762Y-13465476D01*
X7910714Y-13465476D01*
X7891667Y-13455952D01*
X7882143Y-13446428D01*
X7872619Y-13427381D01*
X7863095Y-13389286D01*
X7863095Y-13341667D01*
X7872619Y-13303571D01*
X7882143Y-13284524D01*
X7891667Y-13275000D01*
X7910714Y-13265476D01*
X8063095Y-13446428D02*
X8072619Y-13455952D01*
X8063095Y-13465476D01*
X8053571Y-13455952D01*
X8063095Y-13446428D01*
X8063095Y-13465476D01*
X8186905Y-13351190D02*
X8167857Y-13341667D01*
X8158333Y-13332143D01*
X8148809Y-13313095D01*
X8148809Y-13303571D01*
X8158333Y-13284524D01*
X8167857Y-13275000D01*
X8186905Y-13265476D01*
X8225000Y-13265476D01*
X8244048Y-13275000D01*
X8253571Y-13284524D01*
X8263095Y-13303571D01*
X8263095Y-13313095D01*
X8253571Y-13332143D01*
X8244048Y-13341667D01*
X8225000Y-13351190D01*
X8186905Y-13351190D01*
X8167857Y-13360714D01*
X8158333Y-13370238D01*
X8148809Y-13389286D01*
X8148809Y-13427381D01*
X8158333Y-13446428D01*
X8167857Y-13455952D01*
X8186905Y-13465476D01*
X8225000Y-13465476D01*
X8244048Y-13455952D01*
X8253571Y-13446428D01*
X8263095Y-13427381D01*
X8263095Y-13389286D01*
X8253571Y-13370238D01*
X8244048Y-13360714D01*
X8225000Y-13351190D01*
X8444048Y-13265476D02*
X8348809Y-13265476D01*
X8339286Y-13360714D01*
X8348809Y-13351190D01*
X8367857Y-13341667D01*
X8415476Y-13341667D01*
X8434524Y-13351190D01*
X8444048Y-13360714D01*
X8453571Y-13379762D01*
X8453571Y-13427381D01*
X8444048Y-13446428D01*
X8434524Y-13455952D01*
X8415476Y-13465476D01*
X8367857Y-13465476D01*
X8348809Y-13455952D01*
X8339286Y-13446428D01*
X8577381Y-13265476D02*
X8596429Y-13265476D01*
X8615476Y-13275000D01*
X8625000Y-13284524D01*
X8634524Y-13303571D01*
X8644048Y-13341667D01*
X8644048Y-13389286D01*
X8634524Y-13427381D01*
X8625000Y-13446428D01*
X8615476Y-13455952D01*
X8596429Y-13465476D01*
X8577381Y-13465476D01*
X8558333Y-13455952D01*
X8548810Y-13446428D01*
X8539286Y-13427381D01*
X8529762Y-13389286D01*
X8529762Y-13341667D01*
X8539286Y-13303571D01*
X8548810Y-13284524D01*
X8558333Y-13275000D01*
X8577381Y-13265476D01*
X8729762Y-13465476D02*
X8729762Y-13332143D01*
X8729762Y-13351190D02*
X8739286Y-13341667D01*
X8758333Y-13332143D01*
X8786905Y-13332143D01*
X8805952Y-13341667D01*
X8815476Y-13360714D01*
X8815476Y-13465476D01*
X8815476Y-13360714D02*
X8825000Y-13341667D01*
X8844048Y-13332143D01*
X8872619Y-13332143D01*
X8891667Y-13341667D01*
X8901190Y-13360714D01*
X8901190Y-13465476D01*
X8996429Y-13465476D02*
X8996429Y-13332143D01*
X8996429Y-13351190D02*
X9005952Y-13341667D01*
X9025000Y-13332143D01*
X9053571Y-13332143D01*
X9072619Y-13341667D01*
X9082143Y-13360714D01*
X9082143Y-13465476D01*
X9082143Y-13360714D02*
X9091667Y-13341667D01*
X9110714Y-13332143D01*
X9139286Y-13332143D01*
X9158333Y-13341667D01*
X9167857Y-13360714D01*
X9167857Y-13465476D01*
X9558333Y-13255952D02*
X9386905Y-13513095D01*
X9815476Y-13265476D02*
X9834524Y-13265476D01*
X9853571Y-13275000D01*
X9863095Y-13284524D01*
X9872619Y-13303571D01*
X9882143Y-13341667D01*
X9882143Y-13389286D01*
X9872619Y-13427381D01*
X9863095Y-13446428D01*
X9853571Y-13455952D01*
X9834524Y-13465476D01*
X9815476Y-13465476D01*
X9796429Y-13455952D01*
X9786905Y-13446428D01*
X9777381Y-13427381D01*
X9767857Y-13389286D01*
X9767857Y-13341667D01*
X9777381Y-13303571D01*
X9786905Y-13284524D01*
X9796429Y-13275000D01*
X9815476Y-13265476D01*
X9967857Y-13446428D02*
X9977381Y-13455952D01*
X9967857Y-13465476D01*
X9958333Y-13455952D01*
X9967857Y-13446428D01*
X9967857Y-13465476D01*
X10101190Y-13265476D02*
X10120238Y-13265476D01*
X10139286Y-13275000D01*
X10148810Y-13284524D01*
X10158333Y-13303571D01*
X10167857Y-13341667D01*
X10167857Y-13389286D01*
X10158333Y-13427381D01*
X10148810Y-13446428D01*
X10139286Y-13455952D01*
X10120238Y-13465476D01*
X10101190Y-13465476D01*
X10082143Y-13455952D01*
X10072619Y-13446428D01*
X10063095Y-13427381D01*
X10053571Y-13389286D01*
X10053571Y-13341667D01*
X10063095Y-13303571D01*
X10072619Y-13284524D01*
X10082143Y-13275000D01*
X10101190Y-13265476D01*
X10234524Y-13265476D02*
X10358333Y-13265476D01*
X10291667Y-13341667D01*
X10320238Y-13341667D01*
X10339286Y-13351190D01*
X10348810Y-13360714D01*
X10358333Y-13379762D01*
X10358333Y-13427381D01*
X10348810Y-13446428D01*
X10339286Y-13455952D01*
X10320238Y-13465476D01*
X10263095Y-13465476D01*
X10244048Y-13455952D01*
X10234524Y-13446428D01*
X10425000Y-13265476D02*
X10548810Y-13265476D01*
X10482143Y-13341667D01*
X10510714Y-13341667D01*
X10529762Y-13351190D01*
X10539286Y-13360714D01*
X10548810Y-13379762D01*
X10548810Y-13427381D01*
X10539286Y-13446428D01*
X10529762Y-13455952D01*
X10510714Y-13465476D01*
X10453571Y-13465476D01*
X10434524Y-13455952D01*
X10425000Y-13446428D01*
X10729762Y-13265476D02*
X10634524Y-13265476D01*
X10625000Y-13360714D01*
X10634524Y-13351190D01*
X10653571Y-13341667D01*
X10701190Y-13341667D01*
X10720238Y-13351190D01*
X10729762Y-13360714D01*
X10739286Y-13379762D01*
X10739286Y-13427381D01*
X10729762Y-13446428D01*
X10720238Y-13455952D01*
X10701190Y-13465476D01*
X10653571Y-13465476D01*
X10634524Y-13455952D01*
X10625000Y-13446428D01*
X10815476Y-13265476D02*
X10815476Y-13303571D01*
X10891667Y-13265476D02*
X10891667Y-13303571D01*
X11186905Y-13541667D02*
X11177381Y-13532143D01*
X11158333Y-13503571D01*
X11148810Y-13484524D01*
X11139286Y-13455952D01*
X11129762Y-13408333D01*
X11129762Y-13370238D01*
X11139286Y-13322619D01*
X11148810Y-13294048D01*
X11158333Y-13275000D01*
X11177381Y-13246428D01*
X11186905Y-13236905D01*
X11291667Y-13351190D02*
X11272619Y-13341667D01*
X11263095Y-13332143D01*
X11253571Y-13313095D01*
X11253571Y-13303571D01*
X11263095Y-13284524D01*
X11272619Y-13275000D01*
X11291667Y-13265476D01*
X11329762Y-13265476D01*
X11348809Y-13275000D01*
X11358333Y-13284524D01*
X11367857Y-13303571D01*
X11367857Y-13313095D01*
X11358333Y-13332143D01*
X11348809Y-13341667D01*
X11329762Y-13351190D01*
X11291667Y-13351190D01*
X11272619Y-13360714D01*
X11263095Y-13370238D01*
X11253571Y-13389286D01*
X11253571Y-13427381D01*
X11263095Y-13446428D01*
X11272619Y-13455952D01*
X11291667Y-13465476D01*
X11329762Y-13465476D01*
X11348809Y-13455952D01*
X11358333Y-13446428D01*
X11367857Y-13427381D01*
X11367857Y-13389286D01*
X11358333Y-13370238D01*
X11348809Y-13360714D01*
X11329762Y-13351190D01*
X11605952Y-13465476D02*
X11605952Y-13265476D01*
X11691667Y-13465476D02*
X11691667Y-13360714D01*
X11682143Y-13341667D01*
X11663095Y-13332143D01*
X11634524Y-13332143D01*
X11615476Y-13341667D01*
X11605952Y-13351190D01*
X11815476Y-13465476D02*
X11796428Y-13455952D01*
X11786905Y-13446428D01*
X11777381Y-13427381D01*
X11777381Y-13370238D01*
X11786905Y-13351190D01*
X11796428Y-13341667D01*
X11815476Y-13332143D01*
X11844048Y-13332143D01*
X11863095Y-13341667D01*
X11872619Y-13351190D01*
X11882143Y-13370238D01*
X11882143Y-13427381D01*
X11872619Y-13446428D01*
X11863095Y-13455952D01*
X11844048Y-13465476D01*
X11815476Y-13465476D01*
X11996428Y-13465476D02*
X11977381Y-13455952D01*
X11967857Y-13436905D01*
X11967857Y-13265476D01*
X12148809Y-13455952D02*
X12129762Y-13465476D01*
X12091667Y-13465476D01*
X12072619Y-13455952D01*
X12063095Y-13436905D01*
X12063095Y-13360714D01*
X12072619Y-13341667D01*
X12091667Y-13332143D01*
X12129762Y-13332143D01*
X12148809Y-13341667D01*
X12158333Y-13360714D01*
X12158333Y-13379762D01*
X12063095Y-13398809D01*
X12234524Y-13455952D02*
X12253571Y-13465476D01*
X12291667Y-13465476D01*
X12310714Y-13455952D01*
X12320238Y-13436905D01*
X12320238Y-13427381D01*
X12310714Y-13408333D01*
X12291667Y-13398809D01*
X12263095Y-13398809D01*
X12244048Y-13389286D01*
X12234524Y-13370238D01*
X12234524Y-13360714D01*
X12244048Y-13341667D01*
X12263095Y-13332143D01*
X12291667Y-13332143D01*
X12310714Y-13341667D01*
X12386905Y-13541667D02*
X12396428Y-13532143D01*
X12415476Y-13503571D01*
X12425000Y-13484524D01*
X12434524Y-13455952D01*
X12444048Y-13408333D01*
X12444048Y-13370238D01*
X12434524Y-13322619D01*
X12425000Y-13294048D01*
X12415476Y-13275000D01*
X12396428Y-13246428D01*
X12386905Y-13236905D01*
D10*
X7565000Y-13689000D02*
X7615000Y-13639000D01*
X7565000Y-13589000D01*
X7515000Y-13639000D01*
X7565000Y-13689000D01*
D11*
X7977381Y-13729476D02*
X7863095Y-13729476D01*
X7920238Y-13729476D02*
X7920238Y-13529476D01*
X7901190Y-13558048D01*
X7882143Y-13577095D01*
X7863095Y-13586619D01*
X8063095Y-13710428D02*
X8072619Y-13719952D01*
X8063095Y-13729476D01*
X8053571Y-13719952D01*
X8063095Y-13710428D01*
X8063095Y-13729476D01*
X8196428Y-13529476D02*
X8215476Y-13529476D01*
X8234524Y-13539000D01*
X8244048Y-13548524D01*
X8253571Y-13567571D01*
X8263095Y-13605667D01*
X8263095Y-13653286D01*
X8253571Y-13691381D01*
X8244048Y-13710428D01*
X8234524Y-13719952D01*
X8215476Y-13729476D01*
X8196428Y-13729476D01*
X8177381Y-13719952D01*
X8167857Y-13710428D01*
X8158333Y-13691381D01*
X8148809Y-13653286D01*
X8148809Y-13605667D01*
X8158333Y-13567571D01*
X8167857Y-13548524D01*
X8177381Y-13539000D01*
X8196428Y-13529476D01*
X8386905Y-13529476D02*
X8405952Y-13529476D01*
X8425000Y-13539000D01*
X8434524Y-13548524D01*
X8444048Y-13567571D01*
X8453571Y-13605667D01*
X8453571Y-13653286D01*
X8444048Y-13691381D01*
X8434524Y-13710428D01*
X8425000Y-13719952D01*
X8405952Y-13729476D01*
X8386905Y-13729476D01*
X8367857Y-13719952D01*
X8358333Y-13710428D01*
X8348809Y-13691381D01*
X8339286Y-13653286D01*
X8339286Y-13605667D01*
X8348809Y-13567571D01*
X8358333Y-13548524D01*
X8367857Y-13539000D01*
X8386905Y-13529476D01*
X8577381Y-13529476D02*
X8596429Y-13529476D01*
X8615476Y-13539000D01*
X8625000Y-13548524D01*
X8634524Y-13567571D01*
X8644048Y-13605667D01*
X8644048Y-13653286D01*
X8634524Y-13691381D01*
X8625000Y-13710428D01*
X8615476Y-13719952D01*
X8596429Y-13729476D01*
X8577381Y-13729476D01*
X8558333Y-13719952D01*
X8548810Y-13710428D01*
X8539286Y-13691381D01*
X8529762Y-13653286D01*
X8529762Y-13605667D01*
X8539286Y-13567571D01*
X8548810Y-13548524D01*
X8558333Y-13539000D01*
X8577381Y-13529476D01*
X8729762Y-13729476D02*
X8729762Y-13596143D01*
X8729762Y-13615190D02*
X8739286Y-13605667D01*
X8758333Y-13596143D01*
X8786905Y-13596143D01*
X8805952Y-13605667D01*
X8815476Y-13624714D01*
X8815476Y-13729476D01*
X8815476Y-13624714D02*
X8825000Y-13605667D01*
X8844048Y-13596143D01*
X8872619Y-13596143D01*
X8891667Y-13605667D01*
X8901190Y-13624714D01*
X8901190Y-13729476D01*
X8996429Y-13729476D02*
X8996429Y-13596143D01*
X8996429Y-13615190D02*
X9005952Y-13605667D01*
X9025000Y-13596143D01*
X9053571Y-13596143D01*
X9072619Y-13605667D01*
X9082143Y-13624714D01*
X9082143Y-13729476D01*
X9082143Y-13624714D02*
X9091667Y-13605667D01*
X9110714Y-13596143D01*
X9139286Y-13596143D01*
X9158333Y-13605667D01*
X9167857Y-13624714D01*
X9167857Y-13729476D01*
X9558333Y-13519952D02*
X9386905Y-13777095D01*
X9815476Y-13529476D02*
X9834524Y-13529476D01*
X9853571Y-13539000D01*
X9863095Y-13548524D01*
X9872619Y-13567571D01*
X9882143Y-13605667D01*
X9882143Y-13653286D01*
X9872619Y-13691381D01*
X9863095Y-13710428D01*
X9853571Y-13719952D01*
X9834524Y-13729476D01*
X9815476Y-13729476D01*
X9796429Y-13719952D01*
X9786905Y-13710428D01*
X9777381Y-13691381D01*
X9767857Y-13653286D01*
X9767857Y-13605667D01*
X9777381Y-13567571D01*
X9786905Y-13548524D01*
X9796429Y-13539000D01*
X9815476Y-13529476D01*
X9967857Y-13710428D02*
X9977381Y-13719952D01*
X9967857Y-13729476D01*
X9958333Y-13719952D01*
X9967857Y-13710428D01*
X9967857Y-13729476D01*
X10101190Y-13529476D02*
X10120238Y-13529476D01*
X10139286Y-13539000D01*
X10148810Y-13548524D01*
X10158333Y-13567571D01*
X10167857Y-13605667D01*
X10167857Y-13653286D01*
X10158333Y-13691381D01*
X10148810Y-13710428D01*
X10139286Y-13719952D01*
X10120238Y-13729476D01*
X10101190Y-13729476D01*
X10082143Y-13719952D01*
X10072619Y-13710428D01*
X10063095Y-13691381D01*
X10053571Y-13653286D01*
X10053571Y-13605667D01*
X10063095Y-13567571D01*
X10072619Y-13548524D01*
X10082143Y-13539000D01*
X10101190Y-13529476D01*
X10234524Y-13529476D02*
X10358333Y-13529476D01*
X10291667Y-13605667D01*
X10320238Y-13605667D01*
X10339286Y-13615190D01*
X10348810Y-13624714D01*
X10358333Y-13643762D01*
X10358333Y-13691381D01*
X10348810Y-13710428D01*
X10339286Y-13719952D01*
X10320238Y-13729476D01*
X10263095Y-13729476D01*
X10244048Y-13719952D01*
X10234524Y-13710428D01*
X10453571Y-13729476D02*
X10491667Y-13729476D01*
X10510714Y-13719952D01*
X10520238Y-13710428D01*
X10539286Y-13681857D01*
X10548810Y-13643762D01*
X10548810Y-13567571D01*
X10539286Y-13548524D01*
X10529762Y-13539000D01*
X10510714Y-13529476D01*
X10472619Y-13529476D01*
X10453571Y-13539000D01*
X10444048Y-13548524D01*
X10434524Y-13567571D01*
X10434524Y-13615190D01*
X10444048Y-13634238D01*
X10453571Y-13643762D01*
X10472619Y-13653286D01*
X10510714Y-13653286D01*
X10529762Y-13643762D01*
X10539286Y-13634238D01*
X10548810Y-13615190D01*
X10720238Y-13596143D02*
X10720238Y-13729476D01*
X10672619Y-13519952D02*
X10625000Y-13662809D01*
X10748810Y-13662809D01*
X10815476Y-13529476D02*
X10815476Y-13567571D01*
X10891667Y-13529476D02*
X10891667Y-13567571D01*
X11186905Y-13805667D02*
X11177381Y-13796143D01*
X11158333Y-13767571D01*
X11148810Y-13748524D01*
X11139286Y-13719952D01*
X11129762Y-13672333D01*
X11129762Y-13634238D01*
X11139286Y-13586619D01*
X11148810Y-13558048D01*
X11158333Y-13539000D01*
X11177381Y-13510428D01*
X11186905Y-13500905D01*
X11244048Y-13529476D02*
X11377381Y-13529476D01*
X11291667Y-13729476D01*
X11605952Y-13729476D02*
X11605952Y-13529476D01*
X11691667Y-13729476D02*
X11691667Y-13624714D01*
X11682143Y-13605667D01*
X11663095Y-13596143D01*
X11634524Y-13596143D01*
X11615476Y-13605667D01*
X11605952Y-13615190D01*
X11815476Y-13729476D02*
X11796428Y-13719952D01*
X11786905Y-13710428D01*
X11777381Y-13691381D01*
X11777381Y-13634238D01*
X11786905Y-13615190D01*
X11796428Y-13605667D01*
X11815476Y-13596143D01*
X11844048Y-13596143D01*
X11863095Y-13605667D01*
X11872619Y-13615190D01*
X11882143Y-13634238D01*
X11882143Y-13691381D01*
X11872619Y-13710428D01*
X11863095Y-13719952D01*
X11844048Y-13729476D01*
X11815476Y-13729476D01*
X11996428Y-13729476D02*
X11977381Y-13719952D01*
X11967857Y-13700905D01*
X11967857Y-13529476D01*
X12148809Y-13719952D02*
X12129762Y-13729476D01*
X12091667Y-13729476D01*
X12072619Y-13719952D01*
X12063095Y-13700905D01*
X12063095Y-13624714D01*
X12072619Y-13605667D01*
X12091667Y-13596143D01*
X12129762Y-13596143D01*
X12148809Y-13605667D01*
X12158333Y-13624714D01*
X12158333Y-13643762D01*
X12063095Y-13662809D01*
X12234524Y-13719952D02*
X12253571Y-13729476D01*
X12291667Y-13729476D01*
X12310714Y-13719952D01*
X12320238Y-13700905D01*
X12320238Y-13691381D01*
X12310714Y-13672333D01*
X12291667Y-13662809D01*
X12263095Y-13662809D01*
X12244048Y-13653286D01*
X12234524Y-13634238D01*
X12234524Y-13624714D01*
X12244048Y-13605667D01*
X12263095Y-13596143D01*
X12291667Y-13596143D01*
X12310714Y-13605667D01*
X12386905Y-13805667D02*
X12396428Y-13796143D01*
X12415476Y-13767571D01*
X12425000Y-13748524D01*
X12434524Y-13719952D01*
X12444048Y-13672333D01*
X12444048Y-13634238D01*
X12434524Y-13586619D01*
X12425000Y-13558048D01*
X12415476Y-13539000D01*
X12396428Y-13510428D01*
X12386905Y-13500905D01*
D16*
X7505000Y-13848000D02*
X7615000Y-13958000D01*
X7615000Y-13848000D02*
X7505000Y-13958000D01*
X7615000Y-13903000D02*
G75*
G03*
X7615000Y-13903000I-55000J0D01*
G01*
D11*
X7977381Y-13993476D02*
X7863095Y-13993476D01*
X7920238Y-13993476D02*
X7920238Y-13793476D01*
X7901190Y-13822048D01*
X7882143Y-13841095D01*
X7863095Y-13850619D01*
X8063095Y-13974428D02*
X8072619Y-13983952D01*
X8063095Y-13993476D01*
X8053571Y-13983952D01*
X8063095Y-13974428D01*
X8063095Y-13993476D01*
X8263095Y-13993476D02*
X8148809Y-13993476D01*
X8205952Y-13993476D02*
X8205952Y-13793476D01*
X8186905Y-13822048D01*
X8167857Y-13841095D01*
X8148809Y-13850619D01*
X8386905Y-13793476D02*
X8405952Y-13793476D01*
X8425000Y-13803000D01*
X8434524Y-13812524D01*
X8444048Y-13831571D01*
X8453571Y-13869667D01*
X8453571Y-13917286D01*
X8444048Y-13955381D01*
X8434524Y-13974428D01*
X8425000Y-13983952D01*
X8405952Y-13993476D01*
X8386905Y-13993476D01*
X8367857Y-13983952D01*
X8358333Y-13974428D01*
X8348809Y-13955381D01*
X8339286Y-13917286D01*
X8339286Y-13869667D01*
X8348809Y-13831571D01*
X8358333Y-13812524D01*
X8367857Y-13803000D01*
X8386905Y-13793476D01*
X8577381Y-13793476D02*
X8596429Y-13793476D01*
X8615476Y-13803000D01*
X8625000Y-13812524D01*
X8634524Y-13831571D01*
X8644048Y-13869667D01*
X8644048Y-13917286D01*
X8634524Y-13955381D01*
X8625000Y-13974428D01*
X8615476Y-13983952D01*
X8596429Y-13993476D01*
X8577381Y-13993476D01*
X8558333Y-13983952D01*
X8548810Y-13974428D01*
X8539286Y-13955381D01*
X8529762Y-13917286D01*
X8529762Y-13869667D01*
X8539286Y-13831571D01*
X8548810Y-13812524D01*
X8558333Y-13803000D01*
X8577381Y-13793476D01*
X8729762Y-13993476D02*
X8729762Y-13860143D01*
X8729762Y-13879190D02*
X8739286Y-13869667D01*
X8758333Y-13860143D01*
X8786905Y-13860143D01*
X8805952Y-13869667D01*
X8815476Y-13888714D01*
X8815476Y-13993476D01*
X8815476Y-13888714D02*
X8825000Y-13869667D01*
X8844048Y-13860143D01*
X8872619Y-13860143D01*
X8891667Y-13869667D01*
X8901190Y-13888714D01*
X8901190Y-13993476D01*
X8996429Y-13993476D02*
X8996429Y-13860143D01*
X8996429Y-13879190D02*
X9005952Y-13869667D01*
X9025000Y-13860143D01*
X9053571Y-13860143D01*
X9072619Y-13869667D01*
X9082143Y-13888714D01*
X9082143Y-13993476D01*
X9082143Y-13888714D02*
X9091667Y-13869667D01*
X9110714Y-13860143D01*
X9139286Y-13860143D01*
X9158333Y-13869667D01*
X9167857Y-13888714D01*
X9167857Y-13993476D01*
X9558333Y-13783952D02*
X9386905Y-14041095D01*
X9815476Y-13793476D02*
X9834524Y-13793476D01*
X9853571Y-13803000D01*
X9863095Y-13812524D01*
X9872619Y-13831571D01*
X9882143Y-13869667D01*
X9882143Y-13917286D01*
X9872619Y-13955381D01*
X9863095Y-13974428D01*
X9853571Y-13983952D01*
X9834524Y-13993476D01*
X9815476Y-13993476D01*
X9796429Y-13983952D01*
X9786905Y-13974428D01*
X9777381Y-13955381D01*
X9767857Y-13917286D01*
X9767857Y-13869667D01*
X9777381Y-13831571D01*
X9786905Y-13812524D01*
X9796429Y-13803000D01*
X9815476Y-13793476D01*
X9967857Y-13974428D02*
X9977381Y-13983952D01*
X9967857Y-13993476D01*
X9958333Y-13983952D01*
X9967857Y-13974428D01*
X9967857Y-13993476D01*
X10101190Y-13793476D02*
X10120238Y-13793476D01*
X10139286Y-13803000D01*
X10148810Y-13812524D01*
X10158333Y-13831571D01*
X10167857Y-13869667D01*
X10167857Y-13917286D01*
X10158333Y-13955381D01*
X10148810Y-13974428D01*
X10139286Y-13983952D01*
X10120238Y-13993476D01*
X10101190Y-13993476D01*
X10082143Y-13983952D01*
X10072619Y-13974428D01*
X10063095Y-13955381D01*
X10053571Y-13917286D01*
X10053571Y-13869667D01*
X10063095Y-13831571D01*
X10072619Y-13812524D01*
X10082143Y-13803000D01*
X10101190Y-13793476D01*
X10339286Y-13860143D02*
X10339286Y-13993476D01*
X10291667Y-13783952D02*
X10244048Y-13926809D01*
X10367857Y-13926809D01*
X10425000Y-13793476D02*
X10548810Y-13793476D01*
X10482143Y-13869667D01*
X10510714Y-13869667D01*
X10529762Y-13879190D01*
X10539286Y-13888714D01*
X10548810Y-13907762D01*
X10548810Y-13955381D01*
X10539286Y-13974428D01*
X10529762Y-13983952D01*
X10510714Y-13993476D01*
X10453571Y-13993476D01*
X10434524Y-13983952D01*
X10425000Y-13974428D01*
X10615476Y-13793476D02*
X10739286Y-13793476D01*
X10672619Y-13869667D01*
X10701190Y-13869667D01*
X10720238Y-13879190D01*
X10729762Y-13888714D01*
X10739286Y-13907762D01*
X10739286Y-13955381D01*
X10729762Y-13974428D01*
X10720238Y-13983952D01*
X10701190Y-13993476D01*
X10644048Y-13993476D01*
X10625000Y-13983952D01*
X10615476Y-13974428D01*
X10815476Y-13793476D02*
X10815476Y-13831571D01*
X10891667Y-13793476D02*
X10891667Y-13831571D01*
X11186905Y-14069667D02*
X11177381Y-14060143D01*
X11158333Y-14031571D01*
X11148810Y-14012524D01*
X11139286Y-13983952D01*
X11129762Y-13936333D01*
X11129762Y-13898238D01*
X11139286Y-13850619D01*
X11148810Y-13822048D01*
X11158333Y-13803000D01*
X11177381Y-13774428D01*
X11186905Y-13764905D01*
X11244048Y-13793476D02*
X11367857Y-13793476D01*
X11301190Y-13869667D01*
X11329762Y-13869667D01*
X11348809Y-13879190D01*
X11358333Y-13888714D01*
X11367857Y-13907762D01*
X11367857Y-13955381D01*
X11358333Y-13974428D01*
X11348809Y-13983952D01*
X11329762Y-13993476D01*
X11272619Y-13993476D01*
X11253571Y-13983952D01*
X11244048Y-13974428D01*
X11605952Y-13993476D02*
X11605952Y-13793476D01*
X11691667Y-13993476D02*
X11691667Y-13888714D01*
X11682143Y-13869667D01*
X11663095Y-13860143D01*
X11634524Y-13860143D01*
X11615476Y-13869667D01*
X11605952Y-13879190D01*
X11815476Y-13993476D02*
X11796428Y-13983952D01*
X11786905Y-13974428D01*
X11777381Y-13955381D01*
X11777381Y-13898238D01*
X11786905Y-13879190D01*
X11796428Y-13869667D01*
X11815476Y-13860143D01*
X11844048Y-13860143D01*
X11863095Y-13869667D01*
X11872619Y-13879190D01*
X11882143Y-13898238D01*
X11882143Y-13955381D01*
X11872619Y-13974428D01*
X11863095Y-13983952D01*
X11844048Y-13993476D01*
X11815476Y-13993476D01*
X11996428Y-13993476D02*
X11977381Y-13983952D01*
X11967857Y-13964905D01*
X11967857Y-13793476D01*
X12148809Y-13983952D02*
X12129762Y-13993476D01*
X12091667Y-13993476D01*
X12072619Y-13983952D01*
X12063095Y-13964905D01*
X12063095Y-13888714D01*
X12072619Y-13869667D01*
X12091667Y-13860143D01*
X12129762Y-13860143D01*
X12148809Y-13869667D01*
X12158333Y-13888714D01*
X12158333Y-13907762D01*
X12063095Y-13926809D01*
X12234524Y-13983952D02*
X12253571Y-13993476D01*
X12291667Y-13993476D01*
X12310714Y-13983952D01*
X12320238Y-13964905D01*
X12320238Y-13955381D01*
X12310714Y-13936333D01*
X12291667Y-13926809D01*
X12263095Y-13926809D01*
X12244048Y-13917286D01*
X12234524Y-13898238D01*
X12234524Y-13888714D01*
X12244048Y-13869667D01*
X12263095Y-13860143D01*
X12291667Y-13860143D01*
X12310714Y-13869667D01*
X12386905Y-14069667D02*
X12396428Y-14060143D01*
X12415476Y-14031571D01*
X12425000Y-14012524D01*
X12434524Y-13983952D01*
X12444048Y-13936333D01*
X12444048Y-13898238D01*
X12434524Y-13850619D01*
X12425000Y-13822048D01*
X12415476Y-13803000D01*
X12396428Y-13774428D01*
X12386905Y-13764905D01*
D17*
X7495000Y-14107000D02*
X7615000Y-14227000D01*
X7615000Y-14107000D02*
X7495000Y-14227000D01*
X7555000Y-14107000D02*
X7555000Y-14227000D01*
X7495000Y-14167000D02*
X7615000Y-14167000D01*
D11*
X7977381Y-14257476D02*
X7863095Y-14257476D01*
X7920238Y-14257476D02*
X7920238Y-14057476D01*
X7901190Y-14086048D01*
X7882143Y-14105095D01*
X7863095Y-14114619D01*
X8063095Y-14238428D02*
X8072619Y-14247952D01*
X8063095Y-14257476D01*
X8053571Y-14247952D01*
X8063095Y-14238428D01*
X8063095Y-14257476D01*
X8148809Y-14076524D02*
X8158333Y-14067000D01*
X8177381Y-14057476D01*
X8225000Y-14057476D01*
X8244048Y-14067000D01*
X8253571Y-14076524D01*
X8263095Y-14095571D01*
X8263095Y-14114619D01*
X8253571Y-14143190D01*
X8139286Y-14257476D01*
X8263095Y-14257476D01*
X8386905Y-14057476D02*
X8405952Y-14057476D01*
X8425000Y-14067000D01*
X8434524Y-14076524D01*
X8444048Y-14095571D01*
X8453571Y-14133667D01*
X8453571Y-14181286D01*
X8444048Y-14219381D01*
X8434524Y-14238428D01*
X8425000Y-14247952D01*
X8405952Y-14257476D01*
X8386905Y-14257476D01*
X8367857Y-14247952D01*
X8358333Y-14238428D01*
X8348809Y-14219381D01*
X8339286Y-14181286D01*
X8339286Y-14133667D01*
X8348809Y-14095571D01*
X8358333Y-14076524D01*
X8367857Y-14067000D01*
X8386905Y-14057476D01*
X8577381Y-14057476D02*
X8596429Y-14057476D01*
X8615476Y-14067000D01*
X8625000Y-14076524D01*
X8634524Y-14095571D01*
X8644048Y-14133667D01*
X8644048Y-14181286D01*
X8634524Y-14219381D01*
X8625000Y-14238428D01*
X8615476Y-14247952D01*
X8596429Y-14257476D01*
X8577381Y-14257476D01*
X8558333Y-14247952D01*
X8548810Y-14238428D01*
X8539286Y-14219381D01*
X8529762Y-14181286D01*
X8529762Y-14133667D01*
X8539286Y-14095571D01*
X8548810Y-14076524D01*
X8558333Y-14067000D01*
X8577381Y-14057476D01*
X8729762Y-14257476D02*
X8729762Y-14124143D01*
X8729762Y-14143190D02*
X8739286Y-14133667D01*
X8758333Y-14124143D01*
X8786905Y-14124143D01*
X8805952Y-14133667D01*
X8815476Y-14152714D01*
X8815476Y-14257476D01*
X8815476Y-14152714D02*
X8825000Y-14133667D01*
X8844048Y-14124143D01*
X8872619Y-14124143D01*
X8891667Y-14133667D01*
X8901190Y-14152714D01*
X8901190Y-14257476D01*
X8996429Y-14257476D02*
X8996429Y-14124143D01*
X8996429Y-14143190D02*
X9005952Y-14133667D01*
X9025000Y-14124143D01*
X9053571Y-14124143D01*
X9072619Y-14133667D01*
X9082143Y-14152714D01*
X9082143Y-14257476D01*
X9082143Y-14152714D02*
X9091667Y-14133667D01*
X9110714Y-14124143D01*
X9139286Y-14124143D01*
X9158333Y-14133667D01*
X9167857Y-14152714D01*
X9167857Y-14257476D01*
X9558333Y-14047952D02*
X9386905Y-14305095D01*
X9815476Y-14057476D02*
X9834524Y-14057476D01*
X9853571Y-14067000D01*
X9863095Y-14076524D01*
X9872619Y-14095571D01*
X9882143Y-14133667D01*
X9882143Y-14181286D01*
X9872619Y-14219381D01*
X9863095Y-14238428D01*
X9853571Y-14247952D01*
X9834524Y-14257476D01*
X9815476Y-14257476D01*
X9796429Y-14247952D01*
X9786905Y-14238428D01*
X9777381Y-14219381D01*
X9767857Y-14181286D01*
X9767857Y-14133667D01*
X9777381Y-14095571D01*
X9786905Y-14076524D01*
X9796429Y-14067000D01*
X9815476Y-14057476D01*
X9967857Y-14238428D02*
X9977381Y-14247952D01*
X9967857Y-14257476D01*
X9958333Y-14247952D01*
X9967857Y-14238428D01*
X9967857Y-14257476D01*
X10101190Y-14057476D02*
X10120238Y-14057476D01*
X10139286Y-14067000D01*
X10148810Y-14076524D01*
X10158333Y-14095571D01*
X10167857Y-14133667D01*
X10167857Y-14181286D01*
X10158333Y-14219381D01*
X10148810Y-14238428D01*
X10139286Y-14247952D01*
X10120238Y-14257476D01*
X10101190Y-14257476D01*
X10082143Y-14247952D01*
X10072619Y-14238428D01*
X10063095Y-14219381D01*
X10053571Y-14181286D01*
X10053571Y-14133667D01*
X10063095Y-14095571D01*
X10072619Y-14076524D01*
X10082143Y-14067000D01*
X10101190Y-14057476D01*
X10339286Y-14124143D02*
X10339286Y-14257476D01*
X10291667Y-14047952D02*
X10244048Y-14190809D01*
X10367857Y-14190809D01*
X10425000Y-14057476D02*
X10558333Y-14057476D01*
X10472619Y-14257476D01*
X10625000Y-14076524D02*
X10634524Y-14067000D01*
X10653571Y-14057476D01*
X10701190Y-14057476D01*
X10720238Y-14067000D01*
X10729762Y-14076524D01*
X10739286Y-14095571D01*
X10739286Y-14114619D01*
X10729762Y-14143190D01*
X10615476Y-14257476D01*
X10739286Y-14257476D01*
X10815476Y-14057476D02*
X10815476Y-14095571D01*
X10891667Y-14057476D02*
X10891667Y-14095571D01*
X11186905Y-14333667D02*
X11177381Y-14324143D01*
X11158333Y-14295571D01*
X11148810Y-14276524D01*
X11139286Y-14247952D01*
X11129762Y-14200333D01*
X11129762Y-14162238D01*
X11139286Y-14114619D01*
X11148810Y-14086048D01*
X11158333Y-14067000D01*
X11177381Y-14038428D01*
X11186905Y-14028905D01*
X11244048Y-14057476D02*
X11367857Y-14057476D01*
X11301190Y-14133667D01*
X11329762Y-14133667D01*
X11348809Y-14143190D01*
X11358333Y-14152714D01*
X11367857Y-14171762D01*
X11367857Y-14219381D01*
X11358333Y-14238428D01*
X11348809Y-14247952D01*
X11329762Y-14257476D01*
X11272619Y-14257476D01*
X11253571Y-14247952D01*
X11244048Y-14238428D01*
X11605952Y-14257476D02*
X11605952Y-14057476D01*
X11691667Y-14257476D02*
X11691667Y-14152714D01*
X11682143Y-14133667D01*
X11663095Y-14124143D01*
X11634524Y-14124143D01*
X11615476Y-14133667D01*
X11605952Y-14143190D01*
X11815476Y-14257476D02*
X11796428Y-14247952D01*
X11786905Y-14238428D01*
X11777381Y-14219381D01*
X11777381Y-14162238D01*
X11786905Y-14143190D01*
X11796428Y-14133667D01*
X11815476Y-14124143D01*
X11844048Y-14124143D01*
X11863095Y-14133667D01*
X11872619Y-14143190D01*
X11882143Y-14162238D01*
X11882143Y-14219381D01*
X11872619Y-14238428D01*
X11863095Y-14247952D01*
X11844048Y-14257476D01*
X11815476Y-14257476D01*
X11996428Y-14257476D02*
X11977381Y-14247952D01*
X11967857Y-14228905D01*
X11967857Y-14057476D01*
X12148809Y-14247952D02*
X12129762Y-14257476D01*
X12091667Y-14257476D01*
X12072619Y-14247952D01*
X12063095Y-14228905D01*
X12063095Y-14152714D01*
X12072619Y-14133667D01*
X12091667Y-14124143D01*
X12129762Y-14124143D01*
X12148809Y-14133667D01*
X12158333Y-14152714D01*
X12158333Y-14171762D01*
X12063095Y-14190809D01*
X12234524Y-14247952D02*
X12253571Y-14257476D01*
X12291667Y-14257476D01*
X12310714Y-14247952D01*
X12320238Y-14228905D01*
X12320238Y-14219381D01*
X12310714Y-14200333D01*
X12291667Y-14190809D01*
X12263095Y-14190809D01*
X12244048Y-14181286D01*
X12234524Y-14162238D01*
X12234524Y-14152714D01*
X12244048Y-14133667D01*
X12263095Y-14124143D01*
X12291667Y-14124143D01*
X12310714Y-14133667D01*
X12386905Y-14333667D02*
X12396428Y-14324143D01*
X12415476Y-14295571D01*
X12425000Y-14276524D01*
X12434524Y-14247952D01*
X12444048Y-14200333D01*
X12444048Y-14162238D01*
X12434524Y-14114619D01*
X12425000Y-14086048D01*
X12415476Y-14067000D01*
X12396428Y-14038428D01*
X12386905Y-14028905D01*
D18*
X7485000Y-14366000D02*
X7615000Y-14496000D01*
X7615000Y-14366000D02*
X7485000Y-14496000D01*
X7595962Y-14476962D02*
X7595962Y-14385038D01*
X7504038Y-14385038D01*
X7504038Y-14476962D01*
X7595962Y-14476962D01*
D11*
X7977381Y-14521476D02*
X7863095Y-14521476D01*
X7920238Y-14521476D02*
X7920238Y-14321476D01*
X7901190Y-14350048D01*
X7882143Y-14369095D01*
X7863095Y-14378619D01*
X8063095Y-14502428D02*
X8072619Y-14511952D01*
X8063095Y-14521476D01*
X8053571Y-14511952D01*
X8063095Y-14502428D01*
X8063095Y-14521476D01*
X8139286Y-14321476D02*
X8263095Y-14321476D01*
X8196428Y-14397667D01*
X8225000Y-14397667D01*
X8244048Y-14407190D01*
X8253571Y-14416714D01*
X8263095Y-14435762D01*
X8263095Y-14483381D01*
X8253571Y-14502428D01*
X8244048Y-14511952D01*
X8225000Y-14521476D01*
X8167857Y-14521476D01*
X8148809Y-14511952D01*
X8139286Y-14502428D01*
X8386905Y-14321476D02*
X8405952Y-14321476D01*
X8425000Y-14331000D01*
X8434524Y-14340524D01*
X8444048Y-14359571D01*
X8453571Y-14397667D01*
X8453571Y-14445286D01*
X8444048Y-14483381D01*
X8434524Y-14502428D01*
X8425000Y-14511952D01*
X8405952Y-14521476D01*
X8386905Y-14521476D01*
X8367857Y-14511952D01*
X8358333Y-14502428D01*
X8348809Y-14483381D01*
X8339286Y-14445286D01*
X8339286Y-14397667D01*
X8348809Y-14359571D01*
X8358333Y-14340524D01*
X8367857Y-14331000D01*
X8386905Y-14321476D01*
X8577381Y-14321476D02*
X8596429Y-14321476D01*
X8615476Y-14331000D01*
X8625000Y-14340524D01*
X8634524Y-14359571D01*
X8644048Y-14397667D01*
X8644048Y-14445286D01*
X8634524Y-14483381D01*
X8625000Y-14502428D01*
X8615476Y-14511952D01*
X8596429Y-14521476D01*
X8577381Y-14521476D01*
X8558333Y-14511952D01*
X8548810Y-14502428D01*
X8539286Y-14483381D01*
X8529762Y-14445286D01*
X8529762Y-14397667D01*
X8539286Y-14359571D01*
X8548810Y-14340524D01*
X8558333Y-14331000D01*
X8577381Y-14321476D01*
X8729762Y-14521476D02*
X8729762Y-14388143D01*
X8729762Y-14407190D02*
X8739286Y-14397667D01*
X8758333Y-14388143D01*
X8786905Y-14388143D01*
X8805952Y-14397667D01*
X8815476Y-14416714D01*
X8815476Y-14521476D01*
X8815476Y-14416714D02*
X8825000Y-14397667D01*
X8844048Y-14388143D01*
X8872619Y-14388143D01*
X8891667Y-14397667D01*
X8901190Y-14416714D01*
X8901190Y-14521476D01*
X8996429Y-14521476D02*
X8996429Y-14388143D01*
X8996429Y-14407190D02*
X9005952Y-14397667D01*
X9025000Y-14388143D01*
X9053571Y-14388143D01*
X9072619Y-14397667D01*
X9082143Y-14416714D01*
X9082143Y-14521476D01*
X9082143Y-14416714D02*
X9091667Y-14397667D01*
X9110714Y-14388143D01*
X9139286Y-14388143D01*
X9158333Y-14397667D01*
X9167857Y-14416714D01*
X9167857Y-14521476D01*
X9558333Y-14311952D02*
X9386905Y-14569095D01*
X9815476Y-14321476D02*
X9834524Y-14321476D01*
X9853571Y-14331000D01*
X9863095Y-14340524D01*
X9872619Y-14359571D01*
X9882143Y-14397667D01*
X9882143Y-14445286D01*
X9872619Y-14483381D01*
X9863095Y-14502428D01*
X9853571Y-14511952D01*
X9834524Y-14521476D01*
X9815476Y-14521476D01*
X9796429Y-14511952D01*
X9786905Y-14502428D01*
X9777381Y-14483381D01*
X9767857Y-14445286D01*
X9767857Y-14397667D01*
X9777381Y-14359571D01*
X9786905Y-14340524D01*
X9796429Y-14331000D01*
X9815476Y-14321476D01*
X9967857Y-14502428D02*
X9977381Y-14511952D01*
X9967857Y-14521476D01*
X9958333Y-14511952D01*
X9967857Y-14502428D01*
X9967857Y-14521476D01*
X10101190Y-14321476D02*
X10120238Y-14321476D01*
X10139286Y-14331000D01*
X10148810Y-14340524D01*
X10158333Y-14359571D01*
X10167857Y-14397667D01*
X10167857Y-14445286D01*
X10158333Y-14483381D01*
X10148810Y-14502428D01*
X10139286Y-14511952D01*
X10120238Y-14521476D01*
X10101190Y-14521476D01*
X10082143Y-14511952D01*
X10072619Y-14502428D01*
X10063095Y-14483381D01*
X10053571Y-14445286D01*
X10053571Y-14397667D01*
X10063095Y-14359571D01*
X10072619Y-14340524D01*
X10082143Y-14331000D01*
X10101190Y-14321476D01*
X10348810Y-14321476D02*
X10253571Y-14321476D01*
X10244048Y-14416714D01*
X10253571Y-14407190D01*
X10272619Y-14397667D01*
X10320238Y-14397667D01*
X10339286Y-14407190D01*
X10348810Y-14416714D01*
X10358333Y-14435762D01*
X10358333Y-14483381D01*
X10348810Y-14502428D01*
X10339286Y-14511952D01*
X10320238Y-14521476D01*
X10272619Y-14521476D01*
X10253571Y-14511952D01*
X10244048Y-14502428D01*
X10548810Y-14521476D02*
X10434524Y-14521476D01*
X10491667Y-14521476D02*
X10491667Y-14321476D01*
X10472619Y-14350048D01*
X10453571Y-14369095D01*
X10434524Y-14378619D01*
X10625000Y-14340524D02*
X10634524Y-14331000D01*
X10653571Y-14321476D01*
X10701190Y-14321476D01*
X10720238Y-14331000D01*
X10729762Y-14340524D01*
X10739286Y-14359571D01*
X10739286Y-14378619D01*
X10729762Y-14407190D01*
X10615476Y-14521476D01*
X10739286Y-14521476D01*
X10815476Y-14321476D02*
X10815476Y-14359571D01*
X10891667Y-14321476D02*
X10891667Y-14359571D01*
X11186905Y-14597667D02*
X11177381Y-14588143D01*
X11158333Y-14559571D01*
X11148810Y-14540524D01*
X11139286Y-14511952D01*
X11129762Y-14464333D01*
X11129762Y-14426238D01*
X11139286Y-14378619D01*
X11148810Y-14350048D01*
X11158333Y-14331000D01*
X11177381Y-14302428D01*
X11186905Y-14292905D01*
X11367857Y-14521476D02*
X11253571Y-14521476D01*
X11310714Y-14521476D02*
X11310714Y-14321476D01*
X11291667Y-14350048D01*
X11272619Y-14369095D01*
X11253571Y-14378619D01*
X11491667Y-14321476D02*
X11510714Y-14321476D01*
X11529762Y-14331000D01*
X11539286Y-14340524D01*
X11548809Y-14359571D01*
X11558333Y-14397667D01*
X11558333Y-14445286D01*
X11548809Y-14483381D01*
X11539286Y-14502428D01*
X11529762Y-14511952D01*
X11510714Y-14521476D01*
X11491667Y-14521476D01*
X11472619Y-14511952D01*
X11463095Y-14502428D01*
X11453571Y-14483381D01*
X11444048Y-14445286D01*
X11444048Y-14397667D01*
X11453571Y-14359571D01*
X11463095Y-14340524D01*
X11472619Y-14331000D01*
X11491667Y-14321476D01*
X11796428Y-14521476D02*
X11796428Y-14321476D01*
X11882143Y-14521476D02*
X11882143Y-14416714D01*
X11872619Y-14397667D01*
X11853571Y-14388143D01*
X11825000Y-14388143D01*
X11805952Y-14397667D01*
X11796428Y-14407190D01*
X12005952Y-14521476D02*
X11986905Y-14511952D01*
X11977381Y-14502428D01*
X11967857Y-14483381D01*
X11967857Y-14426238D01*
X11977381Y-14407190D01*
X11986905Y-14397667D01*
X12005952Y-14388143D01*
X12034524Y-14388143D01*
X12053571Y-14397667D01*
X12063095Y-14407190D01*
X12072619Y-14426238D01*
X12072619Y-14483381D01*
X12063095Y-14502428D01*
X12053571Y-14511952D01*
X12034524Y-14521476D01*
X12005952Y-14521476D01*
X12186905Y-14521476D02*
X12167857Y-14511952D01*
X12158333Y-14492905D01*
X12158333Y-14321476D01*
X12339286Y-14511952D02*
X12320238Y-14521476D01*
X12282143Y-14521476D01*
X12263095Y-14511952D01*
X12253571Y-14492905D01*
X12253571Y-14416714D01*
X12263095Y-14397667D01*
X12282143Y-14388143D01*
X12320238Y-14388143D01*
X12339286Y-14397667D01*
X12348809Y-14416714D01*
X12348809Y-14435762D01*
X12253571Y-14454809D01*
X12425000Y-14511952D02*
X12444048Y-14521476D01*
X12482143Y-14521476D01*
X12501190Y-14511952D01*
X12510714Y-14492905D01*
X12510714Y-14483381D01*
X12501190Y-14464333D01*
X12482143Y-14454809D01*
X12453571Y-14454809D01*
X12434524Y-14445286D01*
X12425000Y-14426238D01*
X12425000Y-14416714D01*
X12434524Y-14397667D01*
X12453571Y-14388143D01*
X12482143Y-14388143D01*
X12501190Y-14397667D01*
X12577381Y-14597667D02*
X12586905Y-14588143D01*
X12605952Y-14559571D01*
X12615476Y-14540524D01*
X12625000Y-14511952D01*
X12634524Y-14464333D01*
X12634524Y-14426238D01*
X12625000Y-14378619D01*
X12615476Y-14350048D01*
X12605952Y-14331000D01*
X12586905Y-14302428D01*
X12577381Y-14292905D01*
X7415000Y-14595000D02*
X7615000Y-14795000D01*
X7615000Y-14595000D02*
X7415000Y-14795000D01*
X7515000Y-14795000D02*
X7615000Y-14695000D01*
X7515000Y-14595000D01*
X7415000Y-14695000D01*
X7515000Y-14795000D01*
X7863095Y-14604524D02*
X7872619Y-14595000D01*
X7891667Y-14585476D01*
X7939286Y-14585476D01*
X7958333Y-14595000D01*
X7967857Y-14604524D01*
X7977381Y-14623571D01*
X7977381Y-14642619D01*
X7967857Y-14671190D01*
X7853571Y-14785476D01*
X7977381Y-14785476D01*
X8063095Y-14766428D02*
X8072619Y-14775952D01*
X8063095Y-14785476D01*
X8053571Y-14775952D01*
X8063095Y-14766428D01*
X8063095Y-14785476D01*
X8139286Y-14585476D02*
X8272619Y-14585476D01*
X8186905Y-14785476D01*
X8386905Y-14585476D02*
X8405952Y-14585476D01*
X8425000Y-14595000D01*
X8434524Y-14604524D01*
X8444048Y-14623571D01*
X8453571Y-14661667D01*
X8453571Y-14709286D01*
X8444048Y-14747381D01*
X8434524Y-14766428D01*
X8425000Y-14775952D01*
X8405952Y-14785476D01*
X8386905Y-14785476D01*
X8367857Y-14775952D01*
X8358333Y-14766428D01*
X8348809Y-14747381D01*
X8339286Y-14709286D01*
X8339286Y-14661667D01*
X8348809Y-14623571D01*
X8358333Y-14604524D01*
X8367857Y-14595000D01*
X8386905Y-14585476D01*
X8577381Y-14585476D02*
X8596429Y-14585476D01*
X8615476Y-14595000D01*
X8625000Y-14604524D01*
X8634524Y-14623571D01*
X8644048Y-14661667D01*
X8644048Y-14709286D01*
X8634524Y-14747381D01*
X8625000Y-14766428D01*
X8615476Y-14775952D01*
X8596429Y-14785476D01*
X8577381Y-14785476D01*
X8558333Y-14775952D01*
X8548810Y-14766428D01*
X8539286Y-14747381D01*
X8529762Y-14709286D01*
X8529762Y-14661667D01*
X8539286Y-14623571D01*
X8548810Y-14604524D01*
X8558333Y-14595000D01*
X8577381Y-14585476D01*
X8729762Y-14785476D02*
X8729762Y-14652143D01*
X8729762Y-14671190D02*
X8739286Y-14661667D01*
X8758333Y-14652143D01*
X8786905Y-14652143D01*
X8805952Y-14661667D01*
X8815476Y-14680714D01*
X8815476Y-14785476D01*
X8815476Y-14680714D02*
X8825000Y-14661667D01*
X8844048Y-14652143D01*
X8872619Y-14652143D01*
X8891667Y-14661667D01*
X8901190Y-14680714D01*
X8901190Y-14785476D01*
X8996429Y-14785476D02*
X8996429Y-14652143D01*
X8996429Y-14671190D02*
X9005952Y-14661667D01*
X9025000Y-14652143D01*
X9053571Y-14652143D01*
X9072619Y-14661667D01*
X9082143Y-14680714D01*
X9082143Y-14785476D01*
X9082143Y-14680714D02*
X9091667Y-14661667D01*
X9110714Y-14652143D01*
X9139286Y-14652143D01*
X9158333Y-14661667D01*
X9167857Y-14680714D01*
X9167857Y-14785476D01*
X9558333Y-14575952D02*
X9386905Y-14833095D01*
X9815476Y-14585476D02*
X9834524Y-14585476D01*
X9853571Y-14595000D01*
X9863095Y-14604524D01*
X9872619Y-14623571D01*
X9882143Y-14661667D01*
X9882143Y-14709286D01*
X9872619Y-14747381D01*
X9863095Y-14766428D01*
X9853571Y-14775952D01*
X9834524Y-14785476D01*
X9815476Y-14785476D01*
X9796429Y-14775952D01*
X9786905Y-14766428D01*
X9777381Y-14747381D01*
X9767857Y-14709286D01*
X9767857Y-14661667D01*
X9777381Y-14623571D01*
X9786905Y-14604524D01*
X9796429Y-14595000D01*
X9815476Y-14585476D01*
X9967857Y-14766428D02*
X9977381Y-14775952D01*
X9967857Y-14785476D01*
X9958333Y-14775952D01*
X9967857Y-14766428D01*
X9967857Y-14785476D01*
X10167857Y-14785476D02*
X10053571Y-14785476D01*
X10110714Y-14785476D02*
X10110714Y-14585476D01*
X10091667Y-14614048D01*
X10072619Y-14633095D01*
X10053571Y-14642619D01*
X10291667Y-14585476D02*
X10310714Y-14585476D01*
X10329762Y-14595000D01*
X10339286Y-14604524D01*
X10348810Y-14623571D01*
X10358333Y-14661667D01*
X10358333Y-14709286D01*
X10348810Y-14747381D01*
X10339286Y-14766428D01*
X10329762Y-14775952D01*
X10310714Y-14785476D01*
X10291667Y-14785476D01*
X10272619Y-14775952D01*
X10263095Y-14766428D01*
X10253571Y-14747381D01*
X10244048Y-14709286D01*
X10244048Y-14661667D01*
X10253571Y-14623571D01*
X10263095Y-14604524D01*
X10272619Y-14595000D01*
X10291667Y-14585476D01*
X10529762Y-14585476D02*
X10491667Y-14585476D01*
X10472619Y-14595000D01*
X10463095Y-14604524D01*
X10444048Y-14633095D01*
X10434524Y-14671190D01*
X10434524Y-14747381D01*
X10444048Y-14766428D01*
X10453571Y-14775952D01*
X10472619Y-14785476D01*
X10510714Y-14785476D01*
X10529762Y-14775952D01*
X10539286Y-14766428D01*
X10548810Y-14747381D01*
X10548810Y-14699762D01*
X10539286Y-14680714D01*
X10529762Y-14671190D01*
X10510714Y-14661667D01*
X10472619Y-14661667D01*
X10453571Y-14671190D01*
X10444048Y-14680714D01*
X10434524Y-14699762D01*
X10615476Y-14585476D02*
X10739286Y-14585476D01*
X10672619Y-14661667D01*
X10701190Y-14661667D01*
X10720238Y-14671190D01*
X10729762Y-14680714D01*
X10739286Y-14699762D01*
X10739286Y-14747381D01*
X10729762Y-14766428D01*
X10720238Y-14775952D01*
X10701190Y-14785476D01*
X10644048Y-14785476D01*
X10625000Y-14775952D01*
X10615476Y-14766428D01*
X10815476Y-14585476D02*
X10815476Y-14623571D01*
X10891667Y-14585476D02*
X10891667Y-14623571D01*
X11186905Y-14861667D02*
X11177381Y-14852143D01*
X11158333Y-14823571D01*
X11148810Y-14804524D01*
X11139286Y-14775952D01*
X11129762Y-14728333D01*
X11129762Y-14690238D01*
X11139286Y-14642619D01*
X11148810Y-14614048D01*
X11158333Y-14595000D01*
X11177381Y-14566428D01*
X11186905Y-14556905D01*
X11348809Y-14652143D02*
X11348809Y-14785476D01*
X11301190Y-14575952D02*
X11253571Y-14718809D01*
X11377381Y-14718809D01*
X11605952Y-14785476D02*
X11605952Y-14585476D01*
X11691667Y-14785476D02*
X11691667Y-14680714D01*
X11682143Y-14661667D01*
X11663095Y-14652143D01*
X11634524Y-14652143D01*
X11615476Y-14661667D01*
X11605952Y-14671190D01*
X11815476Y-14785476D02*
X11796428Y-14775952D01*
X11786905Y-14766428D01*
X11777381Y-14747381D01*
X11777381Y-14690238D01*
X11786905Y-14671190D01*
X11796428Y-14661667D01*
X11815476Y-14652143D01*
X11844048Y-14652143D01*
X11863095Y-14661667D01*
X11872619Y-14671190D01*
X11882143Y-14690238D01*
X11882143Y-14747381D01*
X11872619Y-14766428D01*
X11863095Y-14775952D01*
X11844048Y-14785476D01*
X11815476Y-14785476D01*
X11996428Y-14785476D02*
X11977381Y-14775952D01*
X11967857Y-14756905D01*
X11967857Y-14585476D01*
X12148809Y-14775952D02*
X12129762Y-14785476D01*
X12091667Y-14785476D01*
X12072619Y-14775952D01*
X12063095Y-14756905D01*
X12063095Y-14680714D01*
X12072619Y-14661667D01*
X12091667Y-14652143D01*
X12129762Y-14652143D01*
X12148809Y-14661667D01*
X12158333Y-14680714D01*
X12158333Y-14699762D01*
X12063095Y-14718809D01*
X12234524Y-14775952D02*
X12253571Y-14785476D01*
X12291667Y-14785476D01*
X12310714Y-14775952D01*
X12320238Y-14756905D01*
X12320238Y-14747381D01*
X12310714Y-14728333D01*
X12291667Y-14718809D01*
X12263095Y-14718809D01*
X12244048Y-14709286D01*
X12234524Y-14690238D01*
X12234524Y-14680714D01*
X12244048Y-14661667D01*
X12263095Y-14652143D01*
X12291667Y-14652143D01*
X12310714Y-14661667D01*
X12386905Y-14861667D02*
X12396428Y-14852143D01*
X12415476Y-14823571D01*
X12425000Y-14804524D01*
X12434524Y-14775952D01*
X12444048Y-14728333D01*
X12444048Y-14690238D01*
X12434524Y-14642619D01*
X12425000Y-14614048D01*
X12415476Y-14595000D01*
X12396428Y-14566428D01*
X12386905Y-14556905D01*
M02*
