%TF.GenerationSoftware,KiCad,Pcbnew,6.0.11+dfsg-1*%
%TF.CreationDate,2023-04-08T00:57:23+02:00*%
%TF.ProjectId,LampeV1,4c616d70-6556-4312-9e6b-696361645f70,rev?*%
%TF.SameCoordinates,Original*%
%TF.FileFunction,Legend,Top*%
%TF.FilePolarity,Positive*%
%FSLAX46Y46*%
G04 Gerber Fmt 4.6, Leading zero omitted, Abs format (unit mm)*
G04 Created by KiCad (PCBNEW 6.0.11+dfsg-1) date 2023-04-08 00:57:23*
%MOMM*%
%LPD*%
G01*
G04 APERTURE LIST*
%ADD10C,0.150000*%
%ADD11C,0.120000*%
G04 APERTURE END LIST*
D10*
%TO.C,H4*%
X109728095Y-101342380D02*
X109728095Y-100342380D01*
X109728095Y-100818571D02*
X110299523Y-100818571D01*
X110299523Y-101342380D02*
X110299523Y-100342380D01*
X111204285Y-100675714D02*
X111204285Y-101342380D01*
X110966190Y-100294761D02*
X110728095Y-101009047D01*
X111347142Y-101009047D01*
%TO.C,H3*%
X80518095Y-97532380D02*
X80518095Y-96532380D01*
X80518095Y-97008571D02*
X81089523Y-97008571D01*
X81089523Y-97532380D02*
X81089523Y-96532380D01*
X81470476Y-96532380D02*
X82089523Y-96532380D01*
X81756190Y-96913333D01*
X81899047Y-96913333D01*
X81994285Y-96960952D01*
X82041904Y-97008571D01*
X82089523Y-97103809D01*
X82089523Y-97341904D01*
X82041904Y-97437142D01*
X81994285Y-97484761D01*
X81899047Y-97532380D01*
X81613333Y-97532380D01*
X81518095Y-97484761D01*
X81470476Y-97437142D01*
%TO.C,H2*%
X135128095Y-46732380D02*
X135128095Y-45732380D01*
X135128095Y-46208571D02*
X135699523Y-46208571D01*
X135699523Y-46732380D02*
X135699523Y-45732380D01*
X136128095Y-45827619D02*
X136175714Y-45780000D01*
X136270952Y-45732380D01*
X136509047Y-45732380D01*
X136604285Y-45780000D01*
X136651904Y-45827619D01*
X136699523Y-45922857D01*
X136699523Y-46018095D01*
X136651904Y-46160952D01*
X136080476Y-46732380D01*
X136699523Y-46732380D01*
%TO.C,H1*%
X83058095Y-44192380D02*
X83058095Y-43192380D01*
X83058095Y-43668571D02*
X83629523Y-43668571D01*
X83629523Y-44192380D02*
X83629523Y-43192380D01*
X84629523Y-44192380D02*
X84058095Y-44192380D01*
X84343809Y-44192380D02*
X84343809Y-43192380D01*
X84248571Y-43335238D01*
X84153333Y-43430476D01*
X84058095Y-43478095D01*
%TO.C,J1*%
X93846666Y-117562380D02*
X93846666Y-118276666D01*
X93799047Y-118419523D01*
X93703809Y-118514761D01*
X93560952Y-118562380D01*
X93465714Y-118562380D01*
X94846666Y-118562380D02*
X94275238Y-118562380D01*
X94560952Y-118562380D02*
X94560952Y-117562380D01*
X94465714Y-117705238D01*
X94370476Y-117800476D01*
X94275238Y-117848095D01*
%TO.C,R8*%
X126833333Y-74322380D02*
X126500000Y-73846190D01*
X126261904Y-74322380D02*
X126261904Y-73322380D01*
X126642857Y-73322380D01*
X126738095Y-73370000D01*
X126785714Y-73417619D01*
X126833333Y-73512857D01*
X126833333Y-73655714D01*
X126785714Y-73750952D01*
X126738095Y-73798571D01*
X126642857Y-73846190D01*
X126261904Y-73846190D01*
X127404761Y-73750952D02*
X127309523Y-73703333D01*
X127261904Y-73655714D01*
X127214285Y-73560476D01*
X127214285Y-73512857D01*
X127261904Y-73417619D01*
X127309523Y-73370000D01*
X127404761Y-73322380D01*
X127595238Y-73322380D01*
X127690476Y-73370000D01*
X127738095Y-73417619D01*
X127785714Y-73512857D01*
X127785714Y-73560476D01*
X127738095Y-73655714D01*
X127690476Y-73703333D01*
X127595238Y-73750952D01*
X127404761Y-73750952D01*
X127309523Y-73798571D01*
X127261904Y-73846190D01*
X127214285Y-73941428D01*
X127214285Y-74131904D01*
X127261904Y-74227142D01*
X127309523Y-74274761D01*
X127404761Y-74322380D01*
X127595238Y-74322380D01*
X127690476Y-74274761D01*
X127738095Y-74227142D01*
X127785714Y-74131904D01*
X127785714Y-73941428D01*
X127738095Y-73846190D01*
X127690476Y-73798571D01*
X127595238Y-73750952D01*
%TO.C,R7*%
X114582380Y-92876666D02*
X114106190Y-93210000D01*
X114582380Y-93448095D02*
X113582380Y-93448095D01*
X113582380Y-93067142D01*
X113630000Y-92971904D01*
X113677619Y-92924285D01*
X113772857Y-92876666D01*
X113915714Y-92876666D01*
X114010952Y-92924285D01*
X114058571Y-92971904D01*
X114106190Y-93067142D01*
X114106190Y-93448095D01*
X113582380Y-92543333D02*
X113582380Y-91876666D01*
X114582380Y-92305238D01*
%TO.C,J3*%
X88566666Y-95472380D02*
X88566666Y-96186666D01*
X88519047Y-96329523D01*
X88423809Y-96424761D01*
X88280952Y-96472380D01*
X88185714Y-96472380D01*
X88947619Y-95472380D02*
X89566666Y-95472380D01*
X89233333Y-95853333D01*
X89376190Y-95853333D01*
X89471428Y-95900952D01*
X89519047Y-95948571D01*
X89566666Y-96043809D01*
X89566666Y-96281904D01*
X89519047Y-96377142D01*
X89471428Y-96424761D01*
X89376190Y-96472380D01*
X89090476Y-96472380D01*
X88995238Y-96424761D01*
X88947619Y-96377142D01*
%TO.C,U5*%
X128778095Y-73092380D02*
X128778095Y-73901904D01*
X128825714Y-73997142D01*
X128873333Y-74044761D01*
X128968571Y-74092380D01*
X129159047Y-74092380D01*
X129254285Y-74044761D01*
X129301904Y-73997142D01*
X129349523Y-73901904D01*
X129349523Y-73092380D01*
X130301904Y-73092380D02*
X129825714Y-73092380D01*
X129778095Y-73568571D01*
X129825714Y-73520952D01*
X129920952Y-73473333D01*
X130159047Y-73473333D01*
X130254285Y-73520952D01*
X130301904Y-73568571D01*
X130349523Y-73663809D01*
X130349523Y-73901904D01*
X130301904Y-73997142D01*
X130254285Y-74044761D01*
X130159047Y-74092380D01*
X129920952Y-74092380D01*
X129825714Y-74044761D01*
X129778095Y-73997142D01*
%TO.C,U2*%
X88138095Y-103762380D02*
X88138095Y-104571904D01*
X88185714Y-104667142D01*
X88233333Y-104714761D01*
X88328571Y-104762380D01*
X88519047Y-104762380D01*
X88614285Y-104714761D01*
X88661904Y-104667142D01*
X88709523Y-104571904D01*
X88709523Y-103762380D01*
X89138095Y-103857619D02*
X89185714Y-103810000D01*
X89280952Y-103762380D01*
X89519047Y-103762380D01*
X89614285Y-103810000D01*
X89661904Y-103857619D01*
X89709523Y-103952857D01*
X89709523Y-104048095D01*
X89661904Y-104190952D01*
X89090476Y-104762380D01*
X89709523Y-104762380D01*
%TO.C,U4*%
X118638095Y-96197380D02*
X118638095Y-97006904D01*
X118685714Y-97102142D01*
X118733333Y-97149761D01*
X118828571Y-97197380D01*
X119019047Y-97197380D01*
X119114285Y-97149761D01*
X119161904Y-97102142D01*
X119209523Y-97006904D01*
X119209523Y-96197380D01*
X120114285Y-96530714D02*
X120114285Y-97197380D01*
X119876190Y-96149761D02*
X119638095Y-96864047D01*
X120257142Y-96864047D01*
%TO.C,U1*%
X81505300Y-47750065D02*
X82314824Y-47750065D01*
X82410062Y-47702446D01*
X82457681Y-47654827D01*
X82505300Y-47559589D01*
X82505300Y-47369113D01*
X82457681Y-47273875D01*
X82410062Y-47226256D01*
X82314824Y-47178637D01*
X81505300Y-47178637D01*
X82505300Y-46178637D02*
X82505300Y-46750065D01*
X82505300Y-46464351D02*
X81505300Y-46464351D01*
X81648158Y-46559589D01*
X81743396Y-46654827D01*
X81791015Y-46750065D01*
X111044824Y-48190412D02*
X111378158Y-48190412D01*
X111521015Y-48714221D02*
X111044824Y-48714221D01*
X111044824Y-47714221D01*
X111521015Y-47714221D01*
X111901967Y-48666602D02*
X112044824Y-48714221D01*
X112282920Y-48714221D01*
X112378158Y-48666602D01*
X112425777Y-48618983D01*
X112473396Y-48523745D01*
X112473396Y-48428507D01*
X112425777Y-48333269D01*
X112378158Y-48285650D01*
X112282920Y-48238031D01*
X112092443Y-48190412D01*
X111997205Y-48142793D01*
X111949586Y-48095174D01*
X111901967Y-47999936D01*
X111901967Y-47904698D01*
X111949586Y-47809460D01*
X111997205Y-47761841D01*
X112092443Y-47714221D01*
X112330539Y-47714221D01*
X112473396Y-47761841D01*
X112901967Y-48714221D02*
X112901967Y-47714221D01*
X113282920Y-47714221D01*
X113378158Y-47761841D01*
X113425777Y-47809460D01*
X113473396Y-47904698D01*
X113473396Y-48047555D01*
X113425777Y-48142793D01*
X113378158Y-48190412D01*
X113282920Y-48238031D01*
X112901967Y-48238031D01*
X113806729Y-47714221D02*
X114425777Y-47714221D01*
X114092443Y-48095174D01*
X114235300Y-48095174D01*
X114330539Y-48142793D01*
X114378158Y-48190412D01*
X114425777Y-48285650D01*
X114425777Y-48523745D01*
X114378158Y-48618983D01*
X114330539Y-48666602D01*
X114235300Y-48714221D01*
X113949586Y-48714221D01*
X113854348Y-48666602D01*
X113806729Y-48618983D01*
X114806729Y-47809460D02*
X114854348Y-47761841D01*
X114949586Y-47714221D01*
X115187681Y-47714221D01*
X115282920Y-47761841D01*
X115330539Y-47809460D01*
X115378158Y-47904698D01*
X115378158Y-47999936D01*
X115330539Y-48142793D01*
X114759110Y-48714221D01*
X115378158Y-48714221D01*
X115806729Y-48333269D02*
X116568634Y-48333269D01*
X116997205Y-48666602D02*
X117140062Y-48714221D01*
X117378158Y-48714221D01*
X117473396Y-48666602D01*
X117521015Y-48618983D01*
X117568634Y-48523745D01*
X117568634Y-48428507D01*
X117521015Y-48333269D01*
X117473396Y-48285650D01*
X117378158Y-48238031D01*
X117187681Y-48190412D01*
X117092443Y-48142793D01*
X117044824Y-48095174D01*
X116997205Y-47999936D01*
X116997205Y-47904698D01*
X117044824Y-47809460D01*
X117092443Y-47761841D01*
X117187681Y-47714221D01*
X117425777Y-47714221D01*
X117568634Y-47761841D01*
X117949586Y-47809460D02*
X117997205Y-47761841D01*
X118092443Y-47714221D01*
X118330539Y-47714221D01*
X118425777Y-47761841D01*
X118473396Y-47809460D01*
X118521015Y-47904698D01*
X118521015Y-47999936D01*
X118473396Y-48142793D01*
X117901967Y-48714221D01*
X118521015Y-48714221D01*
X118949586Y-48333269D02*
X119711491Y-48333269D01*
X120187681Y-48714221D02*
X120187681Y-47714221D01*
X120425777Y-47714221D01*
X120568634Y-47761841D01*
X120663872Y-47857079D01*
X120711491Y-47952317D01*
X120759110Y-48142793D01*
X120759110Y-48285650D01*
X120711491Y-48476126D01*
X120663872Y-48571364D01*
X120568634Y-48666602D01*
X120425777Y-48714221D01*
X120187681Y-48714221D01*
X121568634Y-48666602D02*
X121473396Y-48714221D01*
X121282920Y-48714221D01*
X121187681Y-48666602D01*
X121140062Y-48571364D01*
X121140062Y-48190412D01*
X121187681Y-48095174D01*
X121282920Y-48047555D01*
X121473396Y-48047555D01*
X121568634Y-48095174D01*
X121616253Y-48190412D01*
X121616253Y-48285650D01*
X121140062Y-48380888D01*
X121949586Y-48047555D02*
X122187681Y-48714221D01*
X122425777Y-48047555D01*
X122806729Y-48714221D02*
X122806729Y-47714221D01*
X123378158Y-48714221D02*
X122949586Y-48142793D01*
X123378158Y-47714221D02*
X122806729Y-48285650D01*
X123806729Y-48714221D02*
X123806729Y-48047555D01*
X123806729Y-47714221D02*
X123759110Y-47761841D01*
X123806729Y-47809460D01*
X123854348Y-47761841D01*
X123806729Y-47714221D01*
X123806729Y-47809460D01*
X124140062Y-48047555D02*
X124521015Y-48047555D01*
X124282920Y-47714221D02*
X124282920Y-48571364D01*
X124330539Y-48666602D01*
X124425777Y-48714221D01*
X124521015Y-48714221D01*
X124854348Y-48714221D02*
X124854348Y-47714221D01*
X125187681Y-48428507D01*
X125521015Y-47714221D01*
X125521015Y-48714221D01*
X109050200Y-42866007D02*
X109002580Y-42961245D01*
X109002580Y-43104102D01*
X109050200Y-43246960D01*
X109145438Y-43342198D01*
X109240676Y-43389817D01*
X109431152Y-43437436D01*
X109574009Y-43437436D01*
X109764485Y-43389817D01*
X109859723Y-43342198D01*
X109954961Y-43246960D01*
X110002580Y-43104102D01*
X110002580Y-43008864D01*
X109954961Y-42866007D01*
X109907342Y-42818388D01*
X109574009Y-42818388D01*
X109574009Y-43008864D01*
X110002580Y-42389817D02*
X109002580Y-42389817D01*
X109002580Y-42008864D01*
X109050200Y-41913626D01*
X109097819Y-41866007D01*
X109193057Y-41818388D01*
X109335914Y-41818388D01*
X109431152Y-41866007D01*
X109478771Y-41913626D01*
X109526390Y-42008864D01*
X109526390Y-42389817D01*
X110002580Y-41389817D02*
X109002580Y-41389817D01*
X109002580Y-40723150D02*
X109002580Y-40532674D01*
X109050200Y-40437436D01*
X109145438Y-40342198D01*
X109335914Y-40294579D01*
X109669247Y-40294579D01*
X109859723Y-40342198D01*
X109954961Y-40437436D01*
X110002580Y-40532674D01*
X110002580Y-40723150D01*
X109954961Y-40818388D01*
X109859723Y-40913626D01*
X109669247Y-40961245D01*
X109335914Y-40961245D01*
X109145438Y-40913626D01*
X109050200Y-40818388D01*
X109002580Y-40723150D01*
X109002580Y-39961245D02*
X109002580Y-39342198D01*
X109383533Y-39675531D01*
X109383533Y-39532674D01*
X109431152Y-39437436D01*
X109478771Y-39389817D01*
X109574009Y-39342198D01*
X109812104Y-39342198D01*
X109907342Y-39389817D01*
X109954961Y-39437436D01*
X110002580Y-39532674D01*
X110002580Y-39818388D01*
X109954961Y-39913626D01*
X109907342Y-39961245D01*
X109431152Y-38770769D02*
X109383533Y-38866007D01*
X109335914Y-38913626D01*
X109240676Y-38961245D01*
X109193057Y-38961245D01*
X109097819Y-38913626D01*
X109050200Y-38866007D01*
X109002580Y-38770769D01*
X109002580Y-38580293D01*
X109050200Y-38485055D01*
X109097819Y-38437436D01*
X109193057Y-38389817D01*
X109240676Y-38389817D01*
X109335914Y-38437436D01*
X109383533Y-38485055D01*
X109431152Y-38580293D01*
X109431152Y-38770769D01*
X109478771Y-38866007D01*
X109526390Y-38913626D01*
X109621628Y-38961245D01*
X109812104Y-38961245D01*
X109907342Y-38913626D01*
X109954961Y-38866007D01*
X110002580Y-38770769D01*
X110002580Y-38580293D01*
X109954961Y-38485055D01*
X109907342Y-38437436D01*
X109812104Y-38389817D01*
X109621628Y-38389817D01*
X109526390Y-38437436D01*
X109478771Y-38485055D01*
X109431152Y-38580293D01*
X88730200Y-57562436D02*
X88682580Y-57657674D01*
X88682580Y-57800531D01*
X88730200Y-57943388D01*
X88825438Y-58038626D01*
X88920676Y-58086245D01*
X89111152Y-58133864D01*
X89254009Y-58133864D01*
X89444485Y-58086245D01*
X89539723Y-58038626D01*
X89634961Y-57943388D01*
X89682580Y-57800531D01*
X89682580Y-57705293D01*
X89634961Y-57562436D01*
X89587342Y-57514817D01*
X89254009Y-57514817D01*
X89254009Y-57705293D01*
X89682580Y-57086245D02*
X88682580Y-57086245D01*
X88682580Y-56705293D01*
X88730200Y-56610055D01*
X88777819Y-56562436D01*
X88873057Y-56514817D01*
X89015914Y-56514817D01*
X89111152Y-56562436D01*
X89158771Y-56610055D01*
X89206390Y-56705293D01*
X89206390Y-57086245D01*
X89682580Y-56086245D02*
X88682580Y-56086245D01*
X88682580Y-55419579D02*
X88682580Y-55229102D01*
X88730200Y-55133864D01*
X88825438Y-55038626D01*
X89015914Y-54991007D01*
X89349247Y-54991007D01*
X89539723Y-55038626D01*
X89634961Y-55133864D01*
X89682580Y-55229102D01*
X89682580Y-55419579D01*
X89634961Y-55514817D01*
X89539723Y-55610055D01*
X89349247Y-55657674D01*
X89015914Y-55657674D01*
X88825438Y-55610055D01*
X88730200Y-55514817D01*
X88682580Y-55419579D01*
X89682580Y-54038626D02*
X89682580Y-54610055D01*
X89682580Y-54324341D02*
X88682580Y-54324341D01*
X88825438Y-54419579D01*
X88920676Y-54514817D01*
X88968295Y-54610055D01*
X114130200Y-42866007D02*
X114082580Y-42961245D01*
X114082580Y-43104102D01*
X114130200Y-43246960D01*
X114225438Y-43342198D01*
X114320676Y-43389817D01*
X114511152Y-43437436D01*
X114654009Y-43437436D01*
X114844485Y-43389817D01*
X114939723Y-43342198D01*
X115034961Y-43246960D01*
X115082580Y-43104102D01*
X115082580Y-43008864D01*
X115034961Y-42866007D01*
X114987342Y-42818388D01*
X114654009Y-42818388D01*
X114654009Y-43008864D01*
X115082580Y-42389817D02*
X114082580Y-42389817D01*
X114082580Y-42008864D01*
X114130200Y-41913626D01*
X114177819Y-41866007D01*
X114273057Y-41818388D01*
X114415914Y-41818388D01*
X114511152Y-41866007D01*
X114558771Y-41913626D01*
X114606390Y-42008864D01*
X114606390Y-42389817D01*
X115082580Y-41389817D02*
X114082580Y-41389817D01*
X114082580Y-40723150D02*
X114082580Y-40532674D01*
X114130200Y-40437436D01*
X114225438Y-40342198D01*
X114415914Y-40294579D01*
X114749247Y-40294579D01*
X114939723Y-40342198D01*
X115034961Y-40437436D01*
X115082580Y-40532674D01*
X115082580Y-40723150D01*
X115034961Y-40818388D01*
X114939723Y-40913626D01*
X114749247Y-40961245D01*
X114415914Y-40961245D01*
X114225438Y-40913626D01*
X114130200Y-40818388D01*
X114082580Y-40723150D01*
X114082580Y-39961245D02*
X114082580Y-39342198D01*
X114463533Y-39675531D01*
X114463533Y-39532674D01*
X114511152Y-39437436D01*
X114558771Y-39389817D01*
X114654009Y-39342198D01*
X114892104Y-39342198D01*
X114987342Y-39389817D01*
X115034961Y-39437436D01*
X115082580Y-39532674D01*
X115082580Y-39818388D01*
X115034961Y-39913626D01*
X114987342Y-39961245D01*
X114082580Y-38485055D02*
X114082580Y-38675531D01*
X114130200Y-38770769D01*
X114177819Y-38818388D01*
X114320676Y-38913626D01*
X114511152Y-38961245D01*
X114892104Y-38961245D01*
X114987342Y-38913626D01*
X115034961Y-38866007D01*
X115082580Y-38770769D01*
X115082580Y-38580293D01*
X115034961Y-38485055D01*
X114987342Y-38437436D01*
X114892104Y-38389817D01*
X114654009Y-38389817D01*
X114558771Y-38437436D01*
X114511152Y-38485055D01*
X114463533Y-38580293D01*
X114463533Y-38770769D01*
X114511152Y-38866007D01*
X114558771Y-38913626D01*
X114654009Y-38961245D01*
X121750200Y-42866007D02*
X121702580Y-42961245D01*
X121702580Y-43104102D01*
X121750200Y-43246960D01*
X121845438Y-43342198D01*
X121940676Y-43389817D01*
X122131152Y-43437436D01*
X122274009Y-43437436D01*
X122464485Y-43389817D01*
X122559723Y-43342198D01*
X122654961Y-43246960D01*
X122702580Y-43104102D01*
X122702580Y-43008864D01*
X122654961Y-42866007D01*
X122607342Y-42818388D01*
X122274009Y-42818388D01*
X122274009Y-43008864D01*
X122702580Y-42389817D02*
X121702580Y-42389817D01*
X121702580Y-42008864D01*
X121750200Y-41913626D01*
X121797819Y-41866007D01*
X121893057Y-41818388D01*
X122035914Y-41818388D01*
X122131152Y-41866007D01*
X122178771Y-41913626D01*
X122226390Y-42008864D01*
X122226390Y-42389817D01*
X122702580Y-41389817D02*
X121702580Y-41389817D01*
X121702580Y-40723150D02*
X121702580Y-40532674D01*
X121750200Y-40437436D01*
X121845438Y-40342198D01*
X122035914Y-40294579D01*
X122369247Y-40294579D01*
X122559723Y-40342198D01*
X122654961Y-40437436D01*
X122702580Y-40532674D01*
X122702580Y-40723150D01*
X122654961Y-40818388D01*
X122559723Y-40913626D01*
X122369247Y-40961245D01*
X122035914Y-40961245D01*
X121845438Y-40913626D01*
X121750200Y-40818388D01*
X121702580Y-40723150D01*
X121702580Y-39961245D02*
X121702580Y-39342198D01*
X122083533Y-39675531D01*
X122083533Y-39532674D01*
X122131152Y-39437436D01*
X122178771Y-39389817D01*
X122274009Y-39342198D01*
X122512104Y-39342198D01*
X122607342Y-39389817D01*
X122654961Y-39437436D01*
X122702580Y-39532674D01*
X122702580Y-39818388D01*
X122654961Y-39913626D01*
X122607342Y-39961245D01*
X121702580Y-39008864D02*
X121702580Y-38389817D01*
X122083533Y-38723150D01*
X122083533Y-38580293D01*
X122131152Y-38485055D01*
X122178771Y-38437436D01*
X122274009Y-38389817D01*
X122512104Y-38389817D01*
X122607342Y-38437436D01*
X122654961Y-38485055D01*
X122702580Y-38580293D01*
X122702580Y-38866007D01*
X122654961Y-38961245D01*
X122607342Y-39008864D01*
X121750200Y-57562436D02*
X121702580Y-57657674D01*
X121702580Y-57800531D01*
X121750200Y-57943388D01*
X121845438Y-58038626D01*
X121940676Y-58086245D01*
X122131152Y-58133864D01*
X122274009Y-58133864D01*
X122464485Y-58086245D01*
X122559723Y-58038626D01*
X122654961Y-57943388D01*
X122702580Y-57800531D01*
X122702580Y-57705293D01*
X122654961Y-57562436D01*
X122607342Y-57514817D01*
X122274009Y-57514817D01*
X122274009Y-57705293D01*
X122702580Y-57086245D02*
X121702580Y-57086245D01*
X121702580Y-56705293D01*
X121750200Y-56610055D01*
X121797819Y-56562436D01*
X121893057Y-56514817D01*
X122035914Y-56514817D01*
X122131152Y-56562436D01*
X122178771Y-56610055D01*
X122226390Y-56705293D01*
X122226390Y-57086245D01*
X122702580Y-56086245D02*
X121702580Y-56086245D01*
X121702580Y-55419579D02*
X121702580Y-55229102D01*
X121750200Y-55133864D01*
X121845438Y-55038626D01*
X122035914Y-54991007D01*
X122369247Y-54991007D01*
X122559723Y-55038626D01*
X122654961Y-55133864D01*
X122702580Y-55229102D01*
X122702580Y-55419579D01*
X122654961Y-55514817D01*
X122559723Y-55610055D01*
X122369247Y-55657674D01*
X122035914Y-55657674D01*
X121845438Y-55610055D01*
X121750200Y-55514817D01*
X121702580Y-55419579D01*
X122702580Y-54038626D02*
X122702580Y-54610055D01*
X122702580Y-54324341D02*
X121702580Y-54324341D01*
X121845438Y-54419579D01*
X121940676Y-54514817D01*
X121988295Y-54610055D01*
X122035914Y-53181483D02*
X122702580Y-53181483D01*
X121654961Y-53419579D02*
X122369247Y-53657674D01*
X122369247Y-53038626D01*
X93810200Y-48866007D02*
X93762580Y-48961245D01*
X93762580Y-49104102D01*
X93810200Y-49246960D01*
X93905438Y-49342198D01*
X94000676Y-49389817D01*
X94191152Y-49437436D01*
X94334009Y-49437436D01*
X94524485Y-49389817D01*
X94619723Y-49342198D01*
X94714961Y-49246960D01*
X94762580Y-49104102D01*
X94762580Y-49008864D01*
X94714961Y-48866007D01*
X94667342Y-48818388D01*
X94334009Y-48818388D01*
X94334009Y-49008864D01*
X94762580Y-48389817D02*
X93762580Y-48389817D01*
X93762580Y-48008864D01*
X93810200Y-47913626D01*
X93857819Y-47866007D01*
X93953057Y-47818388D01*
X94095914Y-47818388D01*
X94191152Y-47866007D01*
X94238771Y-47913626D01*
X94286390Y-48008864D01*
X94286390Y-48389817D01*
X94762580Y-47389817D02*
X93762580Y-47389817D01*
X93762580Y-46723150D02*
X93762580Y-46532674D01*
X93810200Y-46437436D01*
X93905438Y-46342198D01*
X94095914Y-46294579D01*
X94429247Y-46294579D01*
X94619723Y-46342198D01*
X94714961Y-46437436D01*
X94762580Y-46532674D01*
X94762580Y-46723150D01*
X94714961Y-46818388D01*
X94619723Y-46913626D01*
X94429247Y-46961245D01*
X94095914Y-46961245D01*
X93905438Y-46913626D01*
X93810200Y-46818388D01*
X93762580Y-46723150D01*
X94095914Y-45437436D02*
X94762580Y-45437436D01*
X93714961Y-45675531D02*
X94429247Y-45913626D01*
X94429247Y-45294579D01*
X94095914Y-44485055D02*
X94762580Y-44485055D01*
X93714961Y-44723150D02*
X94429247Y-44961245D01*
X94429247Y-44342198D01*
X93714961Y-43246960D02*
X95000676Y-44104102D01*
X93762580Y-42913626D02*
X94572104Y-42913626D01*
X94667342Y-42866007D01*
X94714961Y-42818388D01*
X94762580Y-42723150D01*
X94762580Y-42532674D01*
X94714961Y-42437436D01*
X94667342Y-42389817D01*
X94572104Y-42342198D01*
X93762580Y-42342198D01*
X93762580Y-41675531D02*
X93762580Y-41580293D01*
X93810200Y-41485055D01*
X93857819Y-41437436D01*
X93953057Y-41389817D01*
X94143533Y-41342198D01*
X94381628Y-41342198D01*
X94572104Y-41389817D01*
X94667342Y-41437436D01*
X94714961Y-41485055D01*
X94762580Y-41580293D01*
X94762580Y-41675531D01*
X94714961Y-41770769D01*
X94667342Y-41818388D01*
X94572104Y-41866007D01*
X94381628Y-41913626D01*
X94143533Y-41913626D01*
X93953057Y-41866007D01*
X93857819Y-41818388D01*
X93810200Y-41770769D01*
X93762580Y-41675531D01*
X94762580Y-40342198D02*
X94286390Y-40675531D01*
X94762580Y-40913626D02*
X93762580Y-40913626D01*
X93762580Y-40532674D01*
X93810200Y-40437436D01*
X93857819Y-40389817D01*
X93953057Y-40342198D01*
X94095914Y-40342198D01*
X94191152Y-40389817D01*
X94238771Y-40437436D01*
X94286390Y-40532674D01*
X94286390Y-40913626D01*
X93762580Y-40008864D02*
X94762580Y-39342198D01*
X93762580Y-39342198D02*
X94762580Y-40008864D01*
X94762580Y-38961245D02*
X93762580Y-38961245D01*
X93762580Y-38723150D01*
X93810200Y-38580293D01*
X93905438Y-38485055D01*
X94000676Y-38437436D01*
X94191152Y-38389817D01*
X94334009Y-38389817D01*
X94524485Y-38437436D01*
X94619723Y-38485055D01*
X94714961Y-38580293D01*
X94762580Y-38723150D01*
X94762580Y-38961245D01*
X131862580Y-57610055D02*
X131862580Y-58086245D01*
X132338771Y-58133864D01*
X132291152Y-58086245D01*
X132243533Y-57991007D01*
X132243533Y-57752912D01*
X132291152Y-57657674D01*
X132338771Y-57610055D01*
X132434009Y-57562436D01*
X132672104Y-57562436D01*
X132767342Y-57610055D01*
X132814961Y-57657674D01*
X132862580Y-57752912D01*
X132862580Y-57991007D01*
X132814961Y-58086245D01*
X132767342Y-58133864D01*
X131862580Y-57276721D02*
X132862580Y-56943388D01*
X131862580Y-56610055D01*
X103970200Y-57562436D02*
X103922580Y-57657674D01*
X103922580Y-57800531D01*
X103970200Y-57943388D01*
X104065438Y-58038626D01*
X104160676Y-58086245D01*
X104351152Y-58133864D01*
X104494009Y-58133864D01*
X104684485Y-58086245D01*
X104779723Y-58038626D01*
X104874961Y-57943388D01*
X104922580Y-57800531D01*
X104922580Y-57705293D01*
X104874961Y-57562436D01*
X104827342Y-57514817D01*
X104494009Y-57514817D01*
X104494009Y-57705293D01*
X104922580Y-57086245D02*
X103922580Y-57086245D01*
X103922580Y-56705293D01*
X103970200Y-56610055D01*
X104017819Y-56562436D01*
X104113057Y-56514817D01*
X104255914Y-56514817D01*
X104351152Y-56562436D01*
X104398771Y-56610055D01*
X104446390Y-56705293D01*
X104446390Y-57086245D01*
X104922580Y-56086245D02*
X103922580Y-56086245D01*
X103922580Y-55419579D02*
X103922580Y-55229102D01*
X103970200Y-55133864D01*
X104065438Y-55038626D01*
X104255914Y-54991007D01*
X104589247Y-54991007D01*
X104779723Y-55038626D01*
X104874961Y-55133864D01*
X104922580Y-55229102D01*
X104922580Y-55419579D01*
X104874961Y-55514817D01*
X104779723Y-55610055D01*
X104589247Y-55657674D01*
X104255914Y-55657674D01*
X104065438Y-55610055D01*
X103970200Y-55514817D01*
X103922580Y-55419579D01*
X103922580Y-54657674D02*
X103922580Y-53991007D01*
X104922580Y-54419579D01*
X93810200Y-57558756D02*
X93762580Y-57653994D01*
X93762580Y-57796851D01*
X93810200Y-57939708D01*
X93905438Y-58034946D01*
X94000676Y-58082565D01*
X94191152Y-58130184D01*
X94334009Y-58130184D01*
X94524485Y-58082565D01*
X94619723Y-58034946D01*
X94714961Y-57939708D01*
X94762580Y-57796851D01*
X94762580Y-57701613D01*
X94714961Y-57558756D01*
X94667342Y-57511137D01*
X94334009Y-57511137D01*
X94334009Y-57701613D01*
X94762580Y-57082565D02*
X93762580Y-57082565D01*
X93762580Y-56701613D01*
X93810200Y-56606375D01*
X93857819Y-56558756D01*
X93953057Y-56511137D01*
X94095914Y-56511137D01*
X94191152Y-56558756D01*
X94238771Y-56606375D01*
X94286390Y-56701613D01*
X94286390Y-57082565D01*
X94762580Y-56082565D02*
X93762580Y-56082565D01*
X93762580Y-55415899D02*
X93762580Y-55225422D01*
X93810200Y-55130184D01*
X93905438Y-55034946D01*
X94095914Y-54987327D01*
X94429247Y-54987327D01*
X94619723Y-55034946D01*
X94714961Y-55130184D01*
X94762580Y-55225422D01*
X94762580Y-55415899D01*
X94714961Y-55511137D01*
X94619723Y-55606375D01*
X94429247Y-55653994D01*
X94095914Y-55653994D01*
X93905438Y-55606375D01*
X93810200Y-55511137D01*
X93762580Y-55415899D01*
X93762580Y-54653994D02*
X93762580Y-54034946D01*
X94143533Y-54368280D01*
X94143533Y-54225422D01*
X94191152Y-54130184D01*
X94238771Y-54082565D01*
X94334009Y-54034946D01*
X94572104Y-54034946D01*
X94667342Y-54082565D01*
X94714961Y-54130184D01*
X94762580Y-54225422D01*
X94762580Y-54511137D01*
X94714961Y-54606375D01*
X94667342Y-54653994D01*
X96350200Y-57562436D02*
X96302580Y-57657674D01*
X96302580Y-57800531D01*
X96350200Y-57943388D01*
X96445438Y-58038626D01*
X96540676Y-58086245D01*
X96731152Y-58133864D01*
X96874009Y-58133864D01*
X97064485Y-58086245D01*
X97159723Y-58038626D01*
X97254961Y-57943388D01*
X97302580Y-57800531D01*
X97302580Y-57705293D01*
X97254961Y-57562436D01*
X97207342Y-57514817D01*
X96874009Y-57514817D01*
X96874009Y-57705293D01*
X97302580Y-57086245D02*
X96302580Y-57086245D01*
X96302580Y-56705293D01*
X96350200Y-56610055D01*
X96397819Y-56562436D01*
X96493057Y-56514817D01*
X96635914Y-56514817D01*
X96731152Y-56562436D01*
X96778771Y-56610055D01*
X96826390Y-56705293D01*
X96826390Y-57086245D01*
X97302580Y-56086245D02*
X96302580Y-56086245D01*
X96302580Y-55419579D02*
X96302580Y-55229102D01*
X96350200Y-55133864D01*
X96445438Y-55038626D01*
X96635914Y-54991007D01*
X96969247Y-54991007D01*
X97159723Y-55038626D01*
X97254961Y-55133864D01*
X97302580Y-55229102D01*
X97302580Y-55419579D01*
X97254961Y-55514817D01*
X97159723Y-55610055D01*
X96969247Y-55657674D01*
X96635914Y-55657674D01*
X96445438Y-55610055D01*
X96350200Y-55514817D01*
X96302580Y-55419579D01*
X96635914Y-54133864D02*
X97302580Y-54133864D01*
X96254961Y-54371960D02*
X96969247Y-54610055D01*
X96969247Y-53991007D01*
X83652920Y-40481375D02*
X83605300Y-40576613D01*
X83605300Y-40719470D01*
X83652920Y-40862327D01*
X83748158Y-40957565D01*
X83843396Y-41005184D01*
X84033872Y-41052803D01*
X84176729Y-41052803D01*
X84367205Y-41005184D01*
X84462443Y-40957565D01*
X84557681Y-40862327D01*
X84605300Y-40719470D01*
X84605300Y-40624232D01*
X84557681Y-40481375D01*
X84510062Y-40433756D01*
X84176729Y-40433756D01*
X84176729Y-40624232D01*
X84605300Y-40005184D02*
X83605300Y-40005184D01*
X84605300Y-39433756D01*
X83605300Y-39433756D01*
X84605300Y-38957565D02*
X83605300Y-38957565D01*
X83605300Y-38719470D01*
X83652920Y-38576613D01*
X83748158Y-38481375D01*
X83843396Y-38433756D01*
X84033872Y-38386137D01*
X84176729Y-38386137D01*
X84367205Y-38433756D01*
X84462443Y-38481375D01*
X84557681Y-38576613D01*
X84605300Y-38719470D01*
X84605300Y-38957565D01*
X101430200Y-47294579D02*
X101382580Y-47389817D01*
X101382580Y-47532674D01*
X101430200Y-47675531D01*
X101525438Y-47770769D01*
X101620676Y-47818388D01*
X101811152Y-47866007D01*
X101954009Y-47866007D01*
X102144485Y-47818388D01*
X102239723Y-47770769D01*
X102334961Y-47675531D01*
X102382580Y-47532674D01*
X102382580Y-47437436D01*
X102334961Y-47294579D01*
X102287342Y-47246960D01*
X101954009Y-47246960D01*
X101954009Y-47437436D01*
X102382580Y-46818388D02*
X101382580Y-46818388D01*
X101382580Y-46437436D01*
X101430200Y-46342198D01*
X101477819Y-46294579D01*
X101573057Y-46246960D01*
X101715914Y-46246960D01*
X101811152Y-46294579D01*
X101858771Y-46342198D01*
X101906390Y-46437436D01*
X101906390Y-46818388D01*
X102382580Y-45818388D02*
X101382580Y-45818388D01*
X101382580Y-45151721D02*
X101382580Y-44961245D01*
X101430200Y-44866007D01*
X101525438Y-44770769D01*
X101715914Y-44723150D01*
X102049247Y-44723150D01*
X102239723Y-44770769D01*
X102334961Y-44866007D01*
X102382580Y-44961245D01*
X102382580Y-45151721D01*
X102334961Y-45246960D01*
X102239723Y-45342198D01*
X102049247Y-45389817D01*
X101715914Y-45389817D01*
X101525438Y-45342198D01*
X101430200Y-45246960D01*
X101382580Y-45151721D01*
X101715914Y-43866007D02*
X102382580Y-43866007D01*
X101334961Y-44104102D02*
X102049247Y-44342198D01*
X102049247Y-43723150D01*
X102382580Y-42818388D02*
X102382580Y-43389817D01*
X102382580Y-43104102D02*
X101382580Y-43104102D01*
X101525438Y-43199341D01*
X101620676Y-43294579D01*
X101668295Y-43389817D01*
X101334961Y-41675531D02*
X102620676Y-42532674D01*
X102382580Y-41342198D02*
X101382580Y-41342198D01*
X102096866Y-41008864D01*
X101382580Y-40675531D01*
X102382580Y-40675531D01*
X101382580Y-40342198D02*
X101382580Y-39770769D01*
X102382580Y-40056483D02*
X101382580Y-40056483D01*
X102382580Y-39437436D02*
X101382580Y-39437436D01*
X101382580Y-39199341D01*
X101430200Y-39056483D01*
X101525438Y-38961245D01*
X101620676Y-38913626D01*
X101811152Y-38866007D01*
X101954009Y-38866007D01*
X102144485Y-38913626D01*
X102239723Y-38961245D01*
X102334961Y-39056483D01*
X102382580Y-39199341D01*
X102382580Y-39437436D01*
X102382580Y-38437436D02*
X101382580Y-38437436D01*
X83605300Y-58177803D02*
X83605300Y-57558756D01*
X83986253Y-57892089D01*
X83986253Y-57749232D01*
X84033872Y-57653994D01*
X84081491Y-57606375D01*
X84176729Y-57558756D01*
X84414824Y-57558756D01*
X84510062Y-57606375D01*
X84557681Y-57653994D01*
X84605300Y-57749232D01*
X84605300Y-58034946D01*
X84557681Y-58130184D01*
X84510062Y-58177803D01*
X83605300Y-57273041D02*
X84605300Y-56939708D01*
X83605300Y-56606375D01*
X83605300Y-56368280D02*
X83605300Y-55749232D01*
X83986253Y-56082565D01*
X83986253Y-55939708D01*
X84033872Y-55844470D01*
X84081491Y-55796851D01*
X84176729Y-55749232D01*
X84414824Y-55749232D01*
X84510062Y-55796851D01*
X84557681Y-55844470D01*
X84605300Y-55939708D01*
X84605300Y-56225422D01*
X84557681Y-56320661D01*
X84510062Y-56368280D01*
X109050200Y-57562436D02*
X109002580Y-57657674D01*
X109002580Y-57800531D01*
X109050200Y-57943388D01*
X109145438Y-58038626D01*
X109240676Y-58086245D01*
X109431152Y-58133864D01*
X109574009Y-58133864D01*
X109764485Y-58086245D01*
X109859723Y-58038626D01*
X109954961Y-57943388D01*
X110002580Y-57800531D01*
X110002580Y-57705293D01*
X109954961Y-57562436D01*
X109907342Y-57514817D01*
X109574009Y-57514817D01*
X109574009Y-57705293D01*
X110002580Y-57086245D02*
X109002580Y-57086245D01*
X109002580Y-56705293D01*
X109050200Y-56610055D01*
X109097819Y-56562436D01*
X109193057Y-56514817D01*
X109335914Y-56514817D01*
X109431152Y-56562436D01*
X109478771Y-56610055D01*
X109526390Y-56705293D01*
X109526390Y-57086245D01*
X110002580Y-56086245D02*
X109002580Y-56086245D01*
X109002580Y-55419579D02*
X109002580Y-55229102D01*
X109050200Y-55133864D01*
X109145438Y-55038626D01*
X109335914Y-54991007D01*
X109669247Y-54991007D01*
X109859723Y-55038626D01*
X109954961Y-55133864D01*
X110002580Y-55229102D01*
X110002580Y-55419579D01*
X109954961Y-55514817D01*
X109859723Y-55610055D01*
X109669247Y-55657674D01*
X109335914Y-55657674D01*
X109145438Y-55610055D01*
X109050200Y-55514817D01*
X109002580Y-55419579D01*
X110002580Y-54514817D02*
X110002580Y-54324341D01*
X109954961Y-54229102D01*
X109907342Y-54181483D01*
X109764485Y-54086245D01*
X109574009Y-54038626D01*
X109193057Y-54038626D01*
X109097819Y-54086245D01*
X109050200Y-54133864D01*
X109002580Y-54229102D01*
X109002580Y-54419579D01*
X109050200Y-54514817D01*
X109097819Y-54562436D01*
X109193057Y-54610055D01*
X109431152Y-54610055D01*
X109526390Y-54562436D01*
X109574009Y-54514817D01*
X109621628Y-54419579D01*
X109621628Y-54229102D01*
X109574009Y-54133864D01*
X109526390Y-54086245D01*
X109431152Y-54038626D01*
X103970200Y-47866007D02*
X103922580Y-47961245D01*
X103922580Y-48104102D01*
X103970200Y-48246960D01*
X104065438Y-48342198D01*
X104160676Y-48389817D01*
X104351152Y-48437436D01*
X104494009Y-48437436D01*
X104684485Y-48389817D01*
X104779723Y-48342198D01*
X104874961Y-48246960D01*
X104922580Y-48104102D01*
X104922580Y-48008864D01*
X104874961Y-47866007D01*
X104827342Y-47818388D01*
X104494009Y-47818388D01*
X104494009Y-48008864D01*
X104922580Y-47389817D02*
X103922580Y-47389817D01*
X103922580Y-47008864D01*
X103970200Y-46913626D01*
X104017819Y-46866007D01*
X104113057Y-46818388D01*
X104255914Y-46818388D01*
X104351152Y-46866007D01*
X104398771Y-46913626D01*
X104446390Y-47008864D01*
X104446390Y-47389817D01*
X104922580Y-46389817D02*
X103922580Y-46389817D01*
X103922580Y-45723150D02*
X103922580Y-45532674D01*
X103970200Y-45437436D01*
X104065438Y-45342198D01*
X104255914Y-45294579D01*
X104589247Y-45294579D01*
X104779723Y-45342198D01*
X104874961Y-45437436D01*
X104922580Y-45532674D01*
X104922580Y-45723150D01*
X104874961Y-45818388D01*
X104779723Y-45913626D01*
X104589247Y-45961245D01*
X104255914Y-45961245D01*
X104065438Y-45913626D01*
X103970200Y-45818388D01*
X103922580Y-45723150D01*
X104255914Y-44437436D02*
X104922580Y-44437436D01*
X103874961Y-44675531D02*
X104589247Y-44913626D01*
X104589247Y-44294579D01*
X103922580Y-43723150D02*
X103922580Y-43627912D01*
X103970200Y-43532674D01*
X104017819Y-43485055D01*
X104113057Y-43437436D01*
X104303533Y-43389817D01*
X104541628Y-43389817D01*
X104732104Y-43437436D01*
X104827342Y-43485055D01*
X104874961Y-43532674D01*
X104922580Y-43627912D01*
X104922580Y-43723150D01*
X104874961Y-43818388D01*
X104827342Y-43866007D01*
X104732104Y-43913626D01*
X104541628Y-43961245D01*
X104303533Y-43961245D01*
X104113057Y-43913626D01*
X104017819Y-43866007D01*
X103970200Y-43818388D01*
X103922580Y-43723150D01*
X103874961Y-42246960D02*
X105160676Y-43104102D01*
X104922580Y-41913626D02*
X103922580Y-41913626D01*
X104636866Y-41580293D01*
X103922580Y-41246960D01*
X104922580Y-41246960D01*
X103922580Y-40913626D02*
X103922580Y-40342198D01*
X104922580Y-40627912D02*
X103922580Y-40627912D01*
X104922580Y-40008864D02*
X103922580Y-40008864D01*
X103922580Y-39770769D01*
X103970200Y-39627912D01*
X104065438Y-39532674D01*
X104160676Y-39485055D01*
X104351152Y-39437436D01*
X104494009Y-39437436D01*
X104684485Y-39485055D01*
X104779723Y-39532674D01*
X104874961Y-39627912D01*
X104922580Y-39770769D01*
X104922580Y-40008864D01*
X103922580Y-38818388D02*
X103922580Y-38627912D01*
X103970200Y-38532674D01*
X104065438Y-38437436D01*
X104255914Y-38389817D01*
X104589247Y-38389817D01*
X104779723Y-38437436D01*
X104874961Y-38532674D01*
X104922580Y-38627912D01*
X104922580Y-38818388D01*
X104874961Y-38913626D01*
X104779723Y-39008864D01*
X104589247Y-39056483D01*
X104255914Y-39056483D01*
X104065438Y-39008864D01*
X103970200Y-38913626D01*
X103922580Y-38818388D01*
X116670200Y-42866007D02*
X116622580Y-42961245D01*
X116622580Y-43104102D01*
X116670200Y-43246960D01*
X116765438Y-43342198D01*
X116860676Y-43389817D01*
X117051152Y-43437436D01*
X117194009Y-43437436D01*
X117384485Y-43389817D01*
X117479723Y-43342198D01*
X117574961Y-43246960D01*
X117622580Y-43104102D01*
X117622580Y-43008864D01*
X117574961Y-42866007D01*
X117527342Y-42818388D01*
X117194009Y-42818388D01*
X117194009Y-43008864D01*
X117622580Y-42389817D02*
X116622580Y-42389817D01*
X116622580Y-42008864D01*
X116670200Y-41913626D01*
X116717819Y-41866007D01*
X116813057Y-41818388D01*
X116955914Y-41818388D01*
X117051152Y-41866007D01*
X117098771Y-41913626D01*
X117146390Y-42008864D01*
X117146390Y-42389817D01*
X117622580Y-41389817D02*
X116622580Y-41389817D01*
X116622580Y-40723150D02*
X116622580Y-40532674D01*
X116670200Y-40437436D01*
X116765438Y-40342198D01*
X116955914Y-40294579D01*
X117289247Y-40294579D01*
X117479723Y-40342198D01*
X117574961Y-40437436D01*
X117622580Y-40532674D01*
X117622580Y-40723150D01*
X117574961Y-40818388D01*
X117479723Y-40913626D01*
X117289247Y-40961245D01*
X116955914Y-40961245D01*
X116765438Y-40913626D01*
X116670200Y-40818388D01*
X116622580Y-40723150D01*
X116622580Y-39961245D02*
X116622580Y-39342198D01*
X117003533Y-39675531D01*
X117003533Y-39532674D01*
X117051152Y-39437436D01*
X117098771Y-39389817D01*
X117194009Y-39342198D01*
X117432104Y-39342198D01*
X117527342Y-39389817D01*
X117574961Y-39437436D01*
X117622580Y-39532674D01*
X117622580Y-39818388D01*
X117574961Y-39913626D01*
X117527342Y-39961245D01*
X116622580Y-38437436D02*
X116622580Y-38913626D01*
X117098771Y-38961245D01*
X117051152Y-38913626D01*
X117003533Y-38818388D01*
X117003533Y-38580293D01*
X117051152Y-38485055D01*
X117098771Y-38437436D01*
X117194009Y-38389817D01*
X117432104Y-38389817D01*
X117527342Y-38437436D01*
X117574961Y-38485055D01*
X117622580Y-38580293D01*
X117622580Y-38818388D01*
X117574961Y-38913626D01*
X117527342Y-38961245D01*
X129370200Y-46151721D02*
X129322580Y-46246960D01*
X129322580Y-46389817D01*
X129370200Y-46532674D01*
X129465438Y-46627912D01*
X129560676Y-46675531D01*
X129751152Y-46723150D01*
X129894009Y-46723150D01*
X130084485Y-46675531D01*
X130179723Y-46627912D01*
X130274961Y-46532674D01*
X130322580Y-46389817D01*
X130322580Y-46294579D01*
X130274961Y-46151721D01*
X130227342Y-46104102D01*
X129894009Y-46104102D01*
X129894009Y-46294579D01*
X130322580Y-45675531D02*
X129322580Y-45675531D01*
X129322580Y-45294579D01*
X129370200Y-45199341D01*
X129417819Y-45151721D01*
X129513057Y-45104102D01*
X129655914Y-45104102D01*
X129751152Y-45151721D01*
X129798771Y-45199341D01*
X129846390Y-45294579D01*
X129846390Y-45675531D01*
X130322580Y-44675531D02*
X129322580Y-44675531D01*
X129322580Y-44008864D02*
X129322580Y-43818388D01*
X129370200Y-43723150D01*
X129465438Y-43627912D01*
X129655914Y-43580293D01*
X129989247Y-43580293D01*
X130179723Y-43627912D01*
X130274961Y-43723150D01*
X130322580Y-43818388D01*
X130322580Y-44008864D01*
X130274961Y-44104102D01*
X130179723Y-44199341D01*
X129989247Y-44246960D01*
X129655914Y-44246960D01*
X129465438Y-44199341D01*
X129370200Y-44104102D01*
X129322580Y-44008864D01*
X129417819Y-43199341D02*
X129370200Y-43151721D01*
X129322580Y-43056483D01*
X129322580Y-42818388D01*
X129370200Y-42723150D01*
X129417819Y-42675531D01*
X129513057Y-42627912D01*
X129608295Y-42627912D01*
X129751152Y-42675531D01*
X130322580Y-43246960D01*
X130322580Y-42627912D01*
X129322580Y-42008864D02*
X129322580Y-41913626D01*
X129370200Y-41818388D01*
X129417819Y-41770769D01*
X129513057Y-41723150D01*
X129703533Y-41675531D01*
X129941628Y-41675531D01*
X130132104Y-41723150D01*
X130227342Y-41770769D01*
X130274961Y-41818388D01*
X130322580Y-41913626D01*
X130322580Y-42008864D01*
X130274961Y-42104102D01*
X130227342Y-42151721D01*
X130132104Y-42199341D01*
X129941628Y-42246960D01*
X129703533Y-42246960D01*
X129513057Y-42199341D01*
X129417819Y-42151721D01*
X129370200Y-42104102D01*
X129322580Y-42008864D01*
X129274961Y-40532674D02*
X130560676Y-41389817D01*
X130322580Y-40199341D02*
X129322580Y-40199341D01*
X129322580Y-39961245D01*
X129370200Y-39818388D01*
X129465438Y-39723150D01*
X129560676Y-39675531D01*
X129751152Y-39627912D01*
X129894009Y-39627912D01*
X130084485Y-39675531D01*
X130179723Y-39723150D01*
X130274961Y-39818388D01*
X130322580Y-39961245D01*
X130322580Y-40199341D01*
X129941628Y-39199341D02*
X129941628Y-38437436D01*
X130322580Y-38818388D02*
X129560676Y-38818388D01*
X114130200Y-57562436D02*
X114082580Y-57657674D01*
X114082580Y-57800531D01*
X114130200Y-57943388D01*
X114225438Y-58038626D01*
X114320676Y-58086245D01*
X114511152Y-58133864D01*
X114654009Y-58133864D01*
X114844485Y-58086245D01*
X114939723Y-58038626D01*
X115034961Y-57943388D01*
X115082580Y-57800531D01*
X115082580Y-57705293D01*
X115034961Y-57562436D01*
X114987342Y-57514817D01*
X114654009Y-57514817D01*
X114654009Y-57705293D01*
X115082580Y-57086245D02*
X114082580Y-57086245D01*
X114082580Y-56705293D01*
X114130200Y-56610055D01*
X114177819Y-56562436D01*
X114273057Y-56514817D01*
X114415914Y-56514817D01*
X114511152Y-56562436D01*
X114558771Y-56610055D01*
X114606390Y-56705293D01*
X114606390Y-57086245D01*
X115082580Y-56086245D02*
X114082580Y-56086245D01*
X114082580Y-55419579D02*
X114082580Y-55229102D01*
X114130200Y-55133864D01*
X114225438Y-55038626D01*
X114415914Y-54991007D01*
X114749247Y-54991007D01*
X114939723Y-55038626D01*
X115034961Y-55133864D01*
X115082580Y-55229102D01*
X115082580Y-55419579D01*
X115034961Y-55514817D01*
X114939723Y-55610055D01*
X114749247Y-55657674D01*
X114415914Y-55657674D01*
X114225438Y-55610055D01*
X114130200Y-55514817D01*
X114082580Y-55419579D01*
X115082580Y-54038626D02*
X115082580Y-54610055D01*
X115082580Y-54324341D02*
X114082580Y-54324341D01*
X114225438Y-54419579D01*
X114320676Y-54514817D01*
X114368295Y-54610055D01*
X115082580Y-53086245D02*
X115082580Y-53657674D01*
X115082580Y-53371960D02*
X114082580Y-53371960D01*
X114225438Y-53467198D01*
X114320676Y-53562436D01*
X114368295Y-53657674D01*
X124290200Y-57562436D02*
X124242580Y-57657674D01*
X124242580Y-57800531D01*
X124290200Y-57943388D01*
X124385438Y-58038626D01*
X124480676Y-58086245D01*
X124671152Y-58133864D01*
X124814009Y-58133864D01*
X125004485Y-58086245D01*
X125099723Y-58038626D01*
X125194961Y-57943388D01*
X125242580Y-57800531D01*
X125242580Y-57705293D01*
X125194961Y-57562436D01*
X125147342Y-57514817D01*
X124814009Y-57514817D01*
X124814009Y-57705293D01*
X125242580Y-57086245D02*
X124242580Y-57086245D01*
X124242580Y-56705293D01*
X124290200Y-56610055D01*
X124337819Y-56562436D01*
X124433057Y-56514817D01*
X124575914Y-56514817D01*
X124671152Y-56562436D01*
X124718771Y-56610055D01*
X124766390Y-56705293D01*
X124766390Y-57086245D01*
X125242580Y-56086245D02*
X124242580Y-56086245D01*
X124242580Y-55419579D02*
X124242580Y-55229102D01*
X124290200Y-55133864D01*
X124385438Y-55038626D01*
X124575914Y-54991007D01*
X124909247Y-54991007D01*
X125099723Y-55038626D01*
X125194961Y-55133864D01*
X125242580Y-55229102D01*
X125242580Y-55419579D01*
X125194961Y-55514817D01*
X125099723Y-55610055D01*
X124909247Y-55657674D01*
X124575914Y-55657674D01*
X124385438Y-55610055D01*
X124290200Y-55514817D01*
X124242580Y-55419579D01*
X125242580Y-54038626D02*
X125242580Y-54610055D01*
X125242580Y-54324341D02*
X124242580Y-54324341D01*
X124385438Y-54419579D01*
X124480676Y-54514817D01*
X124528295Y-54610055D01*
X124242580Y-53133864D02*
X124242580Y-53610055D01*
X124718771Y-53657674D01*
X124671152Y-53610055D01*
X124623533Y-53514817D01*
X124623533Y-53276721D01*
X124671152Y-53181483D01*
X124718771Y-53133864D01*
X124814009Y-53086245D01*
X125052104Y-53086245D01*
X125147342Y-53133864D01*
X125194961Y-53181483D01*
X125242580Y-53276721D01*
X125242580Y-53514817D01*
X125194961Y-53610055D01*
X125147342Y-53657674D01*
X88730200Y-42866007D02*
X88682580Y-42961245D01*
X88682580Y-43104102D01*
X88730200Y-43246960D01*
X88825438Y-43342198D01*
X88920676Y-43389817D01*
X89111152Y-43437436D01*
X89254009Y-43437436D01*
X89444485Y-43389817D01*
X89539723Y-43342198D01*
X89634961Y-43246960D01*
X89682580Y-43104102D01*
X89682580Y-43008864D01*
X89634961Y-42866007D01*
X89587342Y-42818388D01*
X89254009Y-42818388D01*
X89254009Y-43008864D01*
X89682580Y-42389817D02*
X88682580Y-42389817D01*
X88682580Y-42008864D01*
X88730200Y-41913626D01*
X88777819Y-41866007D01*
X88873057Y-41818388D01*
X89015914Y-41818388D01*
X89111152Y-41866007D01*
X89158771Y-41913626D01*
X89206390Y-42008864D01*
X89206390Y-42389817D01*
X89682580Y-41389817D02*
X88682580Y-41389817D01*
X88682580Y-40723150D02*
X88682580Y-40532674D01*
X88730200Y-40437436D01*
X88825438Y-40342198D01*
X89015914Y-40294579D01*
X89349247Y-40294579D01*
X89539723Y-40342198D01*
X89634961Y-40437436D01*
X89682580Y-40532674D01*
X89682580Y-40723150D01*
X89634961Y-40818388D01*
X89539723Y-40913626D01*
X89349247Y-40961245D01*
X89015914Y-40961245D01*
X88825438Y-40913626D01*
X88730200Y-40818388D01*
X88682580Y-40723150D01*
X89015914Y-39437436D02*
X89682580Y-39437436D01*
X88634961Y-39675531D02*
X89349247Y-39913626D01*
X89349247Y-39294579D01*
X88682580Y-38485055D02*
X88682580Y-38675531D01*
X88730200Y-38770769D01*
X88777819Y-38818388D01*
X88920676Y-38913626D01*
X89111152Y-38961245D01*
X89492104Y-38961245D01*
X89587342Y-38913626D01*
X89634961Y-38866007D01*
X89682580Y-38770769D01*
X89682580Y-38580293D01*
X89634961Y-38485055D01*
X89587342Y-38437436D01*
X89492104Y-38389817D01*
X89254009Y-38389817D01*
X89158771Y-38437436D01*
X89111152Y-38485055D01*
X89063533Y-38580293D01*
X89063533Y-38770769D01*
X89111152Y-38866007D01*
X89158771Y-38913626D01*
X89254009Y-38961245D01*
X126830200Y-57562436D02*
X126782580Y-57657674D01*
X126782580Y-57800531D01*
X126830200Y-57943388D01*
X126925438Y-58038626D01*
X127020676Y-58086245D01*
X127211152Y-58133864D01*
X127354009Y-58133864D01*
X127544485Y-58086245D01*
X127639723Y-58038626D01*
X127734961Y-57943388D01*
X127782580Y-57800531D01*
X127782580Y-57705293D01*
X127734961Y-57562436D01*
X127687342Y-57514817D01*
X127354009Y-57514817D01*
X127354009Y-57705293D01*
X127782580Y-57086245D02*
X126782580Y-57086245D01*
X126782580Y-56705293D01*
X126830200Y-56610055D01*
X126877819Y-56562436D01*
X126973057Y-56514817D01*
X127115914Y-56514817D01*
X127211152Y-56562436D01*
X127258771Y-56610055D01*
X127306390Y-56705293D01*
X127306390Y-57086245D01*
X127782580Y-56086245D02*
X126782580Y-56086245D01*
X126782580Y-55419579D02*
X126782580Y-55229102D01*
X126830200Y-55133864D01*
X126925438Y-55038626D01*
X127115914Y-54991007D01*
X127449247Y-54991007D01*
X127639723Y-55038626D01*
X127734961Y-55133864D01*
X127782580Y-55229102D01*
X127782580Y-55419579D01*
X127734961Y-55514817D01*
X127639723Y-55610055D01*
X127449247Y-55657674D01*
X127115914Y-55657674D01*
X126925438Y-55610055D01*
X126830200Y-55514817D01*
X126782580Y-55419579D01*
X127782580Y-54038626D02*
X127782580Y-54610055D01*
X127782580Y-54324341D02*
X126782580Y-54324341D01*
X126925438Y-54419579D01*
X127020676Y-54514817D01*
X127068295Y-54610055D01*
X126782580Y-53181483D02*
X126782580Y-53371960D01*
X126830200Y-53467198D01*
X126877819Y-53514817D01*
X127020676Y-53610055D01*
X127211152Y-53657674D01*
X127592104Y-53657674D01*
X127687342Y-53610055D01*
X127734961Y-53562436D01*
X127782580Y-53467198D01*
X127782580Y-53276721D01*
X127734961Y-53181483D01*
X127687342Y-53133864D01*
X127592104Y-53086245D01*
X127354009Y-53086245D01*
X127258771Y-53133864D01*
X127211152Y-53181483D01*
X127163533Y-53276721D01*
X127163533Y-53467198D01*
X127211152Y-53562436D01*
X127258771Y-53610055D01*
X127354009Y-53657674D01*
X119210200Y-57562436D02*
X119162580Y-57657674D01*
X119162580Y-57800531D01*
X119210200Y-57943388D01*
X119305438Y-58038626D01*
X119400676Y-58086245D01*
X119591152Y-58133864D01*
X119734009Y-58133864D01*
X119924485Y-58086245D01*
X120019723Y-58038626D01*
X120114961Y-57943388D01*
X120162580Y-57800531D01*
X120162580Y-57705293D01*
X120114961Y-57562436D01*
X120067342Y-57514817D01*
X119734009Y-57514817D01*
X119734009Y-57705293D01*
X120162580Y-57086245D02*
X119162580Y-57086245D01*
X119162580Y-56705293D01*
X119210200Y-56610055D01*
X119257819Y-56562436D01*
X119353057Y-56514817D01*
X119495914Y-56514817D01*
X119591152Y-56562436D01*
X119638771Y-56610055D01*
X119686390Y-56705293D01*
X119686390Y-57086245D01*
X120162580Y-56086245D02*
X119162580Y-56086245D01*
X119162580Y-55419579D02*
X119162580Y-55229102D01*
X119210200Y-55133864D01*
X119305438Y-55038626D01*
X119495914Y-54991007D01*
X119829247Y-54991007D01*
X120019723Y-55038626D01*
X120114961Y-55133864D01*
X120162580Y-55229102D01*
X120162580Y-55419579D01*
X120114961Y-55514817D01*
X120019723Y-55610055D01*
X119829247Y-55657674D01*
X119495914Y-55657674D01*
X119305438Y-55610055D01*
X119210200Y-55514817D01*
X119162580Y-55419579D01*
X120162580Y-54038626D02*
X120162580Y-54610055D01*
X120162580Y-54324341D02*
X119162580Y-54324341D01*
X119305438Y-54419579D01*
X119400676Y-54514817D01*
X119448295Y-54610055D01*
X119162580Y-53705293D02*
X119162580Y-53086245D01*
X119543533Y-53419579D01*
X119543533Y-53276721D01*
X119591152Y-53181483D01*
X119638771Y-53133864D01*
X119734009Y-53086245D01*
X119972104Y-53086245D01*
X120067342Y-53133864D01*
X120114961Y-53181483D01*
X120162580Y-53276721D01*
X120162580Y-53562436D01*
X120114961Y-53657674D01*
X120067342Y-53705293D01*
X134450200Y-42866007D02*
X134402580Y-42961245D01*
X134402580Y-43104102D01*
X134450200Y-43246960D01*
X134545438Y-43342198D01*
X134640676Y-43389817D01*
X134831152Y-43437436D01*
X134974009Y-43437436D01*
X135164485Y-43389817D01*
X135259723Y-43342198D01*
X135354961Y-43246960D01*
X135402580Y-43104102D01*
X135402580Y-43008864D01*
X135354961Y-42866007D01*
X135307342Y-42818388D01*
X134974009Y-42818388D01*
X134974009Y-43008864D01*
X135402580Y-42389817D02*
X134402580Y-42389817D01*
X134402580Y-42008864D01*
X134450200Y-41913626D01*
X134497819Y-41866007D01*
X134593057Y-41818388D01*
X134735914Y-41818388D01*
X134831152Y-41866007D01*
X134878771Y-41913626D01*
X134926390Y-42008864D01*
X134926390Y-42389817D01*
X135402580Y-41389817D02*
X134402580Y-41389817D01*
X134402580Y-40723150D02*
X134402580Y-40532674D01*
X134450200Y-40437436D01*
X134545438Y-40342198D01*
X134735914Y-40294579D01*
X135069247Y-40294579D01*
X135259723Y-40342198D01*
X135354961Y-40437436D01*
X135402580Y-40532674D01*
X135402580Y-40723150D01*
X135354961Y-40818388D01*
X135259723Y-40913626D01*
X135069247Y-40961245D01*
X134735914Y-40961245D01*
X134545438Y-40913626D01*
X134450200Y-40818388D01*
X134402580Y-40723150D01*
X135402580Y-39342198D02*
X135402580Y-39913626D01*
X135402580Y-39627912D02*
X134402580Y-39627912D01*
X134545438Y-39723150D01*
X134640676Y-39818388D01*
X134688295Y-39913626D01*
X134831152Y-38770769D02*
X134783533Y-38866007D01*
X134735914Y-38913626D01*
X134640676Y-38961245D01*
X134593057Y-38961245D01*
X134497819Y-38913626D01*
X134450200Y-38866007D01*
X134402580Y-38770769D01*
X134402580Y-38580293D01*
X134450200Y-38485055D01*
X134497819Y-38437436D01*
X134593057Y-38389817D01*
X134640676Y-38389817D01*
X134735914Y-38437436D01*
X134783533Y-38485055D01*
X134831152Y-38580293D01*
X134831152Y-38770769D01*
X134878771Y-38866007D01*
X134926390Y-38913626D01*
X135021628Y-38961245D01*
X135212104Y-38961245D01*
X135307342Y-38913626D01*
X135354961Y-38866007D01*
X135402580Y-38770769D01*
X135402580Y-38580293D01*
X135354961Y-38485055D01*
X135307342Y-38437436D01*
X135212104Y-38389817D01*
X135021628Y-38389817D01*
X134926390Y-38437436D01*
X134878771Y-38485055D01*
X134831152Y-38580293D01*
X124290200Y-42866007D02*
X124242580Y-42961245D01*
X124242580Y-43104102D01*
X124290200Y-43246960D01*
X124385438Y-43342198D01*
X124480676Y-43389817D01*
X124671152Y-43437436D01*
X124814009Y-43437436D01*
X125004485Y-43389817D01*
X125099723Y-43342198D01*
X125194961Y-43246960D01*
X125242580Y-43104102D01*
X125242580Y-43008864D01*
X125194961Y-42866007D01*
X125147342Y-42818388D01*
X124814009Y-42818388D01*
X124814009Y-43008864D01*
X125242580Y-42389817D02*
X124242580Y-42389817D01*
X124242580Y-42008864D01*
X124290200Y-41913626D01*
X124337819Y-41866007D01*
X124433057Y-41818388D01*
X124575914Y-41818388D01*
X124671152Y-41866007D01*
X124718771Y-41913626D01*
X124766390Y-42008864D01*
X124766390Y-42389817D01*
X125242580Y-41389817D02*
X124242580Y-41389817D01*
X124242580Y-40723150D02*
X124242580Y-40532674D01*
X124290200Y-40437436D01*
X124385438Y-40342198D01*
X124575914Y-40294579D01*
X124909247Y-40294579D01*
X125099723Y-40342198D01*
X125194961Y-40437436D01*
X125242580Y-40532674D01*
X125242580Y-40723150D01*
X125194961Y-40818388D01*
X125099723Y-40913626D01*
X124909247Y-40961245D01*
X124575914Y-40961245D01*
X124385438Y-40913626D01*
X124290200Y-40818388D01*
X124242580Y-40723150D01*
X124337819Y-39913626D02*
X124290200Y-39866007D01*
X124242580Y-39770769D01*
X124242580Y-39532674D01*
X124290200Y-39437436D01*
X124337819Y-39389817D01*
X124433057Y-39342198D01*
X124528295Y-39342198D01*
X124671152Y-39389817D01*
X125242580Y-39961245D01*
X125242580Y-39342198D01*
X124242580Y-38485055D02*
X124242580Y-38675531D01*
X124290200Y-38770769D01*
X124337819Y-38818388D01*
X124480676Y-38913626D01*
X124671152Y-38961245D01*
X125052104Y-38961245D01*
X125147342Y-38913626D01*
X125194961Y-38866007D01*
X125242580Y-38770769D01*
X125242580Y-38580293D01*
X125194961Y-38485055D01*
X125147342Y-38437436D01*
X125052104Y-38389817D01*
X124814009Y-38389817D01*
X124718771Y-38437436D01*
X124671152Y-38485055D01*
X124623533Y-38580293D01*
X124623533Y-38770769D01*
X124671152Y-38866007D01*
X124718771Y-38913626D01*
X124814009Y-38961245D01*
X129370200Y-57562436D02*
X129322580Y-57657674D01*
X129322580Y-57800531D01*
X129370200Y-57943388D01*
X129465438Y-58038626D01*
X129560676Y-58086245D01*
X129751152Y-58133864D01*
X129894009Y-58133864D01*
X130084485Y-58086245D01*
X130179723Y-58038626D01*
X130274961Y-57943388D01*
X130322580Y-57800531D01*
X130322580Y-57705293D01*
X130274961Y-57562436D01*
X130227342Y-57514817D01*
X129894009Y-57514817D01*
X129894009Y-57705293D01*
X130322580Y-57086245D02*
X129322580Y-57086245D01*
X129322580Y-56705293D01*
X129370200Y-56610055D01*
X129417819Y-56562436D01*
X129513057Y-56514817D01*
X129655914Y-56514817D01*
X129751152Y-56562436D01*
X129798771Y-56610055D01*
X129846390Y-56705293D01*
X129846390Y-57086245D01*
X130322580Y-56086245D02*
X129322580Y-56086245D01*
X129322580Y-55419579D02*
X129322580Y-55229102D01*
X129370200Y-55133864D01*
X129465438Y-55038626D01*
X129655914Y-54991007D01*
X129989247Y-54991007D01*
X130179723Y-55038626D01*
X130274961Y-55133864D01*
X130322580Y-55229102D01*
X130322580Y-55419579D01*
X130274961Y-55514817D01*
X130179723Y-55610055D01*
X129989247Y-55657674D01*
X129655914Y-55657674D01*
X129465438Y-55610055D01*
X129370200Y-55514817D01*
X129322580Y-55419579D01*
X130322580Y-54038626D02*
X130322580Y-54610055D01*
X130322580Y-54324341D02*
X129322580Y-54324341D01*
X129465438Y-54419579D01*
X129560676Y-54514817D01*
X129608295Y-54610055D01*
X129322580Y-53705293D02*
X129322580Y-53038626D01*
X130322580Y-53467198D01*
X96350200Y-48627912D02*
X96302580Y-48723150D01*
X96302580Y-48866007D01*
X96350200Y-49008864D01*
X96445438Y-49104102D01*
X96540676Y-49151721D01*
X96731152Y-49199341D01*
X96874009Y-49199341D01*
X97064485Y-49151721D01*
X97159723Y-49104102D01*
X97254961Y-49008864D01*
X97302580Y-48866007D01*
X97302580Y-48770769D01*
X97254961Y-48627912D01*
X97207342Y-48580293D01*
X96874009Y-48580293D01*
X96874009Y-48770769D01*
X97302580Y-48151721D02*
X96302580Y-48151721D01*
X96302580Y-47770769D01*
X96350200Y-47675531D01*
X96397819Y-47627912D01*
X96493057Y-47580293D01*
X96635914Y-47580293D01*
X96731152Y-47627912D01*
X96778771Y-47675531D01*
X96826390Y-47770769D01*
X96826390Y-48151721D01*
X97302580Y-47151721D02*
X96302580Y-47151721D01*
X96302580Y-46485055D02*
X96302580Y-46294579D01*
X96350200Y-46199341D01*
X96445438Y-46104102D01*
X96635914Y-46056483D01*
X96969247Y-46056483D01*
X97159723Y-46104102D01*
X97254961Y-46199341D01*
X97302580Y-46294579D01*
X97302580Y-46485055D01*
X97254961Y-46580293D01*
X97159723Y-46675531D01*
X96969247Y-46723150D01*
X96635914Y-46723150D01*
X96445438Y-46675531D01*
X96350200Y-46580293D01*
X96302580Y-46485055D01*
X96635914Y-45199341D02*
X97302580Y-45199341D01*
X96254961Y-45437436D02*
X96969247Y-45675531D01*
X96969247Y-45056483D01*
X96302580Y-44770769D02*
X96302580Y-44151721D01*
X96683533Y-44485055D01*
X96683533Y-44342198D01*
X96731152Y-44246960D01*
X96778771Y-44199341D01*
X96874009Y-44151721D01*
X97112104Y-44151721D01*
X97207342Y-44199341D01*
X97254961Y-44246960D01*
X97302580Y-44342198D01*
X97302580Y-44627912D01*
X97254961Y-44723150D01*
X97207342Y-44770769D01*
X96254961Y-43008864D02*
X97540676Y-43866007D01*
X96302580Y-42675531D02*
X97112104Y-42675531D01*
X97207342Y-42627912D01*
X97254961Y-42580293D01*
X97302580Y-42485055D01*
X97302580Y-42294579D01*
X97254961Y-42199341D01*
X97207342Y-42151721D01*
X97112104Y-42104102D01*
X96302580Y-42104102D01*
X96302580Y-41437436D02*
X96302580Y-41342198D01*
X96350200Y-41246960D01*
X96397819Y-41199341D01*
X96493057Y-41151721D01*
X96683533Y-41104102D01*
X96921628Y-41104102D01*
X97112104Y-41151721D01*
X97207342Y-41199341D01*
X97254961Y-41246960D01*
X97302580Y-41342198D01*
X97302580Y-41437436D01*
X97254961Y-41532674D01*
X97207342Y-41580293D01*
X97112104Y-41627912D01*
X96921628Y-41675531D01*
X96683533Y-41675531D01*
X96493057Y-41627912D01*
X96397819Y-41580293D01*
X96350200Y-41532674D01*
X96302580Y-41437436D01*
X96302580Y-40818388D02*
X96302580Y-40246960D01*
X97302580Y-40532674D02*
X96302580Y-40532674D01*
X96302580Y-40008864D02*
X97302580Y-39342198D01*
X96302580Y-39342198D02*
X97302580Y-40008864D01*
X97302580Y-38961245D02*
X96302580Y-38961245D01*
X96302580Y-38723150D01*
X96350200Y-38580293D01*
X96445438Y-38485055D01*
X96540676Y-38437436D01*
X96731152Y-38389817D01*
X96874009Y-38389817D01*
X97064485Y-38437436D01*
X97159723Y-38485055D01*
X97254961Y-38580293D01*
X97302580Y-38723150D01*
X97302580Y-38961245D01*
X119210200Y-42866007D02*
X119162580Y-42961245D01*
X119162580Y-43104102D01*
X119210200Y-43246960D01*
X119305438Y-43342198D01*
X119400676Y-43389817D01*
X119591152Y-43437436D01*
X119734009Y-43437436D01*
X119924485Y-43389817D01*
X120019723Y-43342198D01*
X120114961Y-43246960D01*
X120162580Y-43104102D01*
X120162580Y-43008864D01*
X120114961Y-42866007D01*
X120067342Y-42818388D01*
X119734009Y-42818388D01*
X119734009Y-43008864D01*
X120162580Y-42389817D02*
X119162580Y-42389817D01*
X119162580Y-42008864D01*
X119210200Y-41913626D01*
X119257819Y-41866007D01*
X119353057Y-41818388D01*
X119495914Y-41818388D01*
X119591152Y-41866007D01*
X119638771Y-41913626D01*
X119686390Y-42008864D01*
X119686390Y-42389817D01*
X120162580Y-41389817D02*
X119162580Y-41389817D01*
X119162580Y-40723150D02*
X119162580Y-40532674D01*
X119210200Y-40437436D01*
X119305438Y-40342198D01*
X119495914Y-40294579D01*
X119829247Y-40294579D01*
X120019723Y-40342198D01*
X120114961Y-40437436D01*
X120162580Y-40532674D01*
X120162580Y-40723150D01*
X120114961Y-40818388D01*
X120019723Y-40913626D01*
X119829247Y-40961245D01*
X119495914Y-40961245D01*
X119305438Y-40913626D01*
X119210200Y-40818388D01*
X119162580Y-40723150D01*
X119162580Y-39961245D02*
X119162580Y-39342198D01*
X119543533Y-39675531D01*
X119543533Y-39532674D01*
X119591152Y-39437436D01*
X119638771Y-39389817D01*
X119734009Y-39342198D01*
X119972104Y-39342198D01*
X120067342Y-39389817D01*
X120114961Y-39437436D01*
X120162580Y-39532674D01*
X120162580Y-39818388D01*
X120114961Y-39913626D01*
X120067342Y-39961245D01*
X119495914Y-38485055D02*
X120162580Y-38485055D01*
X119114961Y-38723150D02*
X119829247Y-38961245D01*
X119829247Y-38342198D01*
X91270200Y-57562436D02*
X91222580Y-57657674D01*
X91222580Y-57800531D01*
X91270200Y-57943388D01*
X91365438Y-58038626D01*
X91460676Y-58086245D01*
X91651152Y-58133864D01*
X91794009Y-58133864D01*
X91984485Y-58086245D01*
X92079723Y-58038626D01*
X92174961Y-57943388D01*
X92222580Y-57800531D01*
X92222580Y-57705293D01*
X92174961Y-57562436D01*
X92127342Y-57514817D01*
X91794009Y-57514817D01*
X91794009Y-57705293D01*
X92222580Y-57086245D02*
X91222580Y-57086245D01*
X91222580Y-56705293D01*
X91270200Y-56610055D01*
X91317819Y-56562436D01*
X91413057Y-56514817D01*
X91555914Y-56514817D01*
X91651152Y-56562436D01*
X91698771Y-56610055D01*
X91746390Y-56705293D01*
X91746390Y-57086245D01*
X92222580Y-56086245D02*
X91222580Y-56086245D01*
X91222580Y-55419579D02*
X91222580Y-55229102D01*
X91270200Y-55133864D01*
X91365438Y-55038626D01*
X91555914Y-54991007D01*
X91889247Y-54991007D01*
X92079723Y-55038626D01*
X92174961Y-55133864D01*
X92222580Y-55229102D01*
X92222580Y-55419579D01*
X92174961Y-55514817D01*
X92079723Y-55610055D01*
X91889247Y-55657674D01*
X91555914Y-55657674D01*
X91365438Y-55610055D01*
X91270200Y-55514817D01*
X91222580Y-55419579D01*
X91317819Y-54610055D02*
X91270200Y-54562436D01*
X91222580Y-54467198D01*
X91222580Y-54229102D01*
X91270200Y-54133864D01*
X91317819Y-54086245D01*
X91413057Y-54038626D01*
X91508295Y-54038626D01*
X91651152Y-54086245D01*
X92222580Y-54657674D01*
X92222580Y-54038626D01*
X116670200Y-57562436D02*
X116622580Y-57657674D01*
X116622580Y-57800531D01*
X116670200Y-57943388D01*
X116765438Y-58038626D01*
X116860676Y-58086245D01*
X117051152Y-58133864D01*
X117194009Y-58133864D01*
X117384485Y-58086245D01*
X117479723Y-58038626D01*
X117574961Y-57943388D01*
X117622580Y-57800531D01*
X117622580Y-57705293D01*
X117574961Y-57562436D01*
X117527342Y-57514817D01*
X117194009Y-57514817D01*
X117194009Y-57705293D01*
X117622580Y-57086245D02*
X116622580Y-57086245D01*
X116622580Y-56705293D01*
X116670200Y-56610055D01*
X116717819Y-56562436D01*
X116813057Y-56514817D01*
X116955914Y-56514817D01*
X117051152Y-56562436D01*
X117098771Y-56610055D01*
X117146390Y-56705293D01*
X117146390Y-57086245D01*
X117622580Y-56086245D02*
X116622580Y-56086245D01*
X116622580Y-55419579D02*
X116622580Y-55229102D01*
X116670200Y-55133864D01*
X116765438Y-55038626D01*
X116955914Y-54991007D01*
X117289247Y-54991007D01*
X117479723Y-55038626D01*
X117574961Y-55133864D01*
X117622580Y-55229102D01*
X117622580Y-55419579D01*
X117574961Y-55514817D01*
X117479723Y-55610055D01*
X117289247Y-55657674D01*
X116955914Y-55657674D01*
X116765438Y-55610055D01*
X116670200Y-55514817D01*
X116622580Y-55419579D01*
X117622580Y-54038626D02*
X117622580Y-54610055D01*
X117622580Y-54324341D02*
X116622580Y-54324341D01*
X116765438Y-54419579D01*
X116860676Y-54514817D01*
X116908295Y-54610055D01*
X116717819Y-53657674D02*
X116670200Y-53610055D01*
X116622580Y-53514817D01*
X116622580Y-53276721D01*
X116670200Y-53181483D01*
X116717819Y-53133864D01*
X116813057Y-53086245D01*
X116908295Y-53086245D01*
X117051152Y-53133864D01*
X117622580Y-53705293D01*
X117622580Y-53086245D01*
X134450200Y-57562436D02*
X134402580Y-57657674D01*
X134402580Y-57800531D01*
X134450200Y-57943388D01*
X134545438Y-58038626D01*
X134640676Y-58086245D01*
X134831152Y-58133864D01*
X134974009Y-58133864D01*
X135164485Y-58086245D01*
X135259723Y-58038626D01*
X135354961Y-57943388D01*
X135402580Y-57800531D01*
X135402580Y-57705293D01*
X135354961Y-57562436D01*
X135307342Y-57514817D01*
X134974009Y-57514817D01*
X134974009Y-57705293D01*
X135402580Y-57086245D02*
X134402580Y-57086245D01*
X135402580Y-56514817D01*
X134402580Y-56514817D01*
X135402580Y-56038626D02*
X134402580Y-56038626D01*
X134402580Y-55800531D01*
X134450200Y-55657674D01*
X134545438Y-55562436D01*
X134640676Y-55514817D01*
X134831152Y-55467198D01*
X134974009Y-55467198D01*
X135164485Y-55514817D01*
X135259723Y-55562436D01*
X135354961Y-55657674D01*
X135402580Y-55800531D01*
X135402580Y-56038626D01*
X111590200Y-42866007D02*
X111542580Y-42961245D01*
X111542580Y-43104102D01*
X111590200Y-43246960D01*
X111685438Y-43342198D01*
X111780676Y-43389817D01*
X111971152Y-43437436D01*
X112114009Y-43437436D01*
X112304485Y-43389817D01*
X112399723Y-43342198D01*
X112494961Y-43246960D01*
X112542580Y-43104102D01*
X112542580Y-43008864D01*
X112494961Y-42866007D01*
X112447342Y-42818388D01*
X112114009Y-42818388D01*
X112114009Y-43008864D01*
X112542580Y-42389817D02*
X111542580Y-42389817D01*
X111542580Y-42008864D01*
X111590200Y-41913626D01*
X111637819Y-41866007D01*
X111733057Y-41818388D01*
X111875914Y-41818388D01*
X111971152Y-41866007D01*
X112018771Y-41913626D01*
X112066390Y-42008864D01*
X112066390Y-42389817D01*
X112542580Y-41389817D02*
X111542580Y-41389817D01*
X111542580Y-40723150D02*
X111542580Y-40532674D01*
X111590200Y-40437436D01*
X111685438Y-40342198D01*
X111875914Y-40294579D01*
X112209247Y-40294579D01*
X112399723Y-40342198D01*
X112494961Y-40437436D01*
X112542580Y-40532674D01*
X112542580Y-40723150D01*
X112494961Y-40818388D01*
X112399723Y-40913626D01*
X112209247Y-40961245D01*
X111875914Y-40961245D01*
X111685438Y-40913626D01*
X111590200Y-40818388D01*
X111542580Y-40723150D01*
X111542580Y-39961245D02*
X111542580Y-39342198D01*
X111923533Y-39675531D01*
X111923533Y-39532674D01*
X111971152Y-39437436D01*
X112018771Y-39389817D01*
X112114009Y-39342198D01*
X112352104Y-39342198D01*
X112447342Y-39389817D01*
X112494961Y-39437436D01*
X112542580Y-39532674D01*
X112542580Y-39818388D01*
X112494961Y-39913626D01*
X112447342Y-39961245D01*
X111542580Y-39008864D02*
X111542580Y-38342198D01*
X112542580Y-38770769D01*
X126830200Y-42866007D02*
X126782580Y-42961245D01*
X126782580Y-43104102D01*
X126830200Y-43246960D01*
X126925438Y-43342198D01*
X127020676Y-43389817D01*
X127211152Y-43437436D01*
X127354009Y-43437436D01*
X127544485Y-43389817D01*
X127639723Y-43342198D01*
X127734961Y-43246960D01*
X127782580Y-43104102D01*
X127782580Y-43008864D01*
X127734961Y-42866007D01*
X127687342Y-42818388D01*
X127354009Y-42818388D01*
X127354009Y-43008864D01*
X127782580Y-42389817D02*
X126782580Y-42389817D01*
X126782580Y-42008864D01*
X126830200Y-41913626D01*
X126877819Y-41866007D01*
X126973057Y-41818388D01*
X127115914Y-41818388D01*
X127211152Y-41866007D01*
X127258771Y-41913626D01*
X127306390Y-42008864D01*
X127306390Y-42389817D01*
X127782580Y-41389817D02*
X126782580Y-41389817D01*
X126782580Y-40723150D02*
X126782580Y-40532674D01*
X126830200Y-40437436D01*
X126925438Y-40342198D01*
X127115914Y-40294579D01*
X127449247Y-40294579D01*
X127639723Y-40342198D01*
X127734961Y-40437436D01*
X127782580Y-40532674D01*
X127782580Y-40723150D01*
X127734961Y-40818388D01*
X127639723Y-40913626D01*
X127449247Y-40961245D01*
X127115914Y-40961245D01*
X126925438Y-40913626D01*
X126830200Y-40818388D01*
X126782580Y-40723150D01*
X126877819Y-39913626D02*
X126830200Y-39866007D01*
X126782580Y-39770769D01*
X126782580Y-39532674D01*
X126830200Y-39437436D01*
X126877819Y-39389817D01*
X126973057Y-39342198D01*
X127068295Y-39342198D01*
X127211152Y-39389817D01*
X127782580Y-39961245D01*
X127782580Y-39342198D01*
X127782580Y-38389817D02*
X127782580Y-38961245D01*
X127782580Y-38675531D02*
X126782580Y-38675531D01*
X126925438Y-38770769D01*
X127020676Y-38866007D01*
X127068295Y-38961245D01*
X87142580Y-41913626D02*
X86666390Y-42246960D01*
X87142580Y-42485055D02*
X86142580Y-42485055D01*
X86142580Y-42104102D01*
X86190200Y-42008864D01*
X86237819Y-41961245D01*
X86333057Y-41913626D01*
X86475914Y-41913626D01*
X86571152Y-41961245D01*
X86618771Y-42008864D01*
X86666390Y-42104102D01*
X86666390Y-42485055D01*
X86618771Y-41485055D02*
X86618771Y-41151721D01*
X87142580Y-41008864D02*
X87142580Y-41485055D01*
X86142580Y-41485055D01*
X86142580Y-41008864D01*
X87094961Y-40627912D02*
X87142580Y-40485055D01*
X87142580Y-40246960D01*
X87094961Y-40151721D01*
X87047342Y-40104102D01*
X86952104Y-40056483D01*
X86856866Y-40056483D01*
X86761628Y-40104102D01*
X86714009Y-40151721D01*
X86666390Y-40246960D01*
X86618771Y-40437436D01*
X86571152Y-40532674D01*
X86523533Y-40580293D01*
X86428295Y-40627912D01*
X86333057Y-40627912D01*
X86237819Y-40580293D01*
X86190200Y-40532674D01*
X86142580Y-40437436D01*
X86142580Y-40199341D01*
X86190200Y-40056483D01*
X86618771Y-39627912D02*
X86618771Y-39294579D01*
X87142580Y-39151721D02*
X87142580Y-39627912D01*
X86142580Y-39627912D01*
X86142580Y-39151721D01*
X86142580Y-38866007D02*
X86142580Y-38294579D01*
X87142580Y-38580293D02*
X86142580Y-38580293D01*
X111590200Y-57562436D02*
X111542580Y-57657674D01*
X111542580Y-57800531D01*
X111590200Y-57943388D01*
X111685438Y-58038626D01*
X111780676Y-58086245D01*
X111971152Y-58133864D01*
X112114009Y-58133864D01*
X112304485Y-58086245D01*
X112399723Y-58038626D01*
X112494961Y-57943388D01*
X112542580Y-57800531D01*
X112542580Y-57705293D01*
X112494961Y-57562436D01*
X112447342Y-57514817D01*
X112114009Y-57514817D01*
X112114009Y-57705293D01*
X112542580Y-57086245D02*
X111542580Y-57086245D01*
X111542580Y-56705293D01*
X111590200Y-56610055D01*
X111637819Y-56562436D01*
X111733057Y-56514817D01*
X111875914Y-56514817D01*
X111971152Y-56562436D01*
X112018771Y-56610055D01*
X112066390Y-56705293D01*
X112066390Y-57086245D01*
X112542580Y-56086245D02*
X111542580Y-56086245D01*
X111542580Y-55419579D02*
X111542580Y-55229102D01*
X111590200Y-55133864D01*
X111685438Y-55038626D01*
X111875914Y-54991007D01*
X112209247Y-54991007D01*
X112399723Y-55038626D01*
X112494961Y-55133864D01*
X112542580Y-55229102D01*
X112542580Y-55419579D01*
X112494961Y-55514817D01*
X112399723Y-55610055D01*
X112209247Y-55657674D01*
X111875914Y-55657674D01*
X111685438Y-55610055D01*
X111590200Y-55514817D01*
X111542580Y-55419579D01*
X112542580Y-54038626D02*
X112542580Y-54610055D01*
X112542580Y-54324341D02*
X111542580Y-54324341D01*
X111685438Y-54419579D01*
X111780676Y-54514817D01*
X111828295Y-54610055D01*
X111542580Y-53419579D02*
X111542580Y-53324341D01*
X111590200Y-53229102D01*
X111637819Y-53181483D01*
X111733057Y-53133864D01*
X111923533Y-53086245D01*
X112161628Y-53086245D01*
X112352104Y-53133864D01*
X112447342Y-53181483D01*
X112494961Y-53229102D01*
X112542580Y-53324341D01*
X112542580Y-53419579D01*
X112494961Y-53514817D01*
X112447342Y-53562436D01*
X112352104Y-53610055D01*
X112161628Y-53657674D01*
X111923533Y-53657674D01*
X111733057Y-53610055D01*
X111637819Y-53562436D01*
X111590200Y-53514817D01*
X111542580Y-53419579D01*
X101430200Y-57562436D02*
X101382580Y-57657674D01*
X101382580Y-57800531D01*
X101430200Y-57943388D01*
X101525438Y-58038626D01*
X101620676Y-58086245D01*
X101811152Y-58133864D01*
X101954009Y-58133864D01*
X102144485Y-58086245D01*
X102239723Y-58038626D01*
X102334961Y-57943388D01*
X102382580Y-57800531D01*
X102382580Y-57705293D01*
X102334961Y-57562436D01*
X102287342Y-57514817D01*
X101954009Y-57514817D01*
X101954009Y-57705293D01*
X102382580Y-57086245D02*
X101382580Y-57086245D01*
X101382580Y-56705293D01*
X101430200Y-56610055D01*
X101477819Y-56562436D01*
X101573057Y-56514817D01*
X101715914Y-56514817D01*
X101811152Y-56562436D01*
X101858771Y-56610055D01*
X101906390Y-56705293D01*
X101906390Y-57086245D01*
X102382580Y-56086245D02*
X101382580Y-56086245D01*
X101382580Y-55419579D02*
X101382580Y-55229102D01*
X101430200Y-55133864D01*
X101525438Y-55038626D01*
X101715914Y-54991007D01*
X102049247Y-54991007D01*
X102239723Y-55038626D01*
X102334961Y-55133864D01*
X102382580Y-55229102D01*
X102382580Y-55419579D01*
X102334961Y-55514817D01*
X102239723Y-55610055D01*
X102049247Y-55657674D01*
X101715914Y-55657674D01*
X101525438Y-55610055D01*
X101430200Y-55514817D01*
X101382580Y-55419579D01*
X101382580Y-54133864D02*
X101382580Y-54324341D01*
X101430200Y-54419579D01*
X101477819Y-54467198D01*
X101620676Y-54562436D01*
X101811152Y-54610055D01*
X102192104Y-54610055D01*
X102287342Y-54562436D01*
X102334961Y-54514817D01*
X102382580Y-54419579D01*
X102382580Y-54229102D01*
X102334961Y-54133864D01*
X102287342Y-54086245D01*
X102192104Y-54038626D01*
X101954009Y-54038626D01*
X101858771Y-54086245D01*
X101811152Y-54133864D01*
X101763533Y-54229102D01*
X101763533Y-54419579D01*
X101811152Y-54514817D01*
X101858771Y-54562436D01*
X101954009Y-54610055D01*
X98890200Y-57562436D02*
X98842580Y-57657674D01*
X98842580Y-57800531D01*
X98890200Y-57943388D01*
X98985438Y-58038626D01*
X99080676Y-58086245D01*
X99271152Y-58133864D01*
X99414009Y-58133864D01*
X99604485Y-58086245D01*
X99699723Y-58038626D01*
X99794961Y-57943388D01*
X99842580Y-57800531D01*
X99842580Y-57705293D01*
X99794961Y-57562436D01*
X99747342Y-57514817D01*
X99414009Y-57514817D01*
X99414009Y-57705293D01*
X99842580Y-57086245D02*
X98842580Y-57086245D01*
X98842580Y-56705293D01*
X98890200Y-56610055D01*
X98937819Y-56562436D01*
X99033057Y-56514817D01*
X99175914Y-56514817D01*
X99271152Y-56562436D01*
X99318771Y-56610055D01*
X99366390Y-56705293D01*
X99366390Y-57086245D01*
X99842580Y-56086245D02*
X98842580Y-56086245D01*
X98842580Y-55419579D02*
X98842580Y-55229102D01*
X98890200Y-55133864D01*
X98985438Y-55038626D01*
X99175914Y-54991007D01*
X99509247Y-54991007D01*
X99699723Y-55038626D01*
X99794961Y-55133864D01*
X99842580Y-55229102D01*
X99842580Y-55419579D01*
X99794961Y-55514817D01*
X99699723Y-55610055D01*
X99509247Y-55657674D01*
X99175914Y-55657674D01*
X98985438Y-55610055D01*
X98890200Y-55514817D01*
X98842580Y-55419579D01*
X98842580Y-54086245D02*
X98842580Y-54562436D01*
X99318771Y-54610055D01*
X99271152Y-54562436D01*
X99223533Y-54467198D01*
X99223533Y-54229102D01*
X99271152Y-54133864D01*
X99318771Y-54086245D01*
X99414009Y-54038626D01*
X99652104Y-54038626D01*
X99747342Y-54086245D01*
X99794961Y-54133864D01*
X99842580Y-54229102D01*
X99842580Y-54467198D01*
X99794961Y-54562436D01*
X99747342Y-54610055D01*
X106510200Y-47818388D02*
X106462580Y-47913626D01*
X106462580Y-48056483D01*
X106510200Y-48199340D01*
X106605438Y-48294579D01*
X106700676Y-48342198D01*
X106891152Y-48389817D01*
X107034009Y-48389817D01*
X107224485Y-48342198D01*
X107319723Y-48294579D01*
X107414961Y-48199340D01*
X107462580Y-48056483D01*
X107462580Y-47961245D01*
X107414961Y-47818388D01*
X107367342Y-47770769D01*
X107034009Y-47770769D01*
X107034009Y-47961245D01*
X107462580Y-47342198D02*
X106462580Y-47342198D01*
X106462580Y-46961245D01*
X106510200Y-46866007D01*
X106557819Y-46818388D01*
X106653057Y-46770769D01*
X106795914Y-46770769D01*
X106891152Y-46818388D01*
X106938771Y-46866007D01*
X106986390Y-46961245D01*
X106986390Y-47342198D01*
X107462580Y-46342198D02*
X106462580Y-46342198D01*
X106462580Y-45675531D02*
X106462580Y-45485055D01*
X106510200Y-45389817D01*
X106605438Y-45294579D01*
X106795914Y-45246960D01*
X107129247Y-45246960D01*
X107319723Y-45294579D01*
X107414961Y-45389817D01*
X107462580Y-45485055D01*
X107462580Y-45675531D01*
X107414961Y-45770769D01*
X107319723Y-45866007D01*
X107129247Y-45913626D01*
X106795914Y-45913626D01*
X106605438Y-45866007D01*
X106510200Y-45770769D01*
X106462580Y-45675531D01*
X106462580Y-44913626D02*
X106462580Y-44294579D01*
X106843533Y-44627912D01*
X106843533Y-44485055D01*
X106891152Y-44389817D01*
X106938771Y-44342198D01*
X107034009Y-44294579D01*
X107272104Y-44294579D01*
X107367342Y-44342198D01*
X107414961Y-44389817D01*
X107462580Y-44485055D01*
X107462580Y-44770769D01*
X107414961Y-44866007D01*
X107367342Y-44913626D01*
X107462580Y-43818388D02*
X107462580Y-43627912D01*
X107414961Y-43532674D01*
X107367342Y-43485055D01*
X107224485Y-43389817D01*
X107034009Y-43342198D01*
X106653057Y-43342198D01*
X106557819Y-43389817D01*
X106510200Y-43437436D01*
X106462580Y-43532674D01*
X106462580Y-43723150D01*
X106510200Y-43818388D01*
X106557819Y-43866007D01*
X106653057Y-43913626D01*
X106891152Y-43913626D01*
X106986390Y-43866007D01*
X107034009Y-43818388D01*
X107081628Y-43723150D01*
X107081628Y-43532674D01*
X107034009Y-43437436D01*
X106986390Y-43389817D01*
X106891152Y-43342198D01*
X106414961Y-42199341D02*
X107700676Y-43056483D01*
X107462580Y-41866007D02*
X106462580Y-41866007D01*
X107176866Y-41532674D01*
X106462580Y-41199341D01*
X107462580Y-41199341D01*
X106462580Y-40866007D02*
X106462580Y-40294579D01*
X107462580Y-40580293D02*
X106462580Y-40580293D01*
X107367342Y-39389817D02*
X107414961Y-39437436D01*
X107462580Y-39580293D01*
X107462580Y-39675531D01*
X107414961Y-39818388D01*
X107319723Y-39913626D01*
X107224485Y-39961245D01*
X107034009Y-40008864D01*
X106891152Y-40008864D01*
X106700676Y-39961245D01*
X106605438Y-39913626D01*
X106510200Y-39818388D01*
X106462580Y-39675531D01*
X106462580Y-39580293D01*
X106510200Y-39437436D01*
X106557819Y-39389817D01*
X107462580Y-38961245D02*
X106462580Y-38961245D01*
X107462580Y-38389817D02*
X106891152Y-38818388D01*
X106462580Y-38389817D02*
X107034009Y-38961245D01*
X86190200Y-57562436D02*
X86142580Y-57657674D01*
X86142580Y-57800531D01*
X86190200Y-57943388D01*
X86285438Y-58038626D01*
X86380676Y-58086245D01*
X86571152Y-58133864D01*
X86714009Y-58133864D01*
X86904485Y-58086245D01*
X86999723Y-58038626D01*
X87094961Y-57943388D01*
X87142580Y-57800531D01*
X87142580Y-57705293D01*
X87094961Y-57562436D01*
X87047342Y-57514817D01*
X86714009Y-57514817D01*
X86714009Y-57705293D01*
X87142580Y-57086245D02*
X86142580Y-57086245D01*
X86142580Y-56705293D01*
X86190200Y-56610055D01*
X86237819Y-56562436D01*
X86333057Y-56514817D01*
X86475914Y-56514817D01*
X86571152Y-56562436D01*
X86618771Y-56610055D01*
X86666390Y-56705293D01*
X86666390Y-57086245D01*
X87142580Y-56086245D02*
X86142580Y-56086245D01*
X86142580Y-55419579D02*
X86142580Y-55229102D01*
X86190200Y-55133864D01*
X86285438Y-55038626D01*
X86475914Y-54991007D01*
X86809247Y-54991007D01*
X86999723Y-55038626D01*
X87094961Y-55133864D01*
X87142580Y-55229102D01*
X87142580Y-55419579D01*
X87094961Y-55514817D01*
X86999723Y-55610055D01*
X86809247Y-55657674D01*
X86475914Y-55657674D01*
X86285438Y-55610055D01*
X86190200Y-55514817D01*
X86142580Y-55419579D01*
X86142580Y-54371960D02*
X86142580Y-54276721D01*
X86190200Y-54181483D01*
X86237819Y-54133864D01*
X86333057Y-54086245D01*
X86523533Y-54038626D01*
X86761628Y-54038626D01*
X86952104Y-54086245D01*
X87047342Y-54133864D01*
X87094961Y-54181483D01*
X87142580Y-54276721D01*
X87142580Y-54371960D01*
X87094961Y-54467198D01*
X87047342Y-54514817D01*
X86952104Y-54562436D01*
X86761628Y-54610055D01*
X86523533Y-54610055D01*
X86333057Y-54562436D01*
X86237819Y-54514817D01*
X86190200Y-54467198D01*
X86142580Y-54371960D01*
X131910200Y-46151721D02*
X131862580Y-46246960D01*
X131862580Y-46389817D01*
X131910200Y-46532674D01*
X132005438Y-46627912D01*
X132100676Y-46675531D01*
X132291152Y-46723150D01*
X132434009Y-46723150D01*
X132624485Y-46675531D01*
X132719723Y-46627912D01*
X132814961Y-46532674D01*
X132862580Y-46389817D01*
X132862580Y-46294579D01*
X132814961Y-46151721D01*
X132767342Y-46104102D01*
X132434009Y-46104102D01*
X132434009Y-46294579D01*
X132862580Y-45675531D02*
X131862580Y-45675531D01*
X131862580Y-45294579D01*
X131910200Y-45199341D01*
X131957819Y-45151721D01*
X132053057Y-45104102D01*
X132195914Y-45104102D01*
X132291152Y-45151721D01*
X132338771Y-45199341D01*
X132386390Y-45294579D01*
X132386390Y-45675531D01*
X132862580Y-44675531D02*
X131862580Y-44675531D01*
X131862580Y-44008864D02*
X131862580Y-43818388D01*
X131910200Y-43723150D01*
X132005438Y-43627912D01*
X132195914Y-43580293D01*
X132529247Y-43580293D01*
X132719723Y-43627912D01*
X132814961Y-43723150D01*
X132862580Y-43818388D01*
X132862580Y-44008864D01*
X132814961Y-44104102D01*
X132719723Y-44199341D01*
X132529247Y-44246960D01*
X132195914Y-44246960D01*
X132005438Y-44199341D01*
X131910200Y-44104102D01*
X131862580Y-44008864D01*
X132862580Y-42627912D02*
X132862580Y-43199341D01*
X132862580Y-42913626D02*
X131862580Y-42913626D01*
X132005438Y-43008864D01*
X132100676Y-43104102D01*
X132148295Y-43199341D01*
X132862580Y-42151721D02*
X132862580Y-41961245D01*
X132814961Y-41866007D01*
X132767342Y-41818388D01*
X132624485Y-41723150D01*
X132434009Y-41675531D01*
X132053057Y-41675531D01*
X131957819Y-41723150D01*
X131910200Y-41770769D01*
X131862580Y-41866007D01*
X131862580Y-42056483D01*
X131910200Y-42151721D01*
X131957819Y-42199341D01*
X132053057Y-42246960D01*
X132291152Y-42246960D01*
X132386390Y-42199341D01*
X132434009Y-42151721D01*
X132481628Y-42056483D01*
X132481628Y-41866007D01*
X132434009Y-41770769D01*
X132386390Y-41723150D01*
X132291152Y-41675531D01*
X131814961Y-40532674D02*
X133100676Y-41389817D01*
X132862580Y-40199341D02*
X131862580Y-40199341D01*
X131862580Y-39961245D01*
X131910200Y-39818388D01*
X132005438Y-39723150D01*
X132100676Y-39675531D01*
X132291152Y-39627912D01*
X132434009Y-39627912D01*
X132624485Y-39675531D01*
X132719723Y-39723150D01*
X132814961Y-39818388D01*
X132862580Y-39961245D01*
X132862580Y-40199341D01*
X132481628Y-39199341D02*
X132481628Y-38437436D01*
X106510200Y-57562436D02*
X106462580Y-57657674D01*
X106462580Y-57800531D01*
X106510200Y-57943388D01*
X106605438Y-58038626D01*
X106700676Y-58086245D01*
X106891152Y-58133864D01*
X107034009Y-58133864D01*
X107224485Y-58086245D01*
X107319723Y-58038626D01*
X107414961Y-57943388D01*
X107462580Y-57800531D01*
X107462580Y-57705293D01*
X107414961Y-57562436D01*
X107367342Y-57514817D01*
X107034009Y-57514817D01*
X107034009Y-57705293D01*
X107462580Y-57086245D02*
X106462580Y-57086245D01*
X106462580Y-56705293D01*
X106510200Y-56610055D01*
X106557819Y-56562436D01*
X106653057Y-56514817D01*
X106795914Y-56514817D01*
X106891152Y-56562436D01*
X106938771Y-56610055D01*
X106986390Y-56705293D01*
X106986390Y-57086245D01*
X107462580Y-56086245D02*
X106462580Y-56086245D01*
X106462580Y-55419579D02*
X106462580Y-55229102D01*
X106510200Y-55133864D01*
X106605438Y-55038626D01*
X106795914Y-54991007D01*
X107129247Y-54991007D01*
X107319723Y-55038626D01*
X107414961Y-55133864D01*
X107462580Y-55229102D01*
X107462580Y-55419579D01*
X107414961Y-55514817D01*
X107319723Y-55610055D01*
X107129247Y-55657674D01*
X106795914Y-55657674D01*
X106605438Y-55610055D01*
X106510200Y-55514817D01*
X106462580Y-55419579D01*
X106891152Y-54419579D02*
X106843533Y-54514817D01*
X106795914Y-54562436D01*
X106700676Y-54610055D01*
X106653057Y-54610055D01*
X106557819Y-54562436D01*
X106510200Y-54514817D01*
X106462580Y-54419579D01*
X106462580Y-54229102D01*
X106510200Y-54133864D01*
X106557819Y-54086245D01*
X106653057Y-54038626D01*
X106700676Y-54038626D01*
X106795914Y-54086245D01*
X106843533Y-54133864D01*
X106891152Y-54229102D01*
X106891152Y-54419579D01*
X106938771Y-54514817D01*
X106986390Y-54562436D01*
X107081628Y-54610055D01*
X107272104Y-54610055D01*
X107367342Y-54562436D01*
X107414961Y-54514817D01*
X107462580Y-54419579D01*
X107462580Y-54229102D01*
X107414961Y-54133864D01*
X107367342Y-54086245D01*
X107272104Y-54038626D01*
X107081628Y-54038626D01*
X106986390Y-54086245D01*
X106938771Y-54133864D01*
X106891152Y-54229102D01*
X91270200Y-42866007D02*
X91222580Y-42961245D01*
X91222580Y-43104102D01*
X91270200Y-43246960D01*
X91365438Y-43342198D01*
X91460676Y-43389817D01*
X91651152Y-43437436D01*
X91794009Y-43437436D01*
X91984485Y-43389817D01*
X92079723Y-43342198D01*
X92174961Y-43246960D01*
X92222580Y-43104102D01*
X92222580Y-43008864D01*
X92174961Y-42866007D01*
X92127342Y-42818388D01*
X91794009Y-42818388D01*
X91794009Y-43008864D01*
X92222580Y-42389817D02*
X91222580Y-42389817D01*
X91222580Y-42008864D01*
X91270200Y-41913626D01*
X91317819Y-41866007D01*
X91413057Y-41818388D01*
X91555914Y-41818388D01*
X91651152Y-41866007D01*
X91698771Y-41913626D01*
X91746390Y-42008864D01*
X91746390Y-42389817D01*
X92222580Y-41389817D02*
X91222580Y-41389817D01*
X91222580Y-40723150D02*
X91222580Y-40532674D01*
X91270200Y-40437436D01*
X91365438Y-40342198D01*
X91555914Y-40294579D01*
X91889247Y-40294579D01*
X92079723Y-40342198D01*
X92174961Y-40437436D01*
X92222580Y-40532674D01*
X92222580Y-40723150D01*
X92174961Y-40818388D01*
X92079723Y-40913626D01*
X91889247Y-40961245D01*
X91555914Y-40961245D01*
X91365438Y-40913626D01*
X91270200Y-40818388D01*
X91222580Y-40723150D01*
X91555914Y-39437436D02*
X92222580Y-39437436D01*
X91174961Y-39675531D02*
X91889247Y-39913626D01*
X91889247Y-39294579D01*
X91222580Y-38437436D02*
X91222580Y-38913626D01*
X91698771Y-38961245D01*
X91651152Y-38913626D01*
X91603533Y-38818388D01*
X91603533Y-38580293D01*
X91651152Y-38485055D01*
X91698771Y-38437436D01*
X91794009Y-38389817D01*
X92032104Y-38389817D01*
X92127342Y-38437436D01*
X92174961Y-38485055D01*
X92222580Y-38580293D01*
X92222580Y-38818388D01*
X92174961Y-38913626D01*
X92127342Y-38961245D01*
X98890200Y-47913626D02*
X98842580Y-48008864D01*
X98842580Y-48151721D01*
X98890200Y-48294579D01*
X98985438Y-48389817D01*
X99080676Y-48437436D01*
X99271152Y-48485055D01*
X99414009Y-48485055D01*
X99604485Y-48437436D01*
X99699723Y-48389817D01*
X99794961Y-48294579D01*
X99842580Y-48151721D01*
X99842580Y-48056483D01*
X99794961Y-47913626D01*
X99747342Y-47866007D01*
X99414009Y-47866007D01*
X99414009Y-48056483D01*
X99842580Y-47437436D02*
X98842580Y-47437436D01*
X98842580Y-47056483D01*
X98890200Y-46961245D01*
X98937819Y-46913626D01*
X99033057Y-46866007D01*
X99175914Y-46866007D01*
X99271152Y-46913626D01*
X99318771Y-46961245D01*
X99366390Y-47056483D01*
X99366390Y-47437436D01*
X99842580Y-46437436D02*
X98842580Y-46437436D01*
X98842580Y-45770769D02*
X98842580Y-45580293D01*
X98890200Y-45485055D01*
X98985438Y-45389817D01*
X99175914Y-45342198D01*
X99509247Y-45342198D01*
X99699723Y-45389817D01*
X99794961Y-45485055D01*
X99842580Y-45580293D01*
X99842580Y-45770769D01*
X99794961Y-45866007D01*
X99699723Y-45961245D01*
X99509247Y-46008864D01*
X99175914Y-46008864D01*
X98985438Y-45961245D01*
X98890200Y-45866007D01*
X98842580Y-45770769D01*
X99175914Y-44485055D02*
X99842580Y-44485055D01*
X98794961Y-44723150D02*
X99509247Y-44961245D01*
X99509247Y-44342198D01*
X98937819Y-44008864D02*
X98890200Y-43961245D01*
X98842580Y-43866007D01*
X98842580Y-43627912D01*
X98890200Y-43532674D01*
X98937819Y-43485055D01*
X99033057Y-43437436D01*
X99128295Y-43437436D01*
X99271152Y-43485055D01*
X99842580Y-44056483D01*
X99842580Y-43437436D01*
X98794961Y-42294579D02*
X100080676Y-43151721D01*
X99842580Y-41961245D02*
X98842580Y-41961245D01*
X99556866Y-41627912D01*
X98842580Y-41294579D01*
X99842580Y-41294579D01*
X98842580Y-40961245D02*
X98842580Y-40389817D01*
X99842580Y-40675531D02*
X98842580Y-40675531D01*
X99842580Y-40056483D02*
X98842580Y-40056483D01*
X99556866Y-39723150D01*
X98842580Y-39389817D01*
X99842580Y-39389817D01*
X99794961Y-38961245D02*
X99842580Y-38818388D01*
X99842580Y-38580293D01*
X99794961Y-38485055D01*
X99747342Y-38437436D01*
X99652104Y-38389817D01*
X99556866Y-38389817D01*
X99461628Y-38437436D01*
X99414009Y-38485055D01*
X99366390Y-38580293D01*
X99318771Y-38770769D01*
X99271152Y-38866007D01*
X99223533Y-38913626D01*
X99128295Y-38961245D01*
X99033057Y-38961245D01*
X98937819Y-38913626D01*
X98890200Y-38866007D01*
X98842580Y-38770769D01*
X98842580Y-38532674D01*
X98890200Y-38389817D01*
%TO.C,U3*%
X118608095Y-94497380D02*
X118608095Y-95306904D01*
X118655714Y-95402142D01*
X118703333Y-95449761D01*
X118798571Y-95497380D01*
X118989047Y-95497380D01*
X119084285Y-95449761D01*
X119131904Y-95402142D01*
X119179523Y-95306904D01*
X119179523Y-94497380D01*
X119560476Y-94497380D02*
X120179523Y-94497380D01*
X119846190Y-94878333D01*
X119989047Y-94878333D01*
X120084285Y-94925952D01*
X120131904Y-94973571D01*
X120179523Y-95068809D01*
X120179523Y-95306904D01*
X120131904Y-95402142D01*
X120084285Y-95449761D01*
X119989047Y-95497380D01*
X119703333Y-95497380D01*
X119608095Y-95449761D01*
X119560476Y-95402142D01*
%TO.C,R9*%
X131913333Y-94602380D02*
X131580000Y-94126190D01*
X131341904Y-94602380D02*
X131341904Y-93602380D01*
X131722857Y-93602380D01*
X131818095Y-93650000D01*
X131865714Y-93697619D01*
X131913333Y-93792857D01*
X131913333Y-93935714D01*
X131865714Y-94030952D01*
X131818095Y-94078571D01*
X131722857Y-94126190D01*
X131341904Y-94126190D01*
X132389523Y-94602380D02*
X132580000Y-94602380D01*
X132675238Y-94554761D01*
X132722857Y-94507142D01*
X132818095Y-94364285D01*
X132865714Y-94173809D01*
X132865714Y-93792857D01*
X132818095Y-93697619D01*
X132770476Y-93650000D01*
X132675238Y-93602380D01*
X132484761Y-93602380D01*
X132389523Y-93650000D01*
X132341904Y-93697619D01*
X132294285Y-93792857D01*
X132294285Y-94030952D01*
X132341904Y-94126190D01*
X132389523Y-94173809D01*
X132484761Y-94221428D01*
X132675238Y-94221428D01*
X132770476Y-94173809D01*
X132818095Y-94126190D01*
X132865714Y-94030952D01*
%TO.C,Q7*%
X131984761Y-109767619D02*
X131889523Y-109720000D01*
X131794285Y-109624761D01*
X131651428Y-109481904D01*
X131556190Y-109434285D01*
X131460952Y-109434285D01*
X131508571Y-109672380D02*
X131413333Y-109624761D01*
X131318095Y-109529523D01*
X131270476Y-109339047D01*
X131270476Y-109005714D01*
X131318095Y-108815238D01*
X131413333Y-108720000D01*
X131508571Y-108672380D01*
X131699047Y-108672380D01*
X131794285Y-108720000D01*
X131889523Y-108815238D01*
X131937142Y-109005714D01*
X131937142Y-109339047D01*
X131889523Y-109529523D01*
X131794285Y-109624761D01*
X131699047Y-109672380D01*
X131508571Y-109672380D01*
X132270476Y-108672380D02*
X132937142Y-108672380D01*
X132508571Y-109672380D01*
%TO.C,R10*%
X131437142Y-84442380D02*
X131103809Y-83966190D01*
X130865714Y-84442380D02*
X130865714Y-83442380D01*
X131246666Y-83442380D01*
X131341904Y-83490000D01*
X131389523Y-83537619D01*
X131437142Y-83632857D01*
X131437142Y-83775714D01*
X131389523Y-83870952D01*
X131341904Y-83918571D01*
X131246666Y-83966190D01*
X130865714Y-83966190D01*
X132389523Y-84442380D02*
X131818095Y-84442380D01*
X132103809Y-84442380D02*
X132103809Y-83442380D01*
X132008571Y-83585238D01*
X131913333Y-83680476D01*
X131818095Y-83728095D01*
X133008571Y-83442380D02*
X133103809Y-83442380D01*
X133199047Y-83490000D01*
X133246666Y-83537619D01*
X133294285Y-83632857D01*
X133341904Y-83823333D01*
X133341904Y-84061428D01*
X133294285Y-84251904D01*
X133246666Y-84347142D01*
X133199047Y-84394761D01*
X133103809Y-84442380D01*
X133008571Y-84442380D01*
X132913333Y-84394761D01*
X132865714Y-84347142D01*
X132818095Y-84251904D01*
X132770476Y-84061428D01*
X132770476Y-83823333D01*
X132818095Y-83632857D01*
X132865714Y-83537619D01*
X132913333Y-83490000D01*
X133008571Y-83442380D01*
%TO.C,R11*%
X131437142Y-89522380D02*
X131103809Y-89046190D01*
X130865714Y-89522380D02*
X130865714Y-88522380D01*
X131246666Y-88522380D01*
X131341904Y-88570000D01*
X131389523Y-88617619D01*
X131437142Y-88712857D01*
X131437142Y-88855714D01*
X131389523Y-88950952D01*
X131341904Y-88998571D01*
X131246666Y-89046190D01*
X130865714Y-89046190D01*
X132389523Y-89522380D02*
X131818095Y-89522380D01*
X132103809Y-89522380D02*
X132103809Y-88522380D01*
X132008571Y-88665238D01*
X131913333Y-88760476D01*
X131818095Y-88808095D01*
X133341904Y-89522380D02*
X132770476Y-89522380D01*
X133056190Y-89522380D02*
X133056190Y-88522380D01*
X132960952Y-88665238D01*
X132865714Y-88760476D01*
X132770476Y-88808095D01*
%TO.C,J2*%
X126666166Y-117562380D02*
X126666166Y-118276666D01*
X126618547Y-118419523D01*
X126523309Y-118514761D01*
X126380452Y-118562380D01*
X126285214Y-118562380D01*
X127094738Y-117657619D02*
X127142357Y-117610000D01*
X127237595Y-117562380D01*
X127475690Y-117562380D01*
X127570928Y-117610000D01*
X127618547Y-117657619D01*
X127666166Y-117752857D01*
X127666166Y-117848095D01*
X127618547Y-117990952D01*
X127047119Y-118562380D01*
X127666166Y-118562380D01*
D11*
%TO.C,J1*%
X103360000Y-114300000D02*
G75*
G03*
X103360000Y-114300000I-1680000J0D01*
G01*
X83360000Y-114300000D02*
G75*
G03*
X83360000Y-114300000I-1680000J0D01*
G01*
X93360000Y-114300000D02*
G75*
G03*
X93360000Y-114300000I-1680000J0D01*
G01*
X98360000Y-114300000D02*
G75*
G03*
X98360000Y-114300000I-1680000J0D01*
G01*
X88360000Y-114300000D02*
G75*
G03*
X88360000Y-114300000I-1680000J0D01*
G01*
X107364000Y-112765000D02*
G75*
G03*
X106651195Y-112619747I-683999J-1535001D01*
G01*
X105996000Y-115835000D02*
G75*
G03*
X107363042Y-115835427I684001J1534993D01*
G01*
X105144999Y-113616000D02*
G75*
G03*
X105144573Y-114983042I1535001J-684000D01*
G01*
X106680000Y-112620000D02*
G75*
G03*
X105996682Y-112765244I0J-1680000D01*
G01*
X108215000Y-114984000D02*
G75*
G03*
X108215427Y-113616958I-1534993J684001D01*
G01*
X80405000Y-115369000D02*
X80452000Y-115323000D01*
X85610000Y-115575000D02*
X85645000Y-115539000D01*
X85405000Y-115369000D02*
X85452000Y-115323000D01*
X102714000Y-113061000D02*
X102749000Y-113026000D01*
X82680000Y-118600000D02*
X82680000Y-117600000D01*
X102680000Y-117600000D02*
X100680000Y-117600000D01*
X102907000Y-113277000D02*
X102954000Y-113231000D01*
X90610000Y-115575000D02*
X90645000Y-115539000D01*
X92907000Y-113277000D02*
X92954000Y-113231000D01*
X90405000Y-115369000D02*
X90452000Y-115323000D01*
X82680000Y-118600000D02*
X80680000Y-118600000D01*
X92680000Y-118600000D02*
X90680000Y-118600000D01*
X109240000Y-110240000D02*
X79120000Y-110240000D01*
X97680000Y-118600000D02*
X95680000Y-118600000D01*
X109240000Y-118660000D02*
X109240000Y-110240000D01*
X109240000Y-118660000D02*
X79120000Y-118660000D01*
X109240000Y-112300000D02*
X79120000Y-112300000D01*
X80610000Y-115575000D02*
X80645000Y-115539000D01*
X97680000Y-117600000D02*
X95680000Y-117600000D01*
X109480000Y-110000000D02*
X108980000Y-110000000D01*
X95405000Y-115369000D02*
X95452000Y-115323000D01*
X102680000Y-118600000D02*
X100680000Y-118600000D01*
X97680000Y-118600000D02*
X97680000Y-117600000D01*
X92680000Y-118600000D02*
X92680000Y-117600000D01*
X90680000Y-118600000D02*
X90680000Y-117600000D01*
X100405000Y-115369000D02*
X100452000Y-115323000D01*
X100610000Y-115575000D02*
X100645000Y-115539000D01*
X97907000Y-113277000D02*
X97954000Y-113231000D01*
X107680000Y-118600000D02*
X105680000Y-118600000D01*
X95680000Y-118600000D02*
X95680000Y-117600000D01*
X105680000Y-118600000D02*
X105680000Y-117600000D01*
X82714000Y-113061000D02*
X82749000Y-113026000D01*
X107680000Y-118600000D02*
X107680000Y-117600000D01*
X80680000Y-118600000D02*
X80680000Y-117600000D01*
X95610000Y-115575000D02*
X95645000Y-115539000D01*
X92714000Y-113061000D02*
X92749000Y-113026000D01*
X87714000Y-113061000D02*
X87749000Y-113026000D01*
X109240000Y-110800000D02*
X79120000Y-110800000D01*
X87680000Y-118600000D02*
X87680000Y-117600000D01*
X87680000Y-118600000D02*
X85680000Y-118600000D01*
X107680000Y-117600000D02*
X105680000Y-117600000D01*
X97714000Y-113061000D02*
X97749000Y-113026000D01*
X82680000Y-117600000D02*
X80680000Y-117600000D01*
X82907000Y-113277000D02*
X82954000Y-113231000D01*
X85680000Y-118600000D02*
X85680000Y-117600000D01*
X102680000Y-118600000D02*
X102680000Y-117600000D01*
X92680000Y-117600000D02*
X90680000Y-117600000D01*
X100680000Y-118600000D02*
X100680000Y-117600000D01*
X109480000Y-110740000D02*
X109480000Y-110000000D01*
X87680000Y-117600000D02*
X85680000Y-117600000D01*
X109240000Y-116601000D02*
X79120000Y-116601000D01*
X87907000Y-113277000D02*
X87954000Y-113231000D01*
X79120000Y-118660000D02*
X79120000Y-110240000D01*
%TO.C,R8*%
X123730000Y-75200000D02*
X123730000Y-74870000D01*
X130270000Y-77610000D02*
X130270000Y-77280000D01*
X130270000Y-74870000D02*
X130270000Y-75200000D01*
X123730000Y-77610000D02*
X130270000Y-77610000D01*
X123730000Y-77280000D02*
X123730000Y-77610000D01*
X123730000Y-74870000D02*
X130270000Y-74870000D01*
%TO.C,R7*%
X110720000Y-89440000D02*
X110390000Y-89440000D01*
X112800000Y-89440000D02*
X113130000Y-89440000D01*
X113130000Y-95980000D02*
X112800000Y-95980000D01*
X110390000Y-89440000D02*
X110390000Y-95980000D01*
X113130000Y-89440000D02*
X113130000Y-95980000D01*
X110390000Y-95980000D02*
X110720000Y-95980000D01*
%TO.C,J3*%
X81280000Y-86360000D02*
X106680000Y-86360000D01*
X106680000Y-86360000D02*
X106680000Y-104140000D01*
X106680000Y-104140000D02*
X81280000Y-104140000D01*
X81280000Y-104140000D02*
X81280000Y-86360000D01*
%TO.C,U5*%
X123730000Y-72640000D02*
X123730000Y-64020000D01*
X135590000Y-71640000D02*
X135590000Y-72880000D01*
X135350000Y-64020000D02*
X123730000Y-64020000D01*
X135350000Y-72640000D02*
X135350000Y-64020000D01*
X135350000Y-72640000D02*
X123730000Y-72640000D01*
X135590000Y-72880000D02*
X134350000Y-72880000D01*
%TO.C,U2*%
X98520000Y-108300000D02*
X79280000Y-108300000D01*
X81280000Y-108300000D02*
X81280000Y-105060000D01*
X98520000Y-108300000D02*
X98520000Y-107410000D01*
X98520000Y-105060000D02*
X98520000Y-106010000D01*
X79280000Y-108300000D02*
X79280000Y-107710000D01*
X79280000Y-105060000D02*
X79280000Y-105710000D01*
X98520000Y-105060000D02*
X79280000Y-105060000D01*
%TO.C,U4*%
X118400000Y-97745000D02*
X116750000Y-97745000D01*
X116750000Y-97745000D02*
X116750000Y-105485000D01*
X116750000Y-105485000D02*
X122050000Y-105485000D01*
X122050000Y-105485000D02*
X122050000Y-97745000D01*
X122050000Y-97745000D02*
X120400000Y-97745000D01*
X118400000Y-97745000D02*
G75*
G03*
X120400000Y-97745000I1000000J0D01*
G01*
%TO.C,U1*%
X83032600Y-57228041D02*
X77139800Y-57228041D01*
X77139800Y-39244841D02*
X83032600Y-39244841D01*
X136220200Y-61191840D02*
X136220200Y-35331841D01*
X83052920Y-35328161D02*
X83052920Y-61188160D01*
X136220200Y-35331841D02*
X83052920Y-35328161D01*
X77139800Y-57228041D02*
X77139800Y-39244841D01*
X83052920Y-61188160D02*
X136220200Y-61191840D01*
%TO.C,U3*%
X120370000Y-94045000D02*
X122020000Y-94045000D01*
X122020000Y-94045000D02*
X122020000Y-88845000D01*
X116720000Y-94045000D02*
X118370000Y-94045000D01*
X116720000Y-88845000D02*
X116720000Y-94045000D01*
X122020000Y-88845000D02*
X116720000Y-88845000D01*
X120370000Y-94045000D02*
G75*
G03*
X118370000Y-94045000I-1000000J0D01*
G01*
%TO.C,R9*%
X128810000Y-95480000D02*
X128810000Y-95150000D01*
X128810000Y-95150000D02*
X135350000Y-95150000D01*
X135350000Y-97890000D02*
X135350000Y-97560000D01*
X135350000Y-95150000D02*
X135350000Y-95480000D01*
X128810000Y-97560000D02*
X128810000Y-97890000D01*
X128810000Y-97890000D02*
X135350000Y-97890000D01*
%TO.C,Q7*%
X130229000Y-107410000D02*
X130229000Y-105900000D01*
X137200000Y-102769000D02*
X126960000Y-102769000D01*
X137200000Y-105900000D02*
X126960000Y-105900000D01*
X126960000Y-107410000D02*
X126960000Y-102769000D01*
X133930000Y-107410000D02*
X133930000Y-105900000D01*
X137200000Y-107410000D02*
X137200000Y-102769000D01*
X137200000Y-107410000D02*
X126960000Y-107410000D01*
%TO.C,R10*%
X128810000Y-87400000D02*
X128810000Y-87730000D01*
X135350000Y-87730000D02*
X135350000Y-87400000D01*
X135350000Y-84990000D02*
X135350000Y-85320000D01*
X128810000Y-87730000D02*
X135350000Y-87730000D01*
X128810000Y-84990000D02*
X135350000Y-84990000D01*
X128810000Y-85320000D02*
X128810000Y-84990000D01*
%TO.C,R11*%
X128810000Y-90400000D02*
X128810000Y-90070000D01*
X135350000Y-90070000D02*
X135350000Y-90400000D01*
X135350000Y-92810000D02*
X135350000Y-92480000D01*
X128810000Y-92480000D02*
X128810000Y-92810000D01*
X128810000Y-90070000D02*
X135350000Y-90070000D01*
X128810000Y-92810000D02*
X135350000Y-92810000D01*
%TO.C,J2*%
X137060000Y-111080000D02*
X116939000Y-111080000D01*
X125500000Y-117880000D02*
X123500000Y-117880000D01*
X123430000Y-115855000D02*
X123465000Y-115819000D01*
X120500000Y-118880000D02*
X118500000Y-118880000D01*
X128500000Y-118880000D02*
X128500000Y-117880000D01*
X130500000Y-117880000D02*
X128500000Y-117880000D01*
X128225000Y-115649000D02*
X128272000Y-115603000D01*
X125534000Y-113341000D02*
X125569000Y-113306000D01*
X137300000Y-110280000D02*
X136800000Y-110280000D01*
X135500000Y-118880000D02*
X135500000Y-117880000D01*
X116939000Y-118940000D02*
X116939000Y-110520000D01*
X125500000Y-118880000D02*
X125500000Y-117880000D01*
X130727000Y-113557000D02*
X130774000Y-113511000D01*
X125727000Y-113557000D02*
X125774000Y-113511000D01*
X120500000Y-117880000D02*
X118500000Y-117880000D01*
X130534000Y-113341000D02*
X130569000Y-113306000D01*
X120727000Y-113557000D02*
X120774000Y-113511000D01*
X123500000Y-118880000D02*
X123500000Y-117880000D01*
X137060000Y-118940000D02*
X137060000Y-110520000D01*
X137300000Y-111020000D02*
X137300000Y-110280000D01*
X128430000Y-115855000D02*
X128465000Y-115819000D01*
X130500000Y-118880000D02*
X128500000Y-118880000D01*
X120500000Y-118880000D02*
X120500000Y-117880000D01*
X118430000Y-115855000D02*
X118465000Y-115819000D01*
X133500000Y-118880000D02*
X133500000Y-117880000D01*
X137060000Y-116881000D02*
X116939000Y-116881000D01*
X118500000Y-118880000D02*
X118500000Y-117880000D01*
X135500000Y-117880000D02*
X133500000Y-117880000D01*
X125500000Y-118880000D02*
X123500000Y-118880000D01*
X120534000Y-113341000D02*
X120569000Y-113306000D01*
X137060000Y-118940000D02*
X116939000Y-118940000D01*
X123225000Y-115649000D02*
X123272000Y-115603000D01*
X118225000Y-115649000D02*
X118272000Y-115603000D01*
X137060000Y-112580000D02*
X116939000Y-112580000D01*
X137060000Y-110520000D02*
X116939000Y-110520000D01*
X135500000Y-118880000D02*
X133500000Y-118880000D01*
X130500000Y-118880000D02*
X130500000Y-117880000D01*
X135184000Y-113045000D02*
G75*
G03*
X134471195Y-112899747I-683999J-1535001D01*
G01*
X133816000Y-116115000D02*
G75*
G03*
X135183042Y-116115427I684001J1534993D01*
G01*
X134500000Y-112900000D02*
G75*
G03*
X133816682Y-113045244I0J-1680000D01*
G01*
X136035000Y-115264000D02*
G75*
G03*
X136035427Y-113896958I-1534993J684001D01*
G01*
X132964999Y-113896000D02*
G75*
G03*
X132964573Y-115263042I1535001J-684000D01*
G01*
X126180000Y-114580000D02*
G75*
G03*
X126180000Y-114580000I-1680000J0D01*
G01*
X131180000Y-114580000D02*
G75*
G03*
X131180000Y-114580000I-1680000J0D01*
G01*
X121180000Y-114580000D02*
G75*
G03*
X121180000Y-114580000I-1680000J0D01*
G01*
%TD*%
M02*
