%TF.GenerationSoftware,KiCad,Pcbnew,6.0.11+dfsg-1*%
%TF.CreationDate,2023-04-08T11:40:43+02:00*%
%TF.ProjectId,LampeV1,4c616d70-6556-4312-9e6b-696361645f70,rev?*%
%TF.SameCoordinates,Original*%
%TF.FileFunction,Drillmap*%
%TF.FilePolarity,Positive*%
%FSLAX45Y45*%
G04 Gerber Fmt 4.5, Leading zero omitted, Abs format (unit mm)*
G04 Created by KiCad (PCBNEW 6.0.11+dfsg-1) date 2023-04-08 11:40:43*
%MOMM*%
%LPD*%
G01*
G04 APERTURE LIST*
%ADD10C,0.100000*%
%ADD11C,0.200000*%
%ADD12C,0.040000*%
%ADD13C,0.076200*%
%ADD14C,0.080000*%
%ADD15C,0.085000*%
%ADD16C,0.110000*%
%ADD17C,0.120000*%
%ADD18C,0.130000*%
%ADD19C,0.270000*%
G04 APERTURE END LIST*
D10*
X7874000Y-11811000D02*
X7874000Y-3683000D01*
X13843000Y-11938000D02*
X8001000Y-11938000D01*
X8001000Y-3556000D02*
G75*
G03*
X7874000Y-3683000I0J-127000D01*
G01*
X13970000Y-3683000D02*
G75*
G03*
X13843000Y-3556000I-127000J0D01*
G01*
X7874000Y-11811000D02*
G75*
G03*
X8001000Y-11938000I127000J0D01*
G01*
X13843000Y-11938000D02*
G75*
G03*
X13970000Y-11811000I0J127000D01*
G01*
X8001000Y-3556000D02*
X13843000Y-3556000D01*
X13970000Y-3683000D02*
X13970000Y-11811000D01*
D11*
D12*
X8108000Y-6584000D02*
X8148000Y-6624000D01*
X8148000Y-6584000D02*
X8108000Y-6624000D01*
X8616000Y-8616000D02*
X8656000Y-8656000D01*
X8656000Y-8616000D02*
X8616000Y-8656000D01*
X8870000Y-6838000D02*
X8910000Y-6878000D01*
X8910000Y-6838000D02*
X8870000Y-6878000D01*
X9124000Y-10394000D02*
X9164000Y-10434000D01*
X9164000Y-10394000D02*
X9124000Y-10434000D01*
X9886000Y-8616000D02*
X9926000Y-8656000D01*
X9926000Y-8616000D02*
X9886000Y-8656000D01*
X9886000Y-8870000D02*
X9926000Y-8910000D01*
X9926000Y-8870000D02*
X9886000Y-8910000D01*
X11156000Y-9378000D02*
X11196000Y-9418000D01*
X11196000Y-9378000D02*
X11156000Y-9418000D01*
X12172000Y-6838000D02*
X12212000Y-6878000D01*
X12212000Y-6838000D02*
X12172000Y-6878000D01*
D13*
X8801100Y-10160000D02*
G75*
G03*
X8801100Y-10160000I-38100J0D01*
G01*
X9055100Y-10160000D02*
G75*
G03*
X9055100Y-10160000I-38100J0D01*
G01*
X9309100Y-10160000D02*
G75*
G03*
X9309100Y-10160000I-38100J0D01*
G01*
X9563100Y-10160000D02*
G75*
G03*
X9563100Y-10160000I-38100J0D01*
G01*
X9817100Y-10160000D02*
G75*
G03*
X9817100Y-10160000I-38100J0D01*
G01*
X10071100Y-10160000D02*
G75*
G03*
X10071100Y-10160000I-38100J0D01*
G01*
D14*
X8415020Y-3642816D02*
X8415020Y-3722816D01*
X8375020Y-3682816D02*
X8455020Y-3682816D01*
X8415292Y-5928816D02*
X8415292Y-6008816D01*
X8375292Y-5968816D02*
X8455292Y-5968816D01*
X8669020Y-3642816D02*
X8669020Y-3722816D01*
X8629020Y-3682816D02*
X8709020Y-3682816D01*
X8669292Y-5928816D02*
X8669292Y-6008816D01*
X8629292Y-5968816D02*
X8709292Y-5968816D01*
X8923020Y-3642816D02*
X8923020Y-3722816D01*
X8883020Y-3682816D02*
X8963020Y-3682816D01*
X8923292Y-5928816D02*
X8923292Y-6008816D01*
X8883292Y-5968816D02*
X8963292Y-5968816D01*
X9177020Y-3642816D02*
X9177020Y-3722816D01*
X9137020Y-3682816D02*
X9217020Y-3682816D01*
X9177292Y-5928816D02*
X9177292Y-6008816D01*
X9137292Y-5968816D02*
X9217292Y-5968816D01*
X9431020Y-3642816D02*
X9431020Y-3722816D01*
X9391020Y-3682816D02*
X9471020Y-3682816D01*
X9431292Y-5928816D02*
X9431292Y-6008816D01*
X9391292Y-5968816D02*
X9471292Y-5968816D01*
X9685020Y-3642816D02*
X9685020Y-3722816D01*
X9645020Y-3682816D02*
X9725020Y-3682816D01*
X9685292Y-5928816D02*
X9685292Y-6008816D01*
X9645292Y-5968816D02*
X9725292Y-5968816D01*
X9939020Y-3642816D02*
X9939020Y-3722816D01*
X9899020Y-3682816D02*
X9979020Y-3682816D01*
X9939292Y-5928816D02*
X9939292Y-6008816D01*
X9899292Y-5968816D02*
X9979292Y-5968816D01*
X10193020Y-3642816D02*
X10193020Y-3722816D01*
X10153020Y-3682816D02*
X10233020Y-3682816D01*
X10193292Y-5928816D02*
X10193292Y-6008816D01*
X10153292Y-5968816D02*
X10233292Y-5968816D01*
X10447020Y-3642816D02*
X10447020Y-3722816D01*
X10407020Y-3682816D02*
X10487020Y-3682816D01*
X10447292Y-5928816D02*
X10447292Y-6008816D01*
X10407292Y-5968816D02*
X10487292Y-5968816D01*
X10701020Y-3642816D02*
X10701020Y-3722816D01*
X10661020Y-3682816D02*
X10741020Y-3682816D01*
X10701292Y-5928816D02*
X10701292Y-6008816D01*
X10661292Y-5968816D02*
X10741292Y-5968816D01*
X10955020Y-3642816D02*
X10955020Y-3722816D01*
X10915020Y-3682816D02*
X10995020Y-3682816D01*
X10955292Y-5928816D02*
X10955292Y-6008816D01*
X10915292Y-5968816D02*
X10995292Y-5968816D01*
X11176000Y-8850000D02*
X11176000Y-8930000D01*
X11136000Y-8890000D02*
X11216000Y-8890000D01*
X11176000Y-9612000D02*
X11176000Y-9692000D01*
X11136000Y-9652000D02*
X11216000Y-9652000D01*
X11209020Y-3642816D02*
X11209020Y-3722816D01*
X11169020Y-3682816D02*
X11249020Y-3682816D01*
X11209292Y-5928816D02*
X11209292Y-6008816D01*
X11169292Y-5968816D02*
X11249292Y-5968816D01*
X11463020Y-3642816D02*
X11463020Y-3722816D01*
X11423020Y-3682816D02*
X11503020Y-3682816D01*
X11463292Y-5928816D02*
X11463292Y-6008816D01*
X11423292Y-5968816D02*
X11503292Y-5968816D01*
X11556000Y-8977500D02*
X11556000Y-9057500D01*
X11516000Y-9017500D02*
X11596000Y-9017500D01*
X11556000Y-9231500D02*
X11556000Y-9311500D01*
X11516000Y-9271500D02*
X11596000Y-9271500D01*
X11559000Y-9867500D02*
X11559000Y-9947500D01*
X11519000Y-9907500D02*
X11599000Y-9907500D01*
X11559000Y-10121500D02*
X11559000Y-10201500D01*
X11519000Y-10161500D02*
X11599000Y-10161500D01*
X11559000Y-10375500D02*
X11559000Y-10455500D01*
X11519000Y-10415500D02*
X11599000Y-10415500D01*
X11717020Y-3642816D02*
X11717020Y-3722816D01*
X11677020Y-3682816D02*
X11757020Y-3682816D01*
X11717292Y-5928816D02*
X11717292Y-6008816D01*
X11677292Y-5968816D02*
X11757292Y-5968816D01*
X11971020Y-3642816D02*
X11971020Y-3722816D01*
X11931020Y-3682816D02*
X12011020Y-3682816D01*
X11971292Y-5928816D02*
X11971292Y-6008816D01*
X11931292Y-5968816D02*
X12011292Y-5968816D01*
X12225020Y-3642816D02*
X12225020Y-3722816D01*
X12185020Y-3682816D02*
X12265020Y-3682816D01*
X12225292Y-5928816D02*
X12225292Y-6008816D01*
X12185292Y-5968816D02*
X12265292Y-5968816D01*
X12318000Y-8977500D02*
X12318000Y-9057500D01*
X12278000Y-9017500D02*
X12358000Y-9017500D01*
X12318000Y-9231500D02*
X12318000Y-9311500D01*
X12278000Y-9271500D02*
X12358000Y-9271500D01*
X12319000Y-7584000D02*
X12319000Y-7664000D01*
X12279000Y-7624000D02*
X12359000Y-7624000D01*
X12321000Y-9867500D02*
X12321000Y-9947500D01*
X12281000Y-9907500D02*
X12361000Y-9907500D01*
X12321000Y-10121500D02*
X12321000Y-10201500D01*
X12281000Y-10161500D02*
X12361000Y-10161500D01*
X12321000Y-10375500D02*
X12321000Y-10455500D01*
X12281000Y-10415500D02*
X12361000Y-10415500D01*
X12479020Y-3642816D02*
X12479020Y-3722816D01*
X12439020Y-3682816D02*
X12519020Y-3682816D01*
X12479292Y-5928816D02*
X12479292Y-6008816D01*
X12439292Y-5968816D02*
X12519292Y-5968816D01*
X12733020Y-3642816D02*
X12733020Y-3722816D01*
X12693020Y-3682816D02*
X12773020Y-3682816D01*
X12733292Y-5928816D02*
X12733292Y-6008816D01*
X12693292Y-5968816D02*
X12773292Y-5968816D01*
X12827000Y-8596000D02*
X12827000Y-8676000D01*
X12787000Y-8636000D02*
X12867000Y-8636000D01*
X12827000Y-9104000D02*
X12827000Y-9184000D01*
X12787000Y-9144000D02*
X12867000Y-9144000D01*
X12827000Y-9612000D02*
X12827000Y-9692000D01*
X12787000Y-9652000D02*
X12867000Y-9652000D01*
X12987020Y-3642816D02*
X12987020Y-3722816D01*
X12947020Y-3682816D02*
X13027020Y-3682816D01*
X12987292Y-5928816D02*
X12987292Y-6008816D01*
X12947292Y-5968816D02*
X13027292Y-5968816D01*
X13081000Y-7584000D02*
X13081000Y-7664000D01*
X13041000Y-7624000D02*
X13121000Y-7624000D01*
X13241020Y-3642816D02*
X13241020Y-3722816D01*
X13201020Y-3682816D02*
X13281020Y-3682816D01*
X13241020Y-5929184D02*
X13241020Y-6009184D01*
X13201020Y-5969184D02*
X13281020Y-5969184D01*
X13495020Y-3643184D02*
X13495020Y-3723184D01*
X13455020Y-3683184D02*
X13535020Y-3683184D01*
X13495020Y-5929184D02*
X13495020Y-6009184D01*
X13455020Y-5969184D02*
X13535020Y-5969184D01*
X13589000Y-8596000D02*
X13589000Y-8676000D01*
X13549000Y-8636000D02*
X13629000Y-8636000D01*
X13589000Y-9104000D02*
X13589000Y-9184000D01*
X13549000Y-9144000D02*
X13629000Y-9144000D01*
X13589000Y-9612000D02*
X13589000Y-9692000D01*
X13549000Y-9652000D02*
X13629000Y-9652000D01*
D15*
X8031052Y-10701052D02*
X8031052Y-10640948D01*
X7970948Y-10640948D01*
X7970948Y-10701052D01*
X8031052Y-10701052D01*
X8285052Y-10701052D02*
X8285052Y-10640948D01*
X8224948Y-10640948D01*
X8224948Y-10701052D01*
X8285052Y-10701052D01*
X8539052Y-10701052D02*
X8539052Y-10640948D01*
X8478948Y-10640948D01*
X8478948Y-10701052D01*
X8539052Y-10701052D01*
X8793052Y-10701052D02*
X8793052Y-10640948D01*
X8732948Y-10640948D01*
X8732948Y-10701052D01*
X8793052Y-10701052D01*
X9047052Y-10701052D02*
X9047052Y-10640948D01*
X8986948Y-10640948D01*
X8986948Y-10701052D01*
X9047052Y-10701052D01*
X9301052Y-10701052D02*
X9301052Y-10640948D01*
X9240948Y-10640948D01*
X9240948Y-10701052D01*
X9301052Y-10701052D01*
X9555052Y-10701052D02*
X9555052Y-10640948D01*
X9494948Y-10640948D01*
X9494948Y-10701052D01*
X9555052Y-10701052D01*
X9809052Y-10701052D02*
X9809052Y-10640948D01*
X9748948Y-10640948D01*
X9748948Y-10701052D01*
X9809052Y-10701052D01*
D10*
X8304750Y-6414750D02*
X8354750Y-6364750D01*
X8304750Y-6314750D01*
X8254750Y-6364750D01*
X8304750Y-6414750D01*
X8558750Y-6414750D02*
X8608750Y-6364750D01*
X8558750Y-6314750D01*
X8508750Y-6364750D01*
X8558750Y-6414750D01*
X8812750Y-6414750D02*
X8862750Y-6364750D01*
X8812750Y-6314750D01*
X8762750Y-6364750D01*
X8812750Y-6414750D01*
X9066750Y-6413750D02*
X9116750Y-6363750D01*
X9066750Y-6313750D01*
X9016750Y-6363750D01*
X9066750Y-6413750D01*
X9320750Y-6414750D02*
X9370750Y-6364750D01*
X9320750Y-6314750D01*
X9270750Y-6364750D01*
X9320750Y-6414750D01*
X9574750Y-6414750D02*
X9624750Y-6364750D01*
X9574750Y-6314750D01*
X9524750Y-6364750D01*
X9574750Y-6414750D01*
X9828750Y-6414750D02*
X9878750Y-6364750D01*
X9828750Y-6314750D01*
X9778750Y-6364750D01*
X9828750Y-6414750D01*
D16*
X12899000Y-10359000D02*
X13009000Y-10469000D01*
X13009000Y-10359000D02*
X12899000Y-10469000D01*
X13009000Y-10414000D02*
G75*
G03*
X13009000Y-10414000I-55000J0D01*
G01*
X13153000Y-10359000D02*
X13263000Y-10469000D01*
X13263000Y-10359000D02*
X13153000Y-10469000D01*
X13263000Y-10414000D02*
G75*
G03*
X13263000Y-10414000I-55000J0D01*
G01*
X13407000Y-10359000D02*
X13517000Y-10469000D01*
X13517000Y-10359000D02*
X13407000Y-10469000D01*
X13517000Y-10414000D02*
G75*
G03*
X13517000Y-10414000I-55000J0D01*
G01*
D17*
X12640000Y-6998000D02*
X12760000Y-7118000D01*
X12760000Y-6998000D02*
X12640000Y-7118000D01*
X12700000Y-6998000D02*
X12700000Y-7118000D01*
X12640000Y-7058000D02*
X12760000Y-7058000D01*
X12894000Y-6998000D02*
X13014000Y-7118000D01*
X13014000Y-6998000D02*
X12894000Y-7118000D01*
X12954000Y-6998000D02*
X12954000Y-7118000D01*
X12894000Y-7058000D02*
X13014000Y-7058000D01*
X13148000Y-6998000D02*
X13268000Y-7118000D01*
X13268000Y-6998000D02*
X13148000Y-7118000D01*
X13208000Y-6998000D02*
X13208000Y-7118000D01*
X13148000Y-7058000D02*
X13268000Y-7058000D01*
D18*
X8103000Y-11365000D02*
X8233000Y-11495000D01*
X8233000Y-11365000D02*
X8103000Y-11495000D01*
X8213962Y-11475962D02*
X8213962Y-11384038D01*
X8122038Y-11384038D01*
X8122038Y-11475962D01*
X8213962Y-11475962D01*
X8603000Y-11365000D02*
X8733000Y-11495000D01*
X8733000Y-11365000D02*
X8603000Y-11495000D01*
X8713962Y-11475962D02*
X8713962Y-11384038D01*
X8622038Y-11384038D01*
X8622038Y-11475962D01*
X8713962Y-11475962D01*
X9103000Y-11365000D02*
X9233000Y-11495000D01*
X9233000Y-11365000D02*
X9103000Y-11495000D01*
X9213962Y-11475962D02*
X9213962Y-11384038D01*
X9122038Y-11384038D01*
X9122038Y-11475962D01*
X9213962Y-11475962D01*
X9603000Y-11365000D02*
X9733000Y-11495000D01*
X9733000Y-11365000D02*
X9603000Y-11495000D01*
X9713962Y-11475962D02*
X9713962Y-11384038D01*
X9622038Y-11384038D01*
X9622038Y-11475962D01*
X9713962Y-11475962D01*
X10103000Y-11365000D02*
X10233000Y-11495000D01*
X10233000Y-11365000D02*
X10103000Y-11495000D01*
X10213962Y-11475962D02*
X10213962Y-11384038D01*
X10122038Y-11384038D01*
X10122038Y-11475962D01*
X10213962Y-11475962D01*
X10603000Y-11365000D02*
X10733000Y-11495000D01*
X10733000Y-11365000D02*
X10603000Y-11495000D01*
X10713962Y-11475962D02*
X10713962Y-11384038D01*
X10622038Y-11384038D01*
X10622038Y-11475962D01*
X10713962Y-11475962D01*
X11885000Y-11393000D02*
X12015000Y-11523000D01*
X12015000Y-11393000D02*
X11885000Y-11523000D01*
X11995962Y-11503962D02*
X11995962Y-11412038D01*
X11904038Y-11412038D01*
X11904038Y-11503962D01*
X11995962Y-11503962D01*
X12385000Y-11393000D02*
X12515000Y-11523000D01*
X12515000Y-11393000D02*
X12385000Y-11523000D01*
X12495962Y-11503962D02*
X12495962Y-11412038D01*
X12404038Y-11412038D01*
X12404038Y-11503962D01*
X12495962Y-11503962D01*
X12885000Y-11393000D02*
X13015000Y-11523000D01*
X13015000Y-11393000D02*
X12885000Y-11523000D01*
X12995962Y-11503962D02*
X12995962Y-11412038D01*
X12904038Y-11412038D01*
X12904038Y-11503962D01*
X12995962Y-11503962D01*
X13385000Y-11393000D02*
X13515000Y-11523000D01*
X13515000Y-11393000D02*
X13385000Y-11523000D01*
X13495962Y-11503962D02*
X13495962Y-11412038D01*
X13404038Y-11412038D01*
X13404038Y-11503962D01*
X13495962Y-11503962D01*
D19*
X7993000Y-9898000D02*
X8263000Y-10168000D01*
X8263000Y-9898000D02*
X7993000Y-10168000D01*
X8128000Y-10168000D02*
X8263000Y-10033000D01*
X8128000Y-9898000D01*
X7993000Y-10033000D01*
X8128000Y-10168000D01*
X8247000Y-4564000D02*
X8517000Y-4834000D01*
X8517000Y-4564000D02*
X8247000Y-4834000D01*
X8382000Y-4834000D02*
X8517000Y-4699000D01*
X8382000Y-4564000D01*
X8247000Y-4699000D01*
X8382000Y-4834000D01*
X10914000Y-10279000D02*
X11184000Y-10549000D01*
X11184000Y-10279000D02*
X10914000Y-10549000D01*
X11049000Y-10549000D02*
X11184000Y-10414000D01*
X11049000Y-10279000D01*
X10914000Y-10414000D01*
X11049000Y-10549000D01*
X13454000Y-4818000D02*
X13724000Y-5088000D01*
X13724000Y-4818000D02*
X13454000Y-5088000D01*
X13589000Y-5088000D02*
X13724000Y-4953000D01*
X13589000Y-4818000D01*
X13454000Y-4953000D01*
X13589000Y-5088000D01*
D11*
X8126619Y-12253476D02*
X8126619Y-12053476D01*
X8174238Y-12053476D01*
X8202809Y-12063000D01*
X8221857Y-12082048D01*
X8231381Y-12101095D01*
X8240905Y-12139190D01*
X8240905Y-12167762D01*
X8231381Y-12205857D01*
X8221857Y-12224905D01*
X8202809Y-12243952D01*
X8174238Y-12253476D01*
X8126619Y-12253476D01*
X8326619Y-12253476D02*
X8326619Y-12120143D01*
X8326619Y-12158238D02*
X8336143Y-12139190D01*
X8345667Y-12129667D01*
X8364714Y-12120143D01*
X8383762Y-12120143D01*
X8450429Y-12253476D02*
X8450429Y-12120143D01*
X8450429Y-12053476D02*
X8440905Y-12063000D01*
X8450429Y-12072524D01*
X8459952Y-12063000D01*
X8450429Y-12053476D01*
X8450429Y-12072524D01*
X8574238Y-12253476D02*
X8555190Y-12243952D01*
X8545667Y-12224905D01*
X8545667Y-12053476D01*
X8679000Y-12253476D02*
X8659952Y-12243952D01*
X8650429Y-12224905D01*
X8650429Y-12053476D01*
X8907571Y-12253476D02*
X8907571Y-12053476D01*
X8974238Y-12196333D01*
X9040905Y-12053476D01*
X9040905Y-12253476D01*
X9221857Y-12253476D02*
X9221857Y-12148714D01*
X9212333Y-12129667D01*
X9193286Y-12120143D01*
X9155190Y-12120143D01*
X9136143Y-12129667D01*
X9221857Y-12243952D02*
X9202810Y-12253476D01*
X9155190Y-12253476D01*
X9136143Y-12243952D01*
X9126619Y-12224905D01*
X9126619Y-12205857D01*
X9136143Y-12186809D01*
X9155190Y-12177286D01*
X9202810Y-12177286D01*
X9221857Y-12167762D01*
X9317095Y-12120143D02*
X9317095Y-12320143D01*
X9317095Y-12129667D02*
X9336143Y-12120143D01*
X9374238Y-12120143D01*
X9393286Y-12129667D01*
X9402810Y-12139190D01*
X9412333Y-12158238D01*
X9412333Y-12215381D01*
X9402810Y-12234428D01*
X9393286Y-12243952D01*
X9374238Y-12253476D01*
X9336143Y-12253476D01*
X9317095Y-12243952D01*
X9498048Y-12234428D02*
X9507571Y-12243952D01*
X9498048Y-12253476D01*
X9488524Y-12243952D01*
X9498048Y-12234428D01*
X9498048Y-12253476D01*
X9498048Y-12129667D02*
X9507571Y-12139190D01*
X9498048Y-12148714D01*
X9488524Y-12139190D01*
X9498048Y-12129667D01*
X9498048Y-12148714D01*
D12*
X7829000Y-12563000D02*
X7869000Y-12603000D01*
X7869000Y-12563000D02*
X7829000Y-12603000D01*
D11*
X8164714Y-12473476D02*
X8183762Y-12473476D01*
X8202809Y-12483000D01*
X8212333Y-12492524D01*
X8221857Y-12511571D01*
X8231381Y-12549667D01*
X8231381Y-12597286D01*
X8221857Y-12635381D01*
X8212333Y-12654428D01*
X8202809Y-12663952D01*
X8183762Y-12673476D01*
X8164714Y-12673476D01*
X8145667Y-12663952D01*
X8136143Y-12654428D01*
X8126619Y-12635381D01*
X8117095Y-12597286D01*
X8117095Y-12549667D01*
X8126619Y-12511571D01*
X8136143Y-12492524D01*
X8145667Y-12483000D01*
X8164714Y-12473476D01*
X8317095Y-12654428D02*
X8326619Y-12663952D01*
X8317095Y-12673476D01*
X8307571Y-12663952D01*
X8317095Y-12654428D01*
X8317095Y-12673476D01*
X8498048Y-12540143D02*
X8498048Y-12673476D01*
X8450429Y-12463952D02*
X8402810Y-12606809D01*
X8526619Y-12606809D01*
X8640905Y-12473476D02*
X8659952Y-12473476D01*
X8679000Y-12483000D01*
X8688524Y-12492524D01*
X8698048Y-12511571D01*
X8707571Y-12549667D01*
X8707571Y-12597286D01*
X8698048Y-12635381D01*
X8688524Y-12654428D01*
X8679000Y-12663952D01*
X8659952Y-12673476D01*
X8640905Y-12673476D01*
X8621857Y-12663952D01*
X8612333Y-12654428D01*
X8602810Y-12635381D01*
X8593286Y-12597286D01*
X8593286Y-12549667D01*
X8602810Y-12511571D01*
X8612333Y-12492524D01*
X8621857Y-12483000D01*
X8640905Y-12473476D01*
X8831381Y-12473476D02*
X8850429Y-12473476D01*
X8869476Y-12483000D01*
X8879000Y-12492524D01*
X8888524Y-12511571D01*
X8898048Y-12549667D01*
X8898048Y-12597286D01*
X8888524Y-12635381D01*
X8879000Y-12654428D01*
X8869476Y-12663952D01*
X8850429Y-12673476D01*
X8831381Y-12673476D01*
X8812333Y-12663952D01*
X8802810Y-12654428D01*
X8793286Y-12635381D01*
X8783762Y-12597286D01*
X8783762Y-12549667D01*
X8793286Y-12511571D01*
X8802810Y-12492524D01*
X8812333Y-12483000D01*
X8831381Y-12473476D01*
X8983762Y-12673476D02*
X8983762Y-12540143D01*
X8983762Y-12559190D02*
X8993286Y-12549667D01*
X9012333Y-12540143D01*
X9040905Y-12540143D01*
X9059952Y-12549667D01*
X9069476Y-12568714D01*
X9069476Y-12673476D01*
X9069476Y-12568714D02*
X9079000Y-12549667D01*
X9098048Y-12540143D01*
X9126619Y-12540143D01*
X9145667Y-12549667D01*
X9155190Y-12568714D01*
X9155190Y-12673476D01*
X9250429Y-12673476D02*
X9250429Y-12540143D01*
X9250429Y-12559190D02*
X9259952Y-12549667D01*
X9279000Y-12540143D01*
X9307571Y-12540143D01*
X9326619Y-12549667D01*
X9336143Y-12568714D01*
X9336143Y-12673476D01*
X9336143Y-12568714D02*
X9345667Y-12549667D01*
X9364714Y-12540143D01*
X9393286Y-12540143D01*
X9412333Y-12549667D01*
X9421857Y-12568714D01*
X9421857Y-12673476D01*
X9812333Y-12463952D02*
X9640905Y-12721095D01*
X10069476Y-12473476D02*
X10088524Y-12473476D01*
X10107571Y-12483000D01*
X10117095Y-12492524D01*
X10126619Y-12511571D01*
X10136143Y-12549667D01*
X10136143Y-12597286D01*
X10126619Y-12635381D01*
X10117095Y-12654428D01*
X10107571Y-12663952D01*
X10088524Y-12673476D01*
X10069476Y-12673476D01*
X10050429Y-12663952D01*
X10040905Y-12654428D01*
X10031381Y-12635381D01*
X10021857Y-12597286D01*
X10021857Y-12549667D01*
X10031381Y-12511571D01*
X10040905Y-12492524D01*
X10050429Y-12483000D01*
X10069476Y-12473476D01*
X10221857Y-12654428D02*
X10231381Y-12663952D01*
X10221857Y-12673476D01*
X10212333Y-12663952D01*
X10221857Y-12654428D01*
X10221857Y-12673476D01*
X10355190Y-12473476D02*
X10374238Y-12473476D01*
X10393286Y-12483000D01*
X10402810Y-12492524D01*
X10412333Y-12511571D01*
X10421857Y-12549667D01*
X10421857Y-12597286D01*
X10412333Y-12635381D01*
X10402810Y-12654428D01*
X10393286Y-12663952D01*
X10374238Y-12673476D01*
X10355190Y-12673476D01*
X10336143Y-12663952D01*
X10326619Y-12654428D01*
X10317095Y-12635381D01*
X10307571Y-12597286D01*
X10307571Y-12549667D01*
X10317095Y-12511571D01*
X10326619Y-12492524D01*
X10336143Y-12483000D01*
X10355190Y-12473476D01*
X10612333Y-12673476D02*
X10498048Y-12673476D01*
X10555190Y-12673476D02*
X10555190Y-12473476D01*
X10536143Y-12502048D01*
X10517095Y-12521095D01*
X10498048Y-12530619D01*
X10793286Y-12473476D02*
X10698048Y-12473476D01*
X10688524Y-12568714D01*
X10698048Y-12559190D01*
X10717095Y-12549667D01*
X10764714Y-12549667D01*
X10783762Y-12559190D01*
X10793286Y-12568714D01*
X10802810Y-12587762D01*
X10802810Y-12635381D01*
X10793286Y-12654428D01*
X10783762Y-12663952D01*
X10764714Y-12673476D01*
X10717095Y-12673476D01*
X10698048Y-12663952D01*
X10688524Y-12654428D01*
X10869476Y-12473476D02*
X11002810Y-12473476D01*
X10917095Y-12673476D01*
X11069476Y-12473476D02*
X11069476Y-12511571D01*
X11145667Y-12473476D02*
X11145667Y-12511571D01*
X11440905Y-12749667D02*
X11431381Y-12740143D01*
X11412333Y-12711571D01*
X11402809Y-12692524D01*
X11393286Y-12663952D01*
X11383762Y-12616333D01*
X11383762Y-12578238D01*
X11393286Y-12530619D01*
X11402809Y-12502048D01*
X11412333Y-12483000D01*
X11431381Y-12454428D01*
X11440905Y-12444905D01*
X11545667Y-12559190D02*
X11526619Y-12549667D01*
X11517095Y-12540143D01*
X11507571Y-12521095D01*
X11507571Y-12511571D01*
X11517095Y-12492524D01*
X11526619Y-12483000D01*
X11545667Y-12473476D01*
X11583762Y-12473476D01*
X11602809Y-12483000D01*
X11612333Y-12492524D01*
X11621857Y-12511571D01*
X11621857Y-12521095D01*
X11612333Y-12540143D01*
X11602809Y-12549667D01*
X11583762Y-12559190D01*
X11545667Y-12559190D01*
X11526619Y-12568714D01*
X11517095Y-12578238D01*
X11507571Y-12597286D01*
X11507571Y-12635381D01*
X11517095Y-12654428D01*
X11526619Y-12663952D01*
X11545667Y-12673476D01*
X11583762Y-12673476D01*
X11602809Y-12663952D01*
X11612333Y-12654428D01*
X11621857Y-12635381D01*
X11621857Y-12597286D01*
X11612333Y-12578238D01*
X11602809Y-12568714D01*
X11583762Y-12559190D01*
X11859952Y-12673476D02*
X11859952Y-12473476D01*
X11945667Y-12673476D02*
X11945667Y-12568714D01*
X11936143Y-12549667D01*
X11917095Y-12540143D01*
X11888524Y-12540143D01*
X11869476Y-12549667D01*
X11859952Y-12559190D01*
X12069476Y-12673476D02*
X12050428Y-12663952D01*
X12040905Y-12654428D01*
X12031381Y-12635381D01*
X12031381Y-12578238D01*
X12040905Y-12559190D01*
X12050428Y-12549667D01*
X12069476Y-12540143D01*
X12098048Y-12540143D01*
X12117095Y-12549667D01*
X12126619Y-12559190D01*
X12136143Y-12578238D01*
X12136143Y-12635381D01*
X12126619Y-12654428D01*
X12117095Y-12663952D01*
X12098048Y-12673476D01*
X12069476Y-12673476D01*
X12250428Y-12673476D02*
X12231381Y-12663952D01*
X12221857Y-12644905D01*
X12221857Y-12473476D01*
X12402809Y-12663952D02*
X12383762Y-12673476D01*
X12345667Y-12673476D01*
X12326619Y-12663952D01*
X12317095Y-12644905D01*
X12317095Y-12568714D01*
X12326619Y-12549667D01*
X12345667Y-12540143D01*
X12383762Y-12540143D01*
X12402809Y-12549667D01*
X12412333Y-12568714D01*
X12412333Y-12587762D01*
X12317095Y-12606809D01*
X12488524Y-12663952D02*
X12507571Y-12673476D01*
X12545667Y-12673476D01*
X12564714Y-12663952D01*
X12574238Y-12644905D01*
X12574238Y-12635381D01*
X12564714Y-12616333D01*
X12545667Y-12606809D01*
X12517095Y-12606809D01*
X12498048Y-12597286D01*
X12488524Y-12578238D01*
X12488524Y-12568714D01*
X12498048Y-12549667D01*
X12517095Y-12540143D01*
X12545667Y-12540143D01*
X12564714Y-12549667D01*
X12640905Y-12749667D02*
X12650428Y-12740143D01*
X12669476Y-12711571D01*
X12679000Y-12692524D01*
X12688524Y-12663952D01*
X12698048Y-12616333D01*
X12698048Y-12578238D01*
X12688524Y-12530619D01*
X12679000Y-12502048D01*
X12669476Y-12483000D01*
X12650428Y-12454428D01*
X12640905Y-12444905D01*
D13*
X7869000Y-12847000D02*
G75*
G03*
X7869000Y-12847000I-38100J0D01*
G01*
D11*
X8164714Y-12737476D02*
X8183762Y-12737476D01*
X8202809Y-12747000D01*
X8212333Y-12756524D01*
X8221857Y-12775571D01*
X8231381Y-12813667D01*
X8231381Y-12861286D01*
X8221857Y-12899381D01*
X8212333Y-12918428D01*
X8202809Y-12927952D01*
X8183762Y-12937476D01*
X8164714Y-12937476D01*
X8145667Y-12927952D01*
X8136143Y-12918428D01*
X8126619Y-12899381D01*
X8117095Y-12861286D01*
X8117095Y-12813667D01*
X8126619Y-12775571D01*
X8136143Y-12756524D01*
X8145667Y-12747000D01*
X8164714Y-12737476D01*
X8317095Y-12918428D02*
X8326619Y-12927952D01*
X8317095Y-12937476D01*
X8307571Y-12927952D01*
X8317095Y-12918428D01*
X8317095Y-12937476D01*
X8393286Y-12737476D02*
X8526619Y-12737476D01*
X8440905Y-12937476D01*
X8688524Y-12737476D02*
X8650429Y-12737476D01*
X8631381Y-12747000D01*
X8621857Y-12756524D01*
X8602810Y-12785095D01*
X8593286Y-12823190D01*
X8593286Y-12899381D01*
X8602810Y-12918428D01*
X8612333Y-12927952D01*
X8631381Y-12937476D01*
X8669476Y-12937476D01*
X8688524Y-12927952D01*
X8698048Y-12918428D01*
X8707571Y-12899381D01*
X8707571Y-12851762D01*
X8698048Y-12832714D01*
X8688524Y-12823190D01*
X8669476Y-12813667D01*
X8631381Y-12813667D01*
X8612333Y-12823190D01*
X8602810Y-12832714D01*
X8593286Y-12851762D01*
X8783762Y-12756524D02*
X8793286Y-12747000D01*
X8812333Y-12737476D01*
X8859952Y-12737476D01*
X8879000Y-12747000D01*
X8888524Y-12756524D01*
X8898048Y-12775571D01*
X8898048Y-12794619D01*
X8888524Y-12823190D01*
X8774238Y-12937476D01*
X8898048Y-12937476D01*
X8983762Y-12937476D02*
X8983762Y-12804143D01*
X8983762Y-12823190D02*
X8993286Y-12813667D01*
X9012333Y-12804143D01*
X9040905Y-12804143D01*
X9059952Y-12813667D01*
X9069476Y-12832714D01*
X9069476Y-12937476D01*
X9069476Y-12832714D02*
X9079000Y-12813667D01*
X9098048Y-12804143D01*
X9126619Y-12804143D01*
X9145667Y-12813667D01*
X9155190Y-12832714D01*
X9155190Y-12937476D01*
X9250429Y-12937476D02*
X9250429Y-12804143D01*
X9250429Y-12823190D02*
X9259952Y-12813667D01*
X9279000Y-12804143D01*
X9307571Y-12804143D01*
X9326619Y-12813667D01*
X9336143Y-12832714D01*
X9336143Y-12937476D01*
X9336143Y-12832714D02*
X9345667Y-12813667D01*
X9364714Y-12804143D01*
X9393286Y-12804143D01*
X9412333Y-12813667D01*
X9421857Y-12832714D01*
X9421857Y-12937476D01*
X9812333Y-12727952D02*
X9640905Y-12985095D01*
X10069476Y-12737476D02*
X10088524Y-12737476D01*
X10107571Y-12747000D01*
X10117095Y-12756524D01*
X10126619Y-12775571D01*
X10136143Y-12813667D01*
X10136143Y-12861286D01*
X10126619Y-12899381D01*
X10117095Y-12918428D01*
X10107571Y-12927952D01*
X10088524Y-12937476D01*
X10069476Y-12937476D01*
X10050429Y-12927952D01*
X10040905Y-12918428D01*
X10031381Y-12899381D01*
X10021857Y-12861286D01*
X10021857Y-12813667D01*
X10031381Y-12775571D01*
X10040905Y-12756524D01*
X10050429Y-12747000D01*
X10069476Y-12737476D01*
X10221857Y-12918428D02*
X10231381Y-12927952D01*
X10221857Y-12937476D01*
X10212333Y-12927952D01*
X10221857Y-12918428D01*
X10221857Y-12937476D01*
X10355190Y-12737476D02*
X10374238Y-12737476D01*
X10393286Y-12747000D01*
X10402810Y-12756524D01*
X10412333Y-12775571D01*
X10421857Y-12813667D01*
X10421857Y-12861286D01*
X10412333Y-12899381D01*
X10402810Y-12918428D01*
X10393286Y-12927952D01*
X10374238Y-12937476D01*
X10355190Y-12937476D01*
X10336143Y-12927952D01*
X10326619Y-12918428D01*
X10317095Y-12899381D01*
X10307571Y-12861286D01*
X10307571Y-12813667D01*
X10317095Y-12775571D01*
X10326619Y-12756524D01*
X10336143Y-12747000D01*
X10355190Y-12737476D01*
X10488524Y-12737476D02*
X10612333Y-12737476D01*
X10545667Y-12813667D01*
X10574238Y-12813667D01*
X10593286Y-12823190D01*
X10602810Y-12832714D01*
X10612333Y-12851762D01*
X10612333Y-12899381D01*
X10602810Y-12918428D01*
X10593286Y-12927952D01*
X10574238Y-12937476D01*
X10517095Y-12937476D01*
X10498048Y-12927952D01*
X10488524Y-12918428D01*
X10736143Y-12737476D02*
X10755190Y-12737476D01*
X10774238Y-12747000D01*
X10783762Y-12756524D01*
X10793286Y-12775571D01*
X10802810Y-12813667D01*
X10802810Y-12861286D01*
X10793286Y-12899381D01*
X10783762Y-12918428D01*
X10774238Y-12927952D01*
X10755190Y-12937476D01*
X10736143Y-12937476D01*
X10717095Y-12927952D01*
X10707571Y-12918428D01*
X10698048Y-12899381D01*
X10688524Y-12861286D01*
X10688524Y-12813667D01*
X10698048Y-12775571D01*
X10707571Y-12756524D01*
X10717095Y-12747000D01*
X10736143Y-12737476D01*
X10926619Y-12737476D02*
X10945667Y-12737476D01*
X10964714Y-12747000D01*
X10974238Y-12756524D01*
X10983762Y-12775571D01*
X10993286Y-12813667D01*
X10993286Y-12861286D01*
X10983762Y-12899381D01*
X10974238Y-12918428D01*
X10964714Y-12927952D01*
X10945667Y-12937476D01*
X10926619Y-12937476D01*
X10907571Y-12927952D01*
X10898048Y-12918428D01*
X10888524Y-12899381D01*
X10879000Y-12861286D01*
X10879000Y-12813667D01*
X10888524Y-12775571D01*
X10898048Y-12756524D01*
X10907571Y-12747000D01*
X10926619Y-12737476D01*
X11069476Y-12737476D02*
X11069476Y-12775571D01*
X11145667Y-12737476D02*
X11145667Y-12775571D01*
X11440905Y-13013667D02*
X11431381Y-13004143D01*
X11412333Y-12975571D01*
X11402809Y-12956524D01*
X11393286Y-12927952D01*
X11383762Y-12880333D01*
X11383762Y-12842238D01*
X11393286Y-12794619D01*
X11402809Y-12766048D01*
X11412333Y-12747000D01*
X11431381Y-12718428D01*
X11440905Y-12708905D01*
X11602809Y-12737476D02*
X11564714Y-12737476D01*
X11545667Y-12747000D01*
X11536143Y-12756524D01*
X11517095Y-12785095D01*
X11507571Y-12823190D01*
X11507571Y-12899381D01*
X11517095Y-12918428D01*
X11526619Y-12927952D01*
X11545667Y-12937476D01*
X11583762Y-12937476D01*
X11602809Y-12927952D01*
X11612333Y-12918428D01*
X11621857Y-12899381D01*
X11621857Y-12851762D01*
X11612333Y-12832714D01*
X11602809Y-12823190D01*
X11583762Y-12813667D01*
X11545667Y-12813667D01*
X11526619Y-12823190D01*
X11517095Y-12832714D01*
X11507571Y-12851762D01*
X11859952Y-12937476D02*
X11859952Y-12737476D01*
X11945667Y-12937476D02*
X11945667Y-12832714D01*
X11936143Y-12813667D01*
X11917095Y-12804143D01*
X11888524Y-12804143D01*
X11869476Y-12813667D01*
X11859952Y-12823190D01*
X12069476Y-12937476D02*
X12050428Y-12927952D01*
X12040905Y-12918428D01*
X12031381Y-12899381D01*
X12031381Y-12842238D01*
X12040905Y-12823190D01*
X12050428Y-12813667D01*
X12069476Y-12804143D01*
X12098048Y-12804143D01*
X12117095Y-12813667D01*
X12126619Y-12823190D01*
X12136143Y-12842238D01*
X12136143Y-12899381D01*
X12126619Y-12918428D01*
X12117095Y-12927952D01*
X12098048Y-12937476D01*
X12069476Y-12937476D01*
X12250428Y-12937476D02*
X12231381Y-12927952D01*
X12221857Y-12908905D01*
X12221857Y-12737476D01*
X12402809Y-12927952D02*
X12383762Y-12937476D01*
X12345667Y-12937476D01*
X12326619Y-12927952D01*
X12317095Y-12908905D01*
X12317095Y-12832714D01*
X12326619Y-12813667D01*
X12345667Y-12804143D01*
X12383762Y-12804143D01*
X12402809Y-12813667D01*
X12412333Y-12832714D01*
X12412333Y-12851762D01*
X12317095Y-12870809D01*
X12488524Y-12927952D02*
X12507571Y-12937476D01*
X12545667Y-12937476D01*
X12564714Y-12927952D01*
X12574238Y-12908905D01*
X12574238Y-12899381D01*
X12564714Y-12880333D01*
X12545667Y-12870809D01*
X12517095Y-12870809D01*
X12498048Y-12861286D01*
X12488524Y-12842238D01*
X12488524Y-12832714D01*
X12498048Y-12813667D01*
X12517095Y-12804143D01*
X12545667Y-12804143D01*
X12564714Y-12813667D01*
X12640905Y-13013667D02*
X12650428Y-13004143D01*
X12669476Y-12975571D01*
X12679000Y-12956524D01*
X12688524Y-12927952D01*
X12698048Y-12880333D01*
X12698048Y-12842238D01*
X12688524Y-12794619D01*
X12679000Y-12766048D01*
X12669476Y-12747000D01*
X12650428Y-12718428D01*
X12640905Y-12708905D01*
D14*
X7829000Y-13071000D02*
X7829000Y-13151000D01*
X7789000Y-13111000D02*
X7869000Y-13111000D01*
D11*
X8164714Y-13001476D02*
X8183762Y-13001476D01*
X8202809Y-13011000D01*
X8212333Y-13020524D01*
X8221857Y-13039571D01*
X8231381Y-13077667D01*
X8231381Y-13125286D01*
X8221857Y-13163381D01*
X8212333Y-13182428D01*
X8202809Y-13191952D01*
X8183762Y-13201476D01*
X8164714Y-13201476D01*
X8145667Y-13191952D01*
X8136143Y-13182428D01*
X8126619Y-13163381D01*
X8117095Y-13125286D01*
X8117095Y-13077667D01*
X8126619Y-13039571D01*
X8136143Y-13020524D01*
X8145667Y-13011000D01*
X8164714Y-13001476D01*
X8317095Y-13182428D02*
X8326619Y-13191952D01*
X8317095Y-13201476D01*
X8307571Y-13191952D01*
X8317095Y-13182428D01*
X8317095Y-13201476D01*
X8440905Y-13087190D02*
X8421857Y-13077667D01*
X8412333Y-13068143D01*
X8402810Y-13049095D01*
X8402810Y-13039571D01*
X8412333Y-13020524D01*
X8421857Y-13011000D01*
X8440905Y-13001476D01*
X8479000Y-13001476D01*
X8498048Y-13011000D01*
X8507571Y-13020524D01*
X8517095Y-13039571D01*
X8517095Y-13049095D01*
X8507571Y-13068143D01*
X8498048Y-13077667D01*
X8479000Y-13087190D01*
X8440905Y-13087190D01*
X8421857Y-13096714D01*
X8412333Y-13106238D01*
X8402810Y-13125286D01*
X8402810Y-13163381D01*
X8412333Y-13182428D01*
X8421857Y-13191952D01*
X8440905Y-13201476D01*
X8479000Y-13201476D01*
X8498048Y-13191952D01*
X8507571Y-13182428D01*
X8517095Y-13163381D01*
X8517095Y-13125286D01*
X8507571Y-13106238D01*
X8498048Y-13096714D01*
X8479000Y-13087190D01*
X8640905Y-13001476D02*
X8659952Y-13001476D01*
X8679000Y-13011000D01*
X8688524Y-13020524D01*
X8698048Y-13039571D01*
X8707571Y-13077667D01*
X8707571Y-13125286D01*
X8698048Y-13163381D01*
X8688524Y-13182428D01*
X8679000Y-13191952D01*
X8659952Y-13201476D01*
X8640905Y-13201476D01*
X8621857Y-13191952D01*
X8612333Y-13182428D01*
X8602810Y-13163381D01*
X8593286Y-13125286D01*
X8593286Y-13077667D01*
X8602810Y-13039571D01*
X8612333Y-13020524D01*
X8621857Y-13011000D01*
X8640905Y-13001476D01*
X8831381Y-13001476D02*
X8850429Y-13001476D01*
X8869476Y-13011000D01*
X8879000Y-13020524D01*
X8888524Y-13039571D01*
X8898048Y-13077667D01*
X8898048Y-13125286D01*
X8888524Y-13163381D01*
X8879000Y-13182428D01*
X8869476Y-13191952D01*
X8850429Y-13201476D01*
X8831381Y-13201476D01*
X8812333Y-13191952D01*
X8802810Y-13182428D01*
X8793286Y-13163381D01*
X8783762Y-13125286D01*
X8783762Y-13077667D01*
X8793286Y-13039571D01*
X8802810Y-13020524D01*
X8812333Y-13011000D01*
X8831381Y-13001476D01*
X8983762Y-13201476D02*
X8983762Y-13068143D01*
X8983762Y-13087190D02*
X8993286Y-13077667D01*
X9012333Y-13068143D01*
X9040905Y-13068143D01*
X9059952Y-13077667D01*
X9069476Y-13096714D01*
X9069476Y-13201476D01*
X9069476Y-13096714D02*
X9079000Y-13077667D01*
X9098048Y-13068143D01*
X9126619Y-13068143D01*
X9145667Y-13077667D01*
X9155190Y-13096714D01*
X9155190Y-13201476D01*
X9250429Y-13201476D02*
X9250429Y-13068143D01*
X9250429Y-13087190D02*
X9259952Y-13077667D01*
X9279000Y-13068143D01*
X9307571Y-13068143D01*
X9326619Y-13077667D01*
X9336143Y-13096714D01*
X9336143Y-13201476D01*
X9336143Y-13096714D02*
X9345667Y-13077667D01*
X9364714Y-13068143D01*
X9393286Y-13068143D01*
X9412333Y-13077667D01*
X9421857Y-13096714D01*
X9421857Y-13201476D01*
X9812333Y-12991952D02*
X9640905Y-13249095D01*
X10069476Y-13001476D02*
X10088524Y-13001476D01*
X10107571Y-13011000D01*
X10117095Y-13020524D01*
X10126619Y-13039571D01*
X10136143Y-13077667D01*
X10136143Y-13125286D01*
X10126619Y-13163381D01*
X10117095Y-13182428D01*
X10107571Y-13191952D01*
X10088524Y-13201476D01*
X10069476Y-13201476D01*
X10050429Y-13191952D01*
X10040905Y-13182428D01*
X10031381Y-13163381D01*
X10021857Y-13125286D01*
X10021857Y-13077667D01*
X10031381Y-13039571D01*
X10040905Y-13020524D01*
X10050429Y-13011000D01*
X10069476Y-13001476D01*
X10221857Y-13182428D02*
X10231381Y-13191952D01*
X10221857Y-13201476D01*
X10212333Y-13191952D01*
X10221857Y-13182428D01*
X10221857Y-13201476D01*
X10355190Y-13001476D02*
X10374238Y-13001476D01*
X10393286Y-13011000D01*
X10402810Y-13020524D01*
X10412333Y-13039571D01*
X10421857Y-13077667D01*
X10421857Y-13125286D01*
X10412333Y-13163381D01*
X10402810Y-13182428D01*
X10393286Y-13191952D01*
X10374238Y-13201476D01*
X10355190Y-13201476D01*
X10336143Y-13191952D01*
X10326619Y-13182428D01*
X10317095Y-13163381D01*
X10307571Y-13125286D01*
X10307571Y-13077667D01*
X10317095Y-13039571D01*
X10326619Y-13020524D01*
X10336143Y-13011000D01*
X10355190Y-13001476D01*
X10488524Y-13001476D02*
X10612333Y-13001476D01*
X10545667Y-13077667D01*
X10574238Y-13077667D01*
X10593286Y-13087190D01*
X10602810Y-13096714D01*
X10612333Y-13115762D01*
X10612333Y-13163381D01*
X10602810Y-13182428D01*
X10593286Y-13191952D01*
X10574238Y-13201476D01*
X10517095Y-13201476D01*
X10498048Y-13191952D01*
X10488524Y-13182428D01*
X10802810Y-13201476D02*
X10688524Y-13201476D01*
X10745667Y-13201476D02*
X10745667Y-13001476D01*
X10726619Y-13030048D01*
X10707571Y-13049095D01*
X10688524Y-13058619D01*
X10983762Y-13001476D02*
X10888524Y-13001476D01*
X10879000Y-13096714D01*
X10888524Y-13087190D01*
X10907571Y-13077667D01*
X10955190Y-13077667D01*
X10974238Y-13087190D01*
X10983762Y-13096714D01*
X10993286Y-13115762D01*
X10993286Y-13163381D01*
X10983762Y-13182428D01*
X10974238Y-13191952D01*
X10955190Y-13201476D01*
X10907571Y-13201476D01*
X10888524Y-13191952D01*
X10879000Y-13182428D01*
X11069476Y-13001476D02*
X11069476Y-13039571D01*
X11145667Y-13001476D02*
X11145667Y-13039571D01*
X11440905Y-13277667D02*
X11431381Y-13268143D01*
X11412333Y-13239571D01*
X11402809Y-13220524D01*
X11393286Y-13191952D01*
X11383762Y-13144333D01*
X11383762Y-13106238D01*
X11393286Y-13058619D01*
X11402809Y-13030048D01*
X11412333Y-13011000D01*
X11431381Y-12982428D01*
X11440905Y-12972905D01*
X11602809Y-13001476D02*
X11564714Y-13001476D01*
X11545667Y-13011000D01*
X11536143Y-13020524D01*
X11517095Y-13049095D01*
X11507571Y-13087190D01*
X11507571Y-13163381D01*
X11517095Y-13182428D01*
X11526619Y-13191952D01*
X11545667Y-13201476D01*
X11583762Y-13201476D01*
X11602809Y-13191952D01*
X11612333Y-13182428D01*
X11621857Y-13163381D01*
X11621857Y-13115762D01*
X11612333Y-13096714D01*
X11602809Y-13087190D01*
X11583762Y-13077667D01*
X11545667Y-13077667D01*
X11526619Y-13087190D01*
X11517095Y-13096714D01*
X11507571Y-13115762D01*
X11698048Y-13020524D02*
X11707571Y-13011000D01*
X11726619Y-13001476D01*
X11774238Y-13001476D01*
X11793286Y-13011000D01*
X11802809Y-13020524D01*
X11812333Y-13039571D01*
X11812333Y-13058619D01*
X11802809Y-13087190D01*
X11688524Y-13201476D01*
X11812333Y-13201476D01*
X12050428Y-13201476D02*
X12050428Y-13001476D01*
X12136143Y-13201476D02*
X12136143Y-13096714D01*
X12126619Y-13077667D01*
X12107571Y-13068143D01*
X12079000Y-13068143D01*
X12059952Y-13077667D01*
X12050428Y-13087190D01*
X12259952Y-13201476D02*
X12240905Y-13191952D01*
X12231381Y-13182428D01*
X12221857Y-13163381D01*
X12221857Y-13106238D01*
X12231381Y-13087190D01*
X12240905Y-13077667D01*
X12259952Y-13068143D01*
X12288524Y-13068143D01*
X12307571Y-13077667D01*
X12317095Y-13087190D01*
X12326619Y-13106238D01*
X12326619Y-13163381D01*
X12317095Y-13182428D01*
X12307571Y-13191952D01*
X12288524Y-13201476D01*
X12259952Y-13201476D01*
X12440905Y-13201476D02*
X12421857Y-13191952D01*
X12412333Y-13172905D01*
X12412333Y-13001476D01*
X12593286Y-13191952D02*
X12574238Y-13201476D01*
X12536143Y-13201476D01*
X12517095Y-13191952D01*
X12507571Y-13172905D01*
X12507571Y-13096714D01*
X12517095Y-13077667D01*
X12536143Y-13068143D01*
X12574238Y-13068143D01*
X12593286Y-13077667D01*
X12602809Y-13096714D01*
X12602809Y-13115762D01*
X12507571Y-13134809D01*
X12679000Y-13191952D02*
X12698048Y-13201476D01*
X12736143Y-13201476D01*
X12755190Y-13191952D01*
X12764714Y-13172905D01*
X12764714Y-13163381D01*
X12755190Y-13144333D01*
X12736143Y-13134809D01*
X12707571Y-13134809D01*
X12688524Y-13125286D01*
X12679000Y-13106238D01*
X12679000Y-13096714D01*
X12688524Y-13077667D01*
X12707571Y-13068143D01*
X12736143Y-13068143D01*
X12755190Y-13077667D01*
X12831381Y-13277667D02*
X12840905Y-13268143D01*
X12859952Y-13239571D01*
X12869476Y-13220524D01*
X12879000Y-13191952D01*
X12888524Y-13144333D01*
X12888524Y-13106238D01*
X12879000Y-13058619D01*
X12869476Y-13030048D01*
X12859952Y-13011000D01*
X12840905Y-12982428D01*
X12831381Y-12972905D01*
D15*
X7856552Y-13405052D02*
X7856552Y-13344948D01*
X7796448Y-13344948D01*
X7796448Y-13405052D01*
X7856552Y-13405052D01*
D11*
X8164714Y-13265476D02*
X8183762Y-13265476D01*
X8202809Y-13275000D01*
X8212333Y-13284524D01*
X8221857Y-13303571D01*
X8231381Y-13341667D01*
X8231381Y-13389286D01*
X8221857Y-13427381D01*
X8212333Y-13446428D01*
X8202809Y-13455952D01*
X8183762Y-13465476D01*
X8164714Y-13465476D01*
X8145667Y-13455952D01*
X8136143Y-13446428D01*
X8126619Y-13427381D01*
X8117095Y-13389286D01*
X8117095Y-13341667D01*
X8126619Y-13303571D01*
X8136143Y-13284524D01*
X8145667Y-13275000D01*
X8164714Y-13265476D01*
X8317095Y-13446428D02*
X8326619Y-13455952D01*
X8317095Y-13465476D01*
X8307571Y-13455952D01*
X8317095Y-13446428D01*
X8317095Y-13465476D01*
X8440905Y-13351190D02*
X8421857Y-13341667D01*
X8412333Y-13332143D01*
X8402810Y-13313095D01*
X8402810Y-13303571D01*
X8412333Y-13284524D01*
X8421857Y-13275000D01*
X8440905Y-13265476D01*
X8479000Y-13265476D01*
X8498048Y-13275000D01*
X8507571Y-13284524D01*
X8517095Y-13303571D01*
X8517095Y-13313095D01*
X8507571Y-13332143D01*
X8498048Y-13341667D01*
X8479000Y-13351190D01*
X8440905Y-13351190D01*
X8421857Y-13360714D01*
X8412333Y-13370238D01*
X8402810Y-13389286D01*
X8402810Y-13427381D01*
X8412333Y-13446428D01*
X8421857Y-13455952D01*
X8440905Y-13465476D01*
X8479000Y-13465476D01*
X8498048Y-13455952D01*
X8507571Y-13446428D01*
X8517095Y-13427381D01*
X8517095Y-13389286D01*
X8507571Y-13370238D01*
X8498048Y-13360714D01*
X8479000Y-13351190D01*
X8698048Y-13265476D02*
X8602810Y-13265476D01*
X8593286Y-13360714D01*
X8602810Y-13351190D01*
X8621857Y-13341667D01*
X8669476Y-13341667D01*
X8688524Y-13351190D01*
X8698048Y-13360714D01*
X8707571Y-13379762D01*
X8707571Y-13427381D01*
X8698048Y-13446428D01*
X8688524Y-13455952D01*
X8669476Y-13465476D01*
X8621857Y-13465476D01*
X8602810Y-13455952D01*
X8593286Y-13446428D01*
X8831381Y-13265476D02*
X8850429Y-13265476D01*
X8869476Y-13275000D01*
X8879000Y-13284524D01*
X8888524Y-13303571D01*
X8898048Y-13341667D01*
X8898048Y-13389286D01*
X8888524Y-13427381D01*
X8879000Y-13446428D01*
X8869476Y-13455952D01*
X8850429Y-13465476D01*
X8831381Y-13465476D01*
X8812333Y-13455952D01*
X8802810Y-13446428D01*
X8793286Y-13427381D01*
X8783762Y-13389286D01*
X8783762Y-13341667D01*
X8793286Y-13303571D01*
X8802810Y-13284524D01*
X8812333Y-13275000D01*
X8831381Y-13265476D01*
X8983762Y-13465476D02*
X8983762Y-13332143D01*
X8983762Y-13351190D02*
X8993286Y-13341667D01*
X9012333Y-13332143D01*
X9040905Y-13332143D01*
X9059952Y-13341667D01*
X9069476Y-13360714D01*
X9069476Y-13465476D01*
X9069476Y-13360714D02*
X9079000Y-13341667D01*
X9098048Y-13332143D01*
X9126619Y-13332143D01*
X9145667Y-13341667D01*
X9155190Y-13360714D01*
X9155190Y-13465476D01*
X9250429Y-13465476D02*
X9250429Y-13332143D01*
X9250429Y-13351190D02*
X9259952Y-13341667D01*
X9279000Y-13332143D01*
X9307571Y-13332143D01*
X9326619Y-13341667D01*
X9336143Y-13360714D01*
X9336143Y-13465476D01*
X9336143Y-13360714D02*
X9345667Y-13341667D01*
X9364714Y-13332143D01*
X9393286Y-13332143D01*
X9412333Y-13341667D01*
X9421857Y-13360714D01*
X9421857Y-13465476D01*
X9812333Y-13255952D02*
X9640905Y-13513095D01*
X10069476Y-13265476D02*
X10088524Y-13265476D01*
X10107571Y-13275000D01*
X10117095Y-13284524D01*
X10126619Y-13303571D01*
X10136143Y-13341667D01*
X10136143Y-13389286D01*
X10126619Y-13427381D01*
X10117095Y-13446428D01*
X10107571Y-13455952D01*
X10088524Y-13465476D01*
X10069476Y-13465476D01*
X10050429Y-13455952D01*
X10040905Y-13446428D01*
X10031381Y-13427381D01*
X10021857Y-13389286D01*
X10021857Y-13341667D01*
X10031381Y-13303571D01*
X10040905Y-13284524D01*
X10050429Y-13275000D01*
X10069476Y-13265476D01*
X10221857Y-13446428D02*
X10231381Y-13455952D01*
X10221857Y-13465476D01*
X10212333Y-13455952D01*
X10221857Y-13446428D01*
X10221857Y-13465476D01*
X10355190Y-13265476D02*
X10374238Y-13265476D01*
X10393286Y-13275000D01*
X10402810Y-13284524D01*
X10412333Y-13303571D01*
X10421857Y-13341667D01*
X10421857Y-13389286D01*
X10412333Y-13427381D01*
X10402810Y-13446428D01*
X10393286Y-13455952D01*
X10374238Y-13465476D01*
X10355190Y-13465476D01*
X10336143Y-13455952D01*
X10326619Y-13446428D01*
X10317095Y-13427381D01*
X10307571Y-13389286D01*
X10307571Y-13341667D01*
X10317095Y-13303571D01*
X10326619Y-13284524D01*
X10336143Y-13275000D01*
X10355190Y-13265476D01*
X10488524Y-13265476D02*
X10612333Y-13265476D01*
X10545667Y-13341667D01*
X10574238Y-13341667D01*
X10593286Y-13351190D01*
X10602810Y-13360714D01*
X10612333Y-13379762D01*
X10612333Y-13427381D01*
X10602810Y-13446428D01*
X10593286Y-13455952D01*
X10574238Y-13465476D01*
X10517095Y-13465476D01*
X10498048Y-13455952D01*
X10488524Y-13446428D01*
X10679000Y-13265476D02*
X10802810Y-13265476D01*
X10736143Y-13341667D01*
X10764714Y-13341667D01*
X10783762Y-13351190D01*
X10793286Y-13360714D01*
X10802810Y-13379762D01*
X10802810Y-13427381D01*
X10793286Y-13446428D01*
X10783762Y-13455952D01*
X10764714Y-13465476D01*
X10707571Y-13465476D01*
X10688524Y-13455952D01*
X10679000Y-13446428D01*
X10983762Y-13265476D02*
X10888524Y-13265476D01*
X10879000Y-13360714D01*
X10888524Y-13351190D01*
X10907571Y-13341667D01*
X10955190Y-13341667D01*
X10974238Y-13351190D01*
X10983762Y-13360714D01*
X10993286Y-13379762D01*
X10993286Y-13427381D01*
X10983762Y-13446428D01*
X10974238Y-13455952D01*
X10955190Y-13465476D01*
X10907571Y-13465476D01*
X10888524Y-13455952D01*
X10879000Y-13446428D01*
X11069476Y-13265476D02*
X11069476Y-13303571D01*
X11145667Y-13265476D02*
X11145667Y-13303571D01*
X11440905Y-13541667D02*
X11431381Y-13532143D01*
X11412333Y-13503571D01*
X11402809Y-13484524D01*
X11393286Y-13455952D01*
X11383762Y-13408333D01*
X11383762Y-13370238D01*
X11393286Y-13322619D01*
X11402809Y-13294048D01*
X11412333Y-13275000D01*
X11431381Y-13246428D01*
X11440905Y-13236905D01*
X11545667Y-13351190D02*
X11526619Y-13341667D01*
X11517095Y-13332143D01*
X11507571Y-13313095D01*
X11507571Y-13303571D01*
X11517095Y-13284524D01*
X11526619Y-13275000D01*
X11545667Y-13265476D01*
X11583762Y-13265476D01*
X11602809Y-13275000D01*
X11612333Y-13284524D01*
X11621857Y-13303571D01*
X11621857Y-13313095D01*
X11612333Y-13332143D01*
X11602809Y-13341667D01*
X11583762Y-13351190D01*
X11545667Y-13351190D01*
X11526619Y-13360714D01*
X11517095Y-13370238D01*
X11507571Y-13389286D01*
X11507571Y-13427381D01*
X11517095Y-13446428D01*
X11526619Y-13455952D01*
X11545667Y-13465476D01*
X11583762Y-13465476D01*
X11602809Y-13455952D01*
X11612333Y-13446428D01*
X11621857Y-13427381D01*
X11621857Y-13389286D01*
X11612333Y-13370238D01*
X11602809Y-13360714D01*
X11583762Y-13351190D01*
X11859952Y-13465476D02*
X11859952Y-13265476D01*
X11945667Y-13465476D02*
X11945667Y-13360714D01*
X11936143Y-13341667D01*
X11917095Y-13332143D01*
X11888524Y-13332143D01*
X11869476Y-13341667D01*
X11859952Y-13351190D01*
X12069476Y-13465476D02*
X12050428Y-13455952D01*
X12040905Y-13446428D01*
X12031381Y-13427381D01*
X12031381Y-13370238D01*
X12040905Y-13351190D01*
X12050428Y-13341667D01*
X12069476Y-13332143D01*
X12098048Y-13332143D01*
X12117095Y-13341667D01*
X12126619Y-13351190D01*
X12136143Y-13370238D01*
X12136143Y-13427381D01*
X12126619Y-13446428D01*
X12117095Y-13455952D01*
X12098048Y-13465476D01*
X12069476Y-13465476D01*
X12250428Y-13465476D02*
X12231381Y-13455952D01*
X12221857Y-13436905D01*
X12221857Y-13265476D01*
X12402809Y-13455952D02*
X12383762Y-13465476D01*
X12345667Y-13465476D01*
X12326619Y-13455952D01*
X12317095Y-13436905D01*
X12317095Y-13360714D01*
X12326619Y-13341667D01*
X12345667Y-13332143D01*
X12383762Y-13332143D01*
X12402809Y-13341667D01*
X12412333Y-13360714D01*
X12412333Y-13379762D01*
X12317095Y-13398809D01*
X12488524Y-13455952D02*
X12507571Y-13465476D01*
X12545667Y-13465476D01*
X12564714Y-13455952D01*
X12574238Y-13436905D01*
X12574238Y-13427381D01*
X12564714Y-13408333D01*
X12545667Y-13398809D01*
X12517095Y-13398809D01*
X12498048Y-13389286D01*
X12488524Y-13370238D01*
X12488524Y-13360714D01*
X12498048Y-13341667D01*
X12517095Y-13332143D01*
X12545667Y-13332143D01*
X12564714Y-13341667D01*
X12640905Y-13541667D02*
X12650428Y-13532143D01*
X12669476Y-13503571D01*
X12679000Y-13484524D01*
X12688524Y-13455952D01*
X12698048Y-13408333D01*
X12698048Y-13370238D01*
X12688524Y-13322619D01*
X12679000Y-13294048D01*
X12669476Y-13275000D01*
X12650428Y-13246428D01*
X12640905Y-13236905D01*
D10*
X7819000Y-13689000D02*
X7869000Y-13639000D01*
X7819000Y-13589000D01*
X7769000Y-13639000D01*
X7819000Y-13689000D01*
D11*
X8231381Y-13729476D02*
X8117095Y-13729476D01*
X8174238Y-13729476D02*
X8174238Y-13529476D01*
X8155190Y-13558048D01*
X8136143Y-13577095D01*
X8117095Y-13586619D01*
X8317095Y-13710428D02*
X8326619Y-13719952D01*
X8317095Y-13729476D01*
X8307571Y-13719952D01*
X8317095Y-13710428D01*
X8317095Y-13729476D01*
X8450429Y-13529476D02*
X8469476Y-13529476D01*
X8488524Y-13539000D01*
X8498048Y-13548524D01*
X8507571Y-13567571D01*
X8517095Y-13605667D01*
X8517095Y-13653286D01*
X8507571Y-13691381D01*
X8498048Y-13710428D01*
X8488524Y-13719952D01*
X8469476Y-13729476D01*
X8450429Y-13729476D01*
X8431381Y-13719952D01*
X8421857Y-13710428D01*
X8412333Y-13691381D01*
X8402810Y-13653286D01*
X8402810Y-13605667D01*
X8412333Y-13567571D01*
X8421857Y-13548524D01*
X8431381Y-13539000D01*
X8450429Y-13529476D01*
X8640905Y-13529476D02*
X8659952Y-13529476D01*
X8679000Y-13539000D01*
X8688524Y-13548524D01*
X8698048Y-13567571D01*
X8707571Y-13605667D01*
X8707571Y-13653286D01*
X8698048Y-13691381D01*
X8688524Y-13710428D01*
X8679000Y-13719952D01*
X8659952Y-13729476D01*
X8640905Y-13729476D01*
X8621857Y-13719952D01*
X8612333Y-13710428D01*
X8602810Y-13691381D01*
X8593286Y-13653286D01*
X8593286Y-13605667D01*
X8602810Y-13567571D01*
X8612333Y-13548524D01*
X8621857Y-13539000D01*
X8640905Y-13529476D01*
X8831381Y-13529476D02*
X8850429Y-13529476D01*
X8869476Y-13539000D01*
X8879000Y-13548524D01*
X8888524Y-13567571D01*
X8898048Y-13605667D01*
X8898048Y-13653286D01*
X8888524Y-13691381D01*
X8879000Y-13710428D01*
X8869476Y-13719952D01*
X8850429Y-13729476D01*
X8831381Y-13729476D01*
X8812333Y-13719952D01*
X8802810Y-13710428D01*
X8793286Y-13691381D01*
X8783762Y-13653286D01*
X8783762Y-13605667D01*
X8793286Y-13567571D01*
X8802810Y-13548524D01*
X8812333Y-13539000D01*
X8831381Y-13529476D01*
X8983762Y-13729476D02*
X8983762Y-13596143D01*
X8983762Y-13615190D02*
X8993286Y-13605667D01*
X9012333Y-13596143D01*
X9040905Y-13596143D01*
X9059952Y-13605667D01*
X9069476Y-13624714D01*
X9069476Y-13729476D01*
X9069476Y-13624714D02*
X9079000Y-13605667D01*
X9098048Y-13596143D01*
X9126619Y-13596143D01*
X9145667Y-13605667D01*
X9155190Y-13624714D01*
X9155190Y-13729476D01*
X9250429Y-13729476D02*
X9250429Y-13596143D01*
X9250429Y-13615190D02*
X9259952Y-13605667D01*
X9279000Y-13596143D01*
X9307571Y-13596143D01*
X9326619Y-13605667D01*
X9336143Y-13624714D01*
X9336143Y-13729476D01*
X9336143Y-13624714D02*
X9345667Y-13605667D01*
X9364714Y-13596143D01*
X9393286Y-13596143D01*
X9412333Y-13605667D01*
X9421857Y-13624714D01*
X9421857Y-13729476D01*
X9812333Y-13519952D02*
X9640905Y-13777095D01*
X10069476Y-13529476D02*
X10088524Y-13529476D01*
X10107571Y-13539000D01*
X10117095Y-13548524D01*
X10126619Y-13567571D01*
X10136143Y-13605667D01*
X10136143Y-13653286D01*
X10126619Y-13691381D01*
X10117095Y-13710428D01*
X10107571Y-13719952D01*
X10088524Y-13729476D01*
X10069476Y-13729476D01*
X10050429Y-13719952D01*
X10040905Y-13710428D01*
X10031381Y-13691381D01*
X10021857Y-13653286D01*
X10021857Y-13605667D01*
X10031381Y-13567571D01*
X10040905Y-13548524D01*
X10050429Y-13539000D01*
X10069476Y-13529476D01*
X10221857Y-13710428D02*
X10231381Y-13719952D01*
X10221857Y-13729476D01*
X10212333Y-13719952D01*
X10221857Y-13710428D01*
X10221857Y-13729476D01*
X10355190Y-13529476D02*
X10374238Y-13529476D01*
X10393286Y-13539000D01*
X10402810Y-13548524D01*
X10412333Y-13567571D01*
X10421857Y-13605667D01*
X10421857Y-13653286D01*
X10412333Y-13691381D01*
X10402810Y-13710428D01*
X10393286Y-13719952D01*
X10374238Y-13729476D01*
X10355190Y-13729476D01*
X10336143Y-13719952D01*
X10326619Y-13710428D01*
X10317095Y-13691381D01*
X10307571Y-13653286D01*
X10307571Y-13605667D01*
X10317095Y-13567571D01*
X10326619Y-13548524D01*
X10336143Y-13539000D01*
X10355190Y-13529476D01*
X10488524Y-13529476D02*
X10612333Y-13529476D01*
X10545667Y-13605667D01*
X10574238Y-13605667D01*
X10593286Y-13615190D01*
X10602810Y-13624714D01*
X10612333Y-13643762D01*
X10612333Y-13691381D01*
X10602810Y-13710428D01*
X10593286Y-13719952D01*
X10574238Y-13729476D01*
X10517095Y-13729476D01*
X10498048Y-13719952D01*
X10488524Y-13710428D01*
X10707571Y-13729476D02*
X10745667Y-13729476D01*
X10764714Y-13719952D01*
X10774238Y-13710428D01*
X10793286Y-13681857D01*
X10802810Y-13643762D01*
X10802810Y-13567571D01*
X10793286Y-13548524D01*
X10783762Y-13539000D01*
X10764714Y-13529476D01*
X10726619Y-13529476D01*
X10707571Y-13539000D01*
X10698048Y-13548524D01*
X10688524Y-13567571D01*
X10688524Y-13615190D01*
X10698048Y-13634238D01*
X10707571Y-13643762D01*
X10726619Y-13653286D01*
X10764714Y-13653286D01*
X10783762Y-13643762D01*
X10793286Y-13634238D01*
X10802810Y-13615190D01*
X10974238Y-13596143D02*
X10974238Y-13729476D01*
X10926619Y-13519952D02*
X10879000Y-13662809D01*
X11002810Y-13662809D01*
X11069476Y-13529476D02*
X11069476Y-13567571D01*
X11145667Y-13529476D02*
X11145667Y-13567571D01*
X11440905Y-13805667D02*
X11431381Y-13796143D01*
X11412333Y-13767571D01*
X11402809Y-13748524D01*
X11393286Y-13719952D01*
X11383762Y-13672333D01*
X11383762Y-13634238D01*
X11393286Y-13586619D01*
X11402809Y-13558048D01*
X11412333Y-13539000D01*
X11431381Y-13510428D01*
X11440905Y-13500905D01*
X11498048Y-13529476D02*
X11631381Y-13529476D01*
X11545667Y-13729476D01*
X11859952Y-13729476D02*
X11859952Y-13529476D01*
X11945667Y-13729476D02*
X11945667Y-13624714D01*
X11936143Y-13605667D01*
X11917095Y-13596143D01*
X11888524Y-13596143D01*
X11869476Y-13605667D01*
X11859952Y-13615190D01*
X12069476Y-13729476D02*
X12050428Y-13719952D01*
X12040905Y-13710428D01*
X12031381Y-13691381D01*
X12031381Y-13634238D01*
X12040905Y-13615190D01*
X12050428Y-13605667D01*
X12069476Y-13596143D01*
X12098048Y-13596143D01*
X12117095Y-13605667D01*
X12126619Y-13615190D01*
X12136143Y-13634238D01*
X12136143Y-13691381D01*
X12126619Y-13710428D01*
X12117095Y-13719952D01*
X12098048Y-13729476D01*
X12069476Y-13729476D01*
X12250428Y-13729476D02*
X12231381Y-13719952D01*
X12221857Y-13700905D01*
X12221857Y-13529476D01*
X12402809Y-13719952D02*
X12383762Y-13729476D01*
X12345667Y-13729476D01*
X12326619Y-13719952D01*
X12317095Y-13700905D01*
X12317095Y-13624714D01*
X12326619Y-13605667D01*
X12345667Y-13596143D01*
X12383762Y-13596143D01*
X12402809Y-13605667D01*
X12412333Y-13624714D01*
X12412333Y-13643762D01*
X12317095Y-13662809D01*
X12488524Y-13719952D02*
X12507571Y-13729476D01*
X12545667Y-13729476D01*
X12564714Y-13719952D01*
X12574238Y-13700905D01*
X12574238Y-13691381D01*
X12564714Y-13672333D01*
X12545667Y-13662809D01*
X12517095Y-13662809D01*
X12498048Y-13653286D01*
X12488524Y-13634238D01*
X12488524Y-13624714D01*
X12498048Y-13605667D01*
X12517095Y-13596143D01*
X12545667Y-13596143D01*
X12564714Y-13605667D01*
X12640905Y-13805667D02*
X12650428Y-13796143D01*
X12669476Y-13767571D01*
X12679000Y-13748524D01*
X12688524Y-13719952D01*
X12698048Y-13672333D01*
X12698048Y-13634238D01*
X12688524Y-13586619D01*
X12679000Y-13558048D01*
X12669476Y-13539000D01*
X12650428Y-13510428D01*
X12640905Y-13500905D01*
D16*
X7759000Y-13848000D02*
X7869000Y-13958000D01*
X7869000Y-13848000D02*
X7759000Y-13958000D01*
X7869000Y-13903000D02*
G75*
G03*
X7869000Y-13903000I-55000J0D01*
G01*
D11*
X8231381Y-13993476D02*
X8117095Y-13993476D01*
X8174238Y-13993476D02*
X8174238Y-13793476D01*
X8155190Y-13822048D01*
X8136143Y-13841095D01*
X8117095Y-13850619D01*
X8317095Y-13974428D02*
X8326619Y-13983952D01*
X8317095Y-13993476D01*
X8307571Y-13983952D01*
X8317095Y-13974428D01*
X8317095Y-13993476D01*
X8517095Y-13993476D02*
X8402810Y-13993476D01*
X8459952Y-13993476D02*
X8459952Y-13793476D01*
X8440905Y-13822048D01*
X8421857Y-13841095D01*
X8402810Y-13850619D01*
X8640905Y-13793476D02*
X8659952Y-13793476D01*
X8679000Y-13803000D01*
X8688524Y-13812524D01*
X8698048Y-13831571D01*
X8707571Y-13869667D01*
X8707571Y-13917286D01*
X8698048Y-13955381D01*
X8688524Y-13974428D01*
X8679000Y-13983952D01*
X8659952Y-13993476D01*
X8640905Y-13993476D01*
X8621857Y-13983952D01*
X8612333Y-13974428D01*
X8602810Y-13955381D01*
X8593286Y-13917286D01*
X8593286Y-13869667D01*
X8602810Y-13831571D01*
X8612333Y-13812524D01*
X8621857Y-13803000D01*
X8640905Y-13793476D01*
X8831381Y-13793476D02*
X8850429Y-13793476D01*
X8869476Y-13803000D01*
X8879000Y-13812524D01*
X8888524Y-13831571D01*
X8898048Y-13869667D01*
X8898048Y-13917286D01*
X8888524Y-13955381D01*
X8879000Y-13974428D01*
X8869476Y-13983952D01*
X8850429Y-13993476D01*
X8831381Y-13993476D01*
X8812333Y-13983952D01*
X8802810Y-13974428D01*
X8793286Y-13955381D01*
X8783762Y-13917286D01*
X8783762Y-13869667D01*
X8793286Y-13831571D01*
X8802810Y-13812524D01*
X8812333Y-13803000D01*
X8831381Y-13793476D01*
X8983762Y-13993476D02*
X8983762Y-13860143D01*
X8983762Y-13879190D02*
X8993286Y-13869667D01*
X9012333Y-13860143D01*
X9040905Y-13860143D01*
X9059952Y-13869667D01*
X9069476Y-13888714D01*
X9069476Y-13993476D01*
X9069476Y-13888714D02*
X9079000Y-13869667D01*
X9098048Y-13860143D01*
X9126619Y-13860143D01*
X9145667Y-13869667D01*
X9155190Y-13888714D01*
X9155190Y-13993476D01*
X9250429Y-13993476D02*
X9250429Y-13860143D01*
X9250429Y-13879190D02*
X9259952Y-13869667D01*
X9279000Y-13860143D01*
X9307571Y-13860143D01*
X9326619Y-13869667D01*
X9336143Y-13888714D01*
X9336143Y-13993476D01*
X9336143Y-13888714D02*
X9345667Y-13869667D01*
X9364714Y-13860143D01*
X9393286Y-13860143D01*
X9412333Y-13869667D01*
X9421857Y-13888714D01*
X9421857Y-13993476D01*
X9812333Y-13783952D02*
X9640905Y-14041095D01*
X10069476Y-13793476D02*
X10088524Y-13793476D01*
X10107571Y-13803000D01*
X10117095Y-13812524D01*
X10126619Y-13831571D01*
X10136143Y-13869667D01*
X10136143Y-13917286D01*
X10126619Y-13955381D01*
X10117095Y-13974428D01*
X10107571Y-13983952D01*
X10088524Y-13993476D01*
X10069476Y-13993476D01*
X10050429Y-13983952D01*
X10040905Y-13974428D01*
X10031381Y-13955381D01*
X10021857Y-13917286D01*
X10021857Y-13869667D01*
X10031381Y-13831571D01*
X10040905Y-13812524D01*
X10050429Y-13803000D01*
X10069476Y-13793476D01*
X10221857Y-13974428D02*
X10231381Y-13983952D01*
X10221857Y-13993476D01*
X10212333Y-13983952D01*
X10221857Y-13974428D01*
X10221857Y-13993476D01*
X10355190Y-13793476D02*
X10374238Y-13793476D01*
X10393286Y-13803000D01*
X10402810Y-13812524D01*
X10412333Y-13831571D01*
X10421857Y-13869667D01*
X10421857Y-13917286D01*
X10412333Y-13955381D01*
X10402810Y-13974428D01*
X10393286Y-13983952D01*
X10374238Y-13993476D01*
X10355190Y-13993476D01*
X10336143Y-13983952D01*
X10326619Y-13974428D01*
X10317095Y-13955381D01*
X10307571Y-13917286D01*
X10307571Y-13869667D01*
X10317095Y-13831571D01*
X10326619Y-13812524D01*
X10336143Y-13803000D01*
X10355190Y-13793476D01*
X10593286Y-13860143D02*
X10593286Y-13993476D01*
X10545667Y-13783952D02*
X10498048Y-13926809D01*
X10621857Y-13926809D01*
X10679000Y-13793476D02*
X10802810Y-13793476D01*
X10736143Y-13869667D01*
X10764714Y-13869667D01*
X10783762Y-13879190D01*
X10793286Y-13888714D01*
X10802810Y-13907762D01*
X10802810Y-13955381D01*
X10793286Y-13974428D01*
X10783762Y-13983952D01*
X10764714Y-13993476D01*
X10707571Y-13993476D01*
X10688524Y-13983952D01*
X10679000Y-13974428D01*
X10869476Y-13793476D02*
X10993286Y-13793476D01*
X10926619Y-13869667D01*
X10955190Y-13869667D01*
X10974238Y-13879190D01*
X10983762Y-13888714D01*
X10993286Y-13907762D01*
X10993286Y-13955381D01*
X10983762Y-13974428D01*
X10974238Y-13983952D01*
X10955190Y-13993476D01*
X10898048Y-13993476D01*
X10879000Y-13983952D01*
X10869476Y-13974428D01*
X11069476Y-13793476D02*
X11069476Y-13831571D01*
X11145667Y-13793476D02*
X11145667Y-13831571D01*
X11440905Y-14069667D02*
X11431381Y-14060143D01*
X11412333Y-14031571D01*
X11402809Y-14012524D01*
X11393286Y-13983952D01*
X11383762Y-13936333D01*
X11383762Y-13898238D01*
X11393286Y-13850619D01*
X11402809Y-13822048D01*
X11412333Y-13803000D01*
X11431381Y-13774428D01*
X11440905Y-13764905D01*
X11498048Y-13793476D02*
X11621857Y-13793476D01*
X11555190Y-13869667D01*
X11583762Y-13869667D01*
X11602809Y-13879190D01*
X11612333Y-13888714D01*
X11621857Y-13907762D01*
X11621857Y-13955381D01*
X11612333Y-13974428D01*
X11602809Y-13983952D01*
X11583762Y-13993476D01*
X11526619Y-13993476D01*
X11507571Y-13983952D01*
X11498048Y-13974428D01*
X11859952Y-13993476D02*
X11859952Y-13793476D01*
X11945667Y-13993476D02*
X11945667Y-13888714D01*
X11936143Y-13869667D01*
X11917095Y-13860143D01*
X11888524Y-13860143D01*
X11869476Y-13869667D01*
X11859952Y-13879190D01*
X12069476Y-13993476D02*
X12050428Y-13983952D01*
X12040905Y-13974428D01*
X12031381Y-13955381D01*
X12031381Y-13898238D01*
X12040905Y-13879190D01*
X12050428Y-13869667D01*
X12069476Y-13860143D01*
X12098048Y-13860143D01*
X12117095Y-13869667D01*
X12126619Y-13879190D01*
X12136143Y-13898238D01*
X12136143Y-13955381D01*
X12126619Y-13974428D01*
X12117095Y-13983952D01*
X12098048Y-13993476D01*
X12069476Y-13993476D01*
X12250428Y-13993476D02*
X12231381Y-13983952D01*
X12221857Y-13964905D01*
X12221857Y-13793476D01*
X12402809Y-13983952D02*
X12383762Y-13993476D01*
X12345667Y-13993476D01*
X12326619Y-13983952D01*
X12317095Y-13964905D01*
X12317095Y-13888714D01*
X12326619Y-13869667D01*
X12345667Y-13860143D01*
X12383762Y-13860143D01*
X12402809Y-13869667D01*
X12412333Y-13888714D01*
X12412333Y-13907762D01*
X12317095Y-13926809D01*
X12488524Y-13983952D02*
X12507571Y-13993476D01*
X12545667Y-13993476D01*
X12564714Y-13983952D01*
X12574238Y-13964905D01*
X12574238Y-13955381D01*
X12564714Y-13936333D01*
X12545667Y-13926809D01*
X12517095Y-13926809D01*
X12498048Y-13917286D01*
X12488524Y-13898238D01*
X12488524Y-13888714D01*
X12498048Y-13869667D01*
X12517095Y-13860143D01*
X12545667Y-13860143D01*
X12564714Y-13869667D01*
X12640905Y-14069667D02*
X12650428Y-14060143D01*
X12669476Y-14031571D01*
X12679000Y-14012524D01*
X12688524Y-13983952D01*
X12698048Y-13936333D01*
X12698048Y-13898238D01*
X12688524Y-13850619D01*
X12679000Y-13822048D01*
X12669476Y-13803000D01*
X12650428Y-13774428D01*
X12640905Y-13764905D01*
D17*
X7749000Y-14107000D02*
X7869000Y-14227000D01*
X7869000Y-14107000D02*
X7749000Y-14227000D01*
X7809000Y-14107000D02*
X7809000Y-14227000D01*
X7749000Y-14167000D02*
X7869000Y-14167000D01*
D11*
X8231381Y-14257476D02*
X8117095Y-14257476D01*
X8174238Y-14257476D02*
X8174238Y-14057476D01*
X8155190Y-14086048D01*
X8136143Y-14105095D01*
X8117095Y-14114619D01*
X8317095Y-14238428D02*
X8326619Y-14247952D01*
X8317095Y-14257476D01*
X8307571Y-14247952D01*
X8317095Y-14238428D01*
X8317095Y-14257476D01*
X8402810Y-14076524D02*
X8412333Y-14067000D01*
X8431381Y-14057476D01*
X8479000Y-14057476D01*
X8498048Y-14067000D01*
X8507571Y-14076524D01*
X8517095Y-14095571D01*
X8517095Y-14114619D01*
X8507571Y-14143190D01*
X8393286Y-14257476D01*
X8517095Y-14257476D01*
X8640905Y-14057476D02*
X8659952Y-14057476D01*
X8679000Y-14067000D01*
X8688524Y-14076524D01*
X8698048Y-14095571D01*
X8707571Y-14133667D01*
X8707571Y-14181286D01*
X8698048Y-14219381D01*
X8688524Y-14238428D01*
X8679000Y-14247952D01*
X8659952Y-14257476D01*
X8640905Y-14257476D01*
X8621857Y-14247952D01*
X8612333Y-14238428D01*
X8602810Y-14219381D01*
X8593286Y-14181286D01*
X8593286Y-14133667D01*
X8602810Y-14095571D01*
X8612333Y-14076524D01*
X8621857Y-14067000D01*
X8640905Y-14057476D01*
X8831381Y-14057476D02*
X8850429Y-14057476D01*
X8869476Y-14067000D01*
X8879000Y-14076524D01*
X8888524Y-14095571D01*
X8898048Y-14133667D01*
X8898048Y-14181286D01*
X8888524Y-14219381D01*
X8879000Y-14238428D01*
X8869476Y-14247952D01*
X8850429Y-14257476D01*
X8831381Y-14257476D01*
X8812333Y-14247952D01*
X8802810Y-14238428D01*
X8793286Y-14219381D01*
X8783762Y-14181286D01*
X8783762Y-14133667D01*
X8793286Y-14095571D01*
X8802810Y-14076524D01*
X8812333Y-14067000D01*
X8831381Y-14057476D01*
X8983762Y-14257476D02*
X8983762Y-14124143D01*
X8983762Y-14143190D02*
X8993286Y-14133667D01*
X9012333Y-14124143D01*
X9040905Y-14124143D01*
X9059952Y-14133667D01*
X9069476Y-14152714D01*
X9069476Y-14257476D01*
X9069476Y-14152714D02*
X9079000Y-14133667D01*
X9098048Y-14124143D01*
X9126619Y-14124143D01*
X9145667Y-14133667D01*
X9155190Y-14152714D01*
X9155190Y-14257476D01*
X9250429Y-14257476D02*
X9250429Y-14124143D01*
X9250429Y-14143190D02*
X9259952Y-14133667D01*
X9279000Y-14124143D01*
X9307571Y-14124143D01*
X9326619Y-14133667D01*
X9336143Y-14152714D01*
X9336143Y-14257476D01*
X9336143Y-14152714D02*
X9345667Y-14133667D01*
X9364714Y-14124143D01*
X9393286Y-14124143D01*
X9412333Y-14133667D01*
X9421857Y-14152714D01*
X9421857Y-14257476D01*
X9812333Y-14047952D02*
X9640905Y-14305095D01*
X10069476Y-14057476D02*
X10088524Y-14057476D01*
X10107571Y-14067000D01*
X10117095Y-14076524D01*
X10126619Y-14095571D01*
X10136143Y-14133667D01*
X10136143Y-14181286D01*
X10126619Y-14219381D01*
X10117095Y-14238428D01*
X10107571Y-14247952D01*
X10088524Y-14257476D01*
X10069476Y-14257476D01*
X10050429Y-14247952D01*
X10040905Y-14238428D01*
X10031381Y-14219381D01*
X10021857Y-14181286D01*
X10021857Y-14133667D01*
X10031381Y-14095571D01*
X10040905Y-14076524D01*
X10050429Y-14067000D01*
X10069476Y-14057476D01*
X10221857Y-14238428D02*
X10231381Y-14247952D01*
X10221857Y-14257476D01*
X10212333Y-14247952D01*
X10221857Y-14238428D01*
X10221857Y-14257476D01*
X10355190Y-14057476D02*
X10374238Y-14057476D01*
X10393286Y-14067000D01*
X10402810Y-14076524D01*
X10412333Y-14095571D01*
X10421857Y-14133667D01*
X10421857Y-14181286D01*
X10412333Y-14219381D01*
X10402810Y-14238428D01*
X10393286Y-14247952D01*
X10374238Y-14257476D01*
X10355190Y-14257476D01*
X10336143Y-14247952D01*
X10326619Y-14238428D01*
X10317095Y-14219381D01*
X10307571Y-14181286D01*
X10307571Y-14133667D01*
X10317095Y-14095571D01*
X10326619Y-14076524D01*
X10336143Y-14067000D01*
X10355190Y-14057476D01*
X10593286Y-14124143D02*
X10593286Y-14257476D01*
X10545667Y-14047952D02*
X10498048Y-14190809D01*
X10621857Y-14190809D01*
X10679000Y-14057476D02*
X10812333Y-14057476D01*
X10726619Y-14257476D01*
X10879000Y-14076524D02*
X10888524Y-14067000D01*
X10907571Y-14057476D01*
X10955190Y-14057476D01*
X10974238Y-14067000D01*
X10983762Y-14076524D01*
X10993286Y-14095571D01*
X10993286Y-14114619D01*
X10983762Y-14143190D01*
X10869476Y-14257476D01*
X10993286Y-14257476D01*
X11069476Y-14057476D02*
X11069476Y-14095571D01*
X11145667Y-14057476D02*
X11145667Y-14095571D01*
X11440905Y-14333667D02*
X11431381Y-14324143D01*
X11412333Y-14295571D01*
X11402809Y-14276524D01*
X11393286Y-14247952D01*
X11383762Y-14200333D01*
X11383762Y-14162238D01*
X11393286Y-14114619D01*
X11402809Y-14086048D01*
X11412333Y-14067000D01*
X11431381Y-14038428D01*
X11440905Y-14028905D01*
X11498048Y-14057476D02*
X11621857Y-14057476D01*
X11555190Y-14133667D01*
X11583762Y-14133667D01*
X11602809Y-14143190D01*
X11612333Y-14152714D01*
X11621857Y-14171762D01*
X11621857Y-14219381D01*
X11612333Y-14238428D01*
X11602809Y-14247952D01*
X11583762Y-14257476D01*
X11526619Y-14257476D01*
X11507571Y-14247952D01*
X11498048Y-14238428D01*
X11859952Y-14257476D02*
X11859952Y-14057476D01*
X11945667Y-14257476D02*
X11945667Y-14152714D01*
X11936143Y-14133667D01*
X11917095Y-14124143D01*
X11888524Y-14124143D01*
X11869476Y-14133667D01*
X11859952Y-14143190D01*
X12069476Y-14257476D02*
X12050428Y-14247952D01*
X12040905Y-14238428D01*
X12031381Y-14219381D01*
X12031381Y-14162238D01*
X12040905Y-14143190D01*
X12050428Y-14133667D01*
X12069476Y-14124143D01*
X12098048Y-14124143D01*
X12117095Y-14133667D01*
X12126619Y-14143190D01*
X12136143Y-14162238D01*
X12136143Y-14219381D01*
X12126619Y-14238428D01*
X12117095Y-14247952D01*
X12098048Y-14257476D01*
X12069476Y-14257476D01*
X12250428Y-14257476D02*
X12231381Y-14247952D01*
X12221857Y-14228905D01*
X12221857Y-14057476D01*
X12402809Y-14247952D02*
X12383762Y-14257476D01*
X12345667Y-14257476D01*
X12326619Y-14247952D01*
X12317095Y-14228905D01*
X12317095Y-14152714D01*
X12326619Y-14133667D01*
X12345667Y-14124143D01*
X12383762Y-14124143D01*
X12402809Y-14133667D01*
X12412333Y-14152714D01*
X12412333Y-14171762D01*
X12317095Y-14190809D01*
X12488524Y-14247952D02*
X12507571Y-14257476D01*
X12545667Y-14257476D01*
X12564714Y-14247952D01*
X12574238Y-14228905D01*
X12574238Y-14219381D01*
X12564714Y-14200333D01*
X12545667Y-14190809D01*
X12517095Y-14190809D01*
X12498048Y-14181286D01*
X12488524Y-14162238D01*
X12488524Y-14152714D01*
X12498048Y-14133667D01*
X12517095Y-14124143D01*
X12545667Y-14124143D01*
X12564714Y-14133667D01*
X12640905Y-14333667D02*
X12650428Y-14324143D01*
X12669476Y-14295571D01*
X12679000Y-14276524D01*
X12688524Y-14247952D01*
X12698048Y-14200333D01*
X12698048Y-14162238D01*
X12688524Y-14114619D01*
X12679000Y-14086048D01*
X12669476Y-14067000D01*
X12650428Y-14038428D01*
X12640905Y-14028905D01*
D18*
X7739000Y-14366000D02*
X7869000Y-14496000D01*
X7869000Y-14366000D02*
X7739000Y-14496000D01*
X7849962Y-14476962D02*
X7849962Y-14385038D01*
X7758038Y-14385038D01*
X7758038Y-14476962D01*
X7849962Y-14476962D01*
D11*
X8231381Y-14521476D02*
X8117095Y-14521476D01*
X8174238Y-14521476D02*
X8174238Y-14321476D01*
X8155190Y-14350048D01*
X8136143Y-14369095D01*
X8117095Y-14378619D01*
X8317095Y-14502428D02*
X8326619Y-14511952D01*
X8317095Y-14521476D01*
X8307571Y-14511952D01*
X8317095Y-14502428D01*
X8317095Y-14521476D01*
X8393286Y-14321476D02*
X8517095Y-14321476D01*
X8450429Y-14397667D01*
X8479000Y-14397667D01*
X8498048Y-14407190D01*
X8507571Y-14416714D01*
X8517095Y-14435762D01*
X8517095Y-14483381D01*
X8507571Y-14502428D01*
X8498048Y-14511952D01*
X8479000Y-14521476D01*
X8421857Y-14521476D01*
X8402810Y-14511952D01*
X8393286Y-14502428D01*
X8640905Y-14321476D02*
X8659952Y-14321476D01*
X8679000Y-14331000D01*
X8688524Y-14340524D01*
X8698048Y-14359571D01*
X8707571Y-14397667D01*
X8707571Y-14445286D01*
X8698048Y-14483381D01*
X8688524Y-14502428D01*
X8679000Y-14511952D01*
X8659952Y-14521476D01*
X8640905Y-14521476D01*
X8621857Y-14511952D01*
X8612333Y-14502428D01*
X8602810Y-14483381D01*
X8593286Y-14445286D01*
X8593286Y-14397667D01*
X8602810Y-14359571D01*
X8612333Y-14340524D01*
X8621857Y-14331000D01*
X8640905Y-14321476D01*
X8831381Y-14321476D02*
X8850429Y-14321476D01*
X8869476Y-14331000D01*
X8879000Y-14340524D01*
X8888524Y-14359571D01*
X8898048Y-14397667D01*
X8898048Y-14445286D01*
X8888524Y-14483381D01*
X8879000Y-14502428D01*
X8869476Y-14511952D01*
X8850429Y-14521476D01*
X8831381Y-14521476D01*
X8812333Y-14511952D01*
X8802810Y-14502428D01*
X8793286Y-14483381D01*
X8783762Y-14445286D01*
X8783762Y-14397667D01*
X8793286Y-14359571D01*
X8802810Y-14340524D01*
X8812333Y-14331000D01*
X8831381Y-14321476D01*
X8983762Y-14521476D02*
X8983762Y-14388143D01*
X8983762Y-14407190D02*
X8993286Y-14397667D01*
X9012333Y-14388143D01*
X9040905Y-14388143D01*
X9059952Y-14397667D01*
X9069476Y-14416714D01*
X9069476Y-14521476D01*
X9069476Y-14416714D02*
X9079000Y-14397667D01*
X9098048Y-14388143D01*
X9126619Y-14388143D01*
X9145667Y-14397667D01*
X9155190Y-14416714D01*
X9155190Y-14521476D01*
X9250429Y-14521476D02*
X9250429Y-14388143D01*
X9250429Y-14407190D02*
X9259952Y-14397667D01*
X9279000Y-14388143D01*
X9307571Y-14388143D01*
X9326619Y-14397667D01*
X9336143Y-14416714D01*
X9336143Y-14521476D01*
X9336143Y-14416714D02*
X9345667Y-14397667D01*
X9364714Y-14388143D01*
X9393286Y-14388143D01*
X9412333Y-14397667D01*
X9421857Y-14416714D01*
X9421857Y-14521476D01*
X9812333Y-14311952D02*
X9640905Y-14569095D01*
X10069476Y-14321476D02*
X10088524Y-14321476D01*
X10107571Y-14331000D01*
X10117095Y-14340524D01*
X10126619Y-14359571D01*
X10136143Y-14397667D01*
X10136143Y-14445286D01*
X10126619Y-14483381D01*
X10117095Y-14502428D01*
X10107571Y-14511952D01*
X10088524Y-14521476D01*
X10069476Y-14521476D01*
X10050429Y-14511952D01*
X10040905Y-14502428D01*
X10031381Y-14483381D01*
X10021857Y-14445286D01*
X10021857Y-14397667D01*
X10031381Y-14359571D01*
X10040905Y-14340524D01*
X10050429Y-14331000D01*
X10069476Y-14321476D01*
X10221857Y-14502428D02*
X10231381Y-14511952D01*
X10221857Y-14521476D01*
X10212333Y-14511952D01*
X10221857Y-14502428D01*
X10221857Y-14521476D01*
X10355190Y-14321476D02*
X10374238Y-14321476D01*
X10393286Y-14331000D01*
X10402810Y-14340524D01*
X10412333Y-14359571D01*
X10421857Y-14397667D01*
X10421857Y-14445286D01*
X10412333Y-14483381D01*
X10402810Y-14502428D01*
X10393286Y-14511952D01*
X10374238Y-14521476D01*
X10355190Y-14521476D01*
X10336143Y-14511952D01*
X10326619Y-14502428D01*
X10317095Y-14483381D01*
X10307571Y-14445286D01*
X10307571Y-14397667D01*
X10317095Y-14359571D01*
X10326619Y-14340524D01*
X10336143Y-14331000D01*
X10355190Y-14321476D01*
X10602810Y-14321476D02*
X10507571Y-14321476D01*
X10498048Y-14416714D01*
X10507571Y-14407190D01*
X10526619Y-14397667D01*
X10574238Y-14397667D01*
X10593286Y-14407190D01*
X10602810Y-14416714D01*
X10612333Y-14435762D01*
X10612333Y-14483381D01*
X10602810Y-14502428D01*
X10593286Y-14511952D01*
X10574238Y-14521476D01*
X10526619Y-14521476D01*
X10507571Y-14511952D01*
X10498048Y-14502428D01*
X10802810Y-14521476D02*
X10688524Y-14521476D01*
X10745667Y-14521476D02*
X10745667Y-14321476D01*
X10726619Y-14350048D01*
X10707571Y-14369095D01*
X10688524Y-14378619D01*
X10879000Y-14340524D02*
X10888524Y-14331000D01*
X10907571Y-14321476D01*
X10955190Y-14321476D01*
X10974238Y-14331000D01*
X10983762Y-14340524D01*
X10993286Y-14359571D01*
X10993286Y-14378619D01*
X10983762Y-14407190D01*
X10869476Y-14521476D01*
X10993286Y-14521476D01*
X11069476Y-14321476D02*
X11069476Y-14359571D01*
X11145667Y-14321476D02*
X11145667Y-14359571D01*
X11440905Y-14597667D02*
X11431381Y-14588143D01*
X11412333Y-14559571D01*
X11402809Y-14540524D01*
X11393286Y-14511952D01*
X11383762Y-14464333D01*
X11383762Y-14426238D01*
X11393286Y-14378619D01*
X11402809Y-14350048D01*
X11412333Y-14331000D01*
X11431381Y-14302428D01*
X11440905Y-14292905D01*
X11621857Y-14521476D02*
X11507571Y-14521476D01*
X11564714Y-14521476D02*
X11564714Y-14321476D01*
X11545667Y-14350048D01*
X11526619Y-14369095D01*
X11507571Y-14378619D01*
X11745667Y-14321476D02*
X11764714Y-14321476D01*
X11783762Y-14331000D01*
X11793286Y-14340524D01*
X11802809Y-14359571D01*
X11812333Y-14397667D01*
X11812333Y-14445286D01*
X11802809Y-14483381D01*
X11793286Y-14502428D01*
X11783762Y-14511952D01*
X11764714Y-14521476D01*
X11745667Y-14521476D01*
X11726619Y-14511952D01*
X11717095Y-14502428D01*
X11707571Y-14483381D01*
X11698048Y-14445286D01*
X11698048Y-14397667D01*
X11707571Y-14359571D01*
X11717095Y-14340524D01*
X11726619Y-14331000D01*
X11745667Y-14321476D01*
X12050428Y-14521476D02*
X12050428Y-14321476D01*
X12136143Y-14521476D02*
X12136143Y-14416714D01*
X12126619Y-14397667D01*
X12107571Y-14388143D01*
X12079000Y-14388143D01*
X12059952Y-14397667D01*
X12050428Y-14407190D01*
X12259952Y-14521476D02*
X12240905Y-14511952D01*
X12231381Y-14502428D01*
X12221857Y-14483381D01*
X12221857Y-14426238D01*
X12231381Y-14407190D01*
X12240905Y-14397667D01*
X12259952Y-14388143D01*
X12288524Y-14388143D01*
X12307571Y-14397667D01*
X12317095Y-14407190D01*
X12326619Y-14426238D01*
X12326619Y-14483381D01*
X12317095Y-14502428D01*
X12307571Y-14511952D01*
X12288524Y-14521476D01*
X12259952Y-14521476D01*
X12440905Y-14521476D02*
X12421857Y-14511952D01*
X12412333Y-14492905D01*
X12412333Y-14321476D01*
X12593286Y-14511952D02*
X12574238Y-14521476D01*
X12536143Y-14521476D01*
X12517095Y-14511952D01*
X12507571Y-14492905D01*
X12507571Y-14416714D01*
X12517095Y-14397667D01*
X12536143Y-14388143D01*
X12574238Y-14388143D01*
X12593286Y-14397667D01*
X12602809Y-14416714D01*
X12602809Y-14435762D01*
X12507571Y-14454809D01*
X12679000Y-14511952D02*
X12698048Y-14521476D01*
X12736143Y-14521476D01*
X12755190Y-14511952D01*
X12764714Y-14492905D01*
X12764714Y-14483381D01*
X12755190Y-14464333D01*
X12736143Y-14454809D01*
X12707571Y-14454809D01*
X12688524Y-14445286D01*
X12679000Y-14426238D01*
X12679000Y-14416714D01*
X12688524Y-14397667D01*
X12707571Y-14388143D01*
X12736143Y-14388143D01*
X12755190Y-14397667D01*
X12831381Y-14597667D02*
X12840905Y-14588143D01*
X12859952Y-14559571D01*
X12869476Y-14540524D01*
X12879000Y-14511952D01*
X12888524Y-14464333D01*
X12888524Y-14426238D01*
X12879000Y-14378619D01*
X12869476Y-14350048D01*
X12859952Y-14331000D01*
X12840905Y-14302428D01*
X12831381Y-14292905D01*
X7669000Y-14595000D02*
X7869000Y-14795000D01*
X7869000Y-14595000D02*
X7669000Y-14795000D01*
X7769000Y-14795000D02*
X7869000Y-14695000D01*
X7769000Y-14595000D01*
X7669000Y-14695000D01*
X7769000Y-14795000D01*
X8117095Y-14604524D02*
X8126619Y-14595000D01*
X8145667Y-14585476D01*
X8193286Y-14585476D01*
X8212333Y-14595000D01*
X8221857Y-14604524D01*
X8231381Y-14623571D01*
X8231381Y-14642619D01*
X8221857Y-14671190D01*
X8107571Y-14785476D01*
X8231381Y-14785476D01*
X8317095Y-14766428D02*
X8326619Y-14775952D01*
X8317095Y-14785476D01*
X8307571Y-14775952D01*
X8317095Y-14766428D01*
X8317095Y-14785476D01*
X8393286Y-14585476D02*
X8526619Y-14585476D01*
X8440905Y-14785476D01*
X8640905Y-14585476D02*
X8659952Y-14585476D01*
X8679000Y-14595000D01*
X8688524Y-14604524D01*
X8698048Y-14623571D01*
X8707571Y-14661667D01*
X8707571Y-14709286D01*
X8698048Y-14747381D01*
X8688524Y-14766428D01*
X8679000Y-14775952D01*
X8659952Y-14785476D01*
X8640905Y-14785476D01*
X8621857Y-14775952D01*
X8612333Y-14766428D01*
X8602810Y-14747381D01*
X8593286Y-14709286D01*
X8593286Y-14661667D01*
X8602810Y-14623571D01*
X8612333Y-14604524D01*
X8621857Y-14595000D01*
X8640905Y-14585476D01*
X8831381Y-14585476D02*
X8850429Y-14585476D01*
X8869476Y-14595000D01*
X8879000Y-14604524D01*
X8888524Y-14623571D01*
X8898048Y-14661667D01*
X8898048Y-14709286D01*
X8888524Y-14747381D01*
X8879000Y-14766428D01*
X8869476Y-14775952D01*
X8850429Y-14785476D01*
X8831381Y-14785476D01*
X8812333Y-14775952D01*
X8802810Y-14766428D01*
X8793286Y-14747381D01*
X8783762Y-14709286D01*
X8783762Y-14661667D01*
X8793286Y-14623571D01*
X8802810Y-14604524D01*
X8812333Y-14595000D01*
X8831381Y-14585476D01*
X8983762Y-14785476D02*
X8983762Y-14652143D01*
X8983762Y-14671190D02*
X8993286Y-14661667D01*
X9012333Y-14652143D01*
X9040905Y-14652143D01*
X9059952Y-14661667D01*
X9069476Y-14680714D01*
X9069476Y-14785476D01*
X9069476Y-14680714D02*
X9079000Y-14661667D01*
X9098048Y-14652143D01*
X9126619Y-14652143D01*
X9145667Y-14661667D01*
X9155190Y-14680714D01*
X9155190Y-14785476D01*
X9250429Y-14785476D02*
X9250429Y-14652143D01*
X9250429Y-14671190D02*
X9259952Y-14661667D01*
X9279000Y-14652143D01*
X9307571Y-14652143D01*
X9326619Y-14661667D01*
X9336143Y-14680714D01*
X9336143Y-14785476D01*
X9336143Y-14680714D02*
X9345667Y-14661667D01*
X9364714Y-14652143D01*
X9393286Y-14652143D01*
X9412333Y-14661667D01*
X9421857Y-14680714D01*
X9421857Y-14785476D01*
X9812333Y-14575952D02*
X9640905Y-14833095D01*
X10069476Y-14585476D02*
X10088524Y-14585476D01*
X10107571Y-14595000D01*
X10117095Y-14604524D01*
X10126619Y-14623571D01*
X10136143Y-14661667D01*
X10136143Y-14709286D01*
X10126619Y-14747381D01*
X10117095Y-14766428D01*
X10107571Y-14775952D01*
X10088524Y-14785476D01*
X10069476Y-14785476D01*
X10050429Y-14775952D01*
X10040905Y-14766428D01*
X10031381Y-14747381D01*
X10021857Y-14709286D01*
X10021857Y-14661667D01*
X10031381Y-14623571D01*
X10040905Y-14604524D01*
X10050429Y-14595000D01*
X10069476Y-14585476D01*
X10221857Y-14766428D02*
X10231381Y-14775952D01*
X10221857Y-14785476D01*
X10212333Y-14775952D01*
X10221857Y-14766428D01*
X10221857Y-14785476D01*
X10421857Y-14785476D02*
X10307571Y-14785476D01*
X10364714Y-14785476D02*
X10364714Y-14585476D01*
X10345667Y-14614048D01*
X10326619Y-14633095D01*
X10307571Y-14642619D01*
X10545667Y-14585476D02*
X10564714Y-14585476D01*
X10583762Y-14595000D01*
X10593286Y-14604524D01*
X10602810Y-14623571D01*
X10612333Y-14661667D01*
X10612333Y-14709286D01*
X10602810Y-14747381D01*
X10593286Y-14766428D01*
X10583762Y-14775952D01*
X10564714Y-14785476D01*
X10545667Y-14785476D01*
X10526619Y-14775952D01*
X10517095Y-14766428D01*
X10507571Y-14747381D01*
X10498048Y-14709286D01*
X10498048Y-14661667D01*
X10507571Y-14623571D01*
X10517095Y-14604524D01*
X10526619Y-14595000D01*
X10545667Y-14585476D01*
X10783762Y-14585476D02*
X10745667Y-14585476D01*
X10726619Y-14595000D01*
X10717095Y-14604524D01*
X10698048Y-14633095D01*
X10688524Y-14671190D01*
X10688524Y-14747381D01*
X10698048Y-14766428D01*
X10707571Y-14775952D01*
X10726619Y-14785476D01*
X10764714Y-14785476D01*
X10783762Y-14775952D01*
X10793286Y-14766428D01*
X10802810Y-14747381D01*
X10802810Y-14699762D01*
X10793286Y-14680714D01*
X10783762Y-14671190D01*
X10764714Y-14661667D01*
X10726619Y-14661667D01*
X10707571Y-14671190D01*
X10698048Y-14680714D01*
X10688524Y-14699762D01*
X10869476Y-14585476D02*
X10993286Y-14585476D01*
X10926619Y-14661667D01*
X10955190Y-14661667D01*
X10974238Y-14671190D01*
X10983762Y-14680714D01*
X10993286Y-14699762D01*
X10993286Y-14747381D01*
X10983762Y-14766428D01*
X10974238Y-14775952D01*
X10955190Y-14785476D01*
X10898048Y-14785476D01*
X10879000Y-14775952D01*
X10869476Y-14766428D01*
X11069476Y-14585476D02*
X11069476Y-14623571D01*
X11145667Y-14585476D02*
X11145667Y-14623571D01*
X11440905Y-14861667D02*
X11431381Y-14852143D01*
X11412333Y-14823571D01*
X11402809Y-14804524D01*
X11393286Y-14775952D01*
X11383762Y-14728333D01*
X11383762Y-14690238D01*
X11393286Y-14642619D01*
X11402809Y-14614048D01*
X11412333Y-14595000D01*
X11431381Y-14566428D01*
X11440905Y-14556905D01*
X11602809Y-14652143D02*
X11602809Y-14785476D01*
X11555190Y-14575952D02*
X11507571Y-14718809D01*
X11631381Y-14718809D01*
X11859952Y-14785476D02*
X11859952Y-14585476D01*
X11945667Y-14785476D02*
X11945667Y-14680714D01*
X11936143Y-14661667D01*
X11917095Y-14652143D01*
X11888524Y-14652143D01*
X11869476Y-14661667D01*
X11859952Y-14671190D01*
X12069476Y-14785476D02*
X12050428Y-14775952D01*
X12040905Y-14766428D01*
X12031381Y-14747381D01*
X12031381Y-14690238D01*
X12040905Y-14671190D01*
X12050428Y-14661667D01*
X12069476Y-14652143D01*
X12098048Y-14652143D01*
X12117095Y-14661667D01*
X12126619Y-14671190D01*
X12136143Y-14690238D01*
X12136143Y-14747381D01*
X12126619Y-14766428D01*
X12117095Y-14775952D01*
X12098048Y-14785476D01*
X12069476Y-14785476D01*
X12250428Y-14785476D02*
X12231381Y-14775952D01*
X12221857Y-14756905D01*
X12221857Y-14585476D01*
X12402809Y-14775952D02*
X12383762Y-14785476D01*
X12345667Y-14785476D01*
X12326619Y-14775952D01*
X12317095Y-14756905D01*
X12317095Y-14680714D01*
X12326619Y-14661667D01*
X12345667Y-14652143D01*
X12383762Y-14652143D01*
X12402809Y-14661667D01*
X12412333Y-14680714D01*
X12412333Y-14699762D01*
X12317095Y-14718809D01*
X12488524Y-14775952D02*
X12507571Y-14785476D01*
X12545667Y-14785476D01*
X12564714Y-14775952D01*
X12574238Y-14756905D01*
X12574238Y-14747381D01*
X12564714Y-14728333D01*
X12545667Y-14718809D01*
X12517095Y-14718809D01*
X12498048Y-14709286D01*
X12488524Y-14690238D01*
X12488524Y-14680714D01*
X12498048Y-14661667D01*
X12517095Y-14652143D01*
X12545667Y-14652143D01*
X12564714Y-14661667D01*
X12640905Y-14861667D02*
X12650428Y-14852143D01*
X12669476Y-14823571D01*
X12679000Y-14804524D01*
X12688524Y-14775952D01*
X12698048Y-14728333D01*
X12698048Y-14690238D01*
X12688524Y-14642619D01*
X12679000Y-14614048D01*
X12669476Y-14595000D01*
X12650428Y-14566428D01*
X12640905Y-14556905D01*
M02*
