%TF.GenerationSoftware,KiCad,Pcbnew,6.0.11+dfsg-1*%
%TF.CreationDate,2023-04-13T00:21:45+02:00*%
%TF.ProjectId,LampeV1,4c616d70-6556-4312-9e6b-696361645f70,rev?*%
%TF.SameCoordinates,Original*%
%TF.FileFunction,Drillmap*%
%TF.FilePolarity,Positive*%
%FSLAX45Y45*%
G04 Gerber Fmt 4.5, Leading zero omitted, Abs format (unit mm)*
G04 Created by KiCad (PCBNEW 6.0.11+dfsg-1) date 2023-04-13 00:21:45*
%MOMM*%
%LPD*%
G01*
G04 APERTURE LIST*
%ADD10C,0.100000*%
%ADD11C,0.200000*%
G04 APERTURE END LIST*
D10*
X7620000Y-11811000D02*
X7620000Y-3556000D01*
X13843000Y-11938000D02*
X7747000Y-11938000D01*
X7747000Y-3429000D02*
G75*
G03*
X7620000Y-3556000I0J-127000D01*
G01*
X13970000Y-3556000D02*
G75*
G03*
X13843000Y-3429000I-127000J0D01*
G01*
X7620000Y-11811000D02*
G75*
G03*
X7747000Y-11938000I127000J0D01*
G01*
X13843000Y-11938000D02*
G75*
G03*
X13970000Y-11811000I0J127000D01*
G01*
X7747000Y-3429000D02*
X13843000Y-3429000D01*
X13970000Y-3556000D02*
X13970000Y-11811000D01*
D11*
X7872619Y-12253476D02*
X7872619Y-12053476D01*
X7920238Y-12053476D01*
X7948809Y-12063000D01*
X7967857Y-12082048D01*
X7977381Y-12101095D01*
X7986905Y-12139190D01*
X7986905Y-12167762D01*
X7977381Y-12205857D01*
X7967857Y-12224905D01*
X7948809Y-12243952D01*
X7920238Y-12253476D01*
X7872619Y-12253476D01*
X8072619Y-12253476D02*
X8072619Y-12120143D01*
X8072619Y-12158238D02*
X8082143Y-12139190D01*
X8091667Y-12129667D01*
X8110714Y-12120143D01*
X8129762Y-12120143D01*
X8196428Y-12253476D02*
X8196428Y-12120143D01*
X8196428Y-12053476D02*
X8186905Y-12063000D01*
X8196428Y-12072524D01*
X8205952Y-12063000D01*
X8196428Y-12053476D01*
X8196428Y-12072524D01*
X8320238Y-12253476D02*
X8301190Y-12243952D01*
X8291667Y-12224905D01*
X8291667Y-12053476D01*
X8425000Y-12253476D02*
X8405952Y-12243952D01*
X8396429Y-12224905D01*
X8396429Y-12053476D01*
X8653571Y-12253476D02*
X8653571Y-12053476D01*
X8720238Y-12196333D01*
X8786905Y-12053476D01*
X8786905Y-12253476D01*
X8967857Y-12253476D02*
X8967857Y-12148714D01*
X8958333Y-12129667D01*
X8939286Y-12120143D01*
X8901190Y-12120143D01*
X8882143Y-12129667D01*
X8967857Y-12243952D02*
X8948810Y-12253476D01*
X8901190Y-12253476D01*
X8882143Y-12243952D01*
X8872619Y-12224905D01*
X8872619Y-12205857D01*
X8882143Y-12186809D01*
X8901190Y-12177286D01*
X8948810Y-12177286D01*
X8967857Y-12167762D01*
X9063095Y-12120143D02*
X9063095Y-12320143D01*
X9063095Y-12129667D02*
X9082143Y-12120143D01*
X9120238Y-12120143D01*
X9139286Y-12129667D01*
X9148810Y-12139190D01*
X9158333Y-12158238D01*
X9158333Y-12215381D01*
X9148810Y-12234428D01*
X9139286Y-12243952D01*
X9120238Y-12253476D01*
X9082143Y-12253476D01*
X9063095Y-12243952D01*
X9244048Y-12234428D02*
X9253571Y-12243952D01*
X9244048Y-12253476D01*
X9234524Y-12243952D01*
X9244048Y-12234428D01*
X9244048Y-12253476D01*
X9244048Y-12129667D02*
X9253571Y-12139190D01*
X9244048Y-12148714D01*
X9234524Y-12139190D01*
X9244048Y-12129667D01*
X9244048Y-12148714D01*
M02*
