M48
; DRILL file {KiCad 6.0.11+dfsg-1} date Thu 13 Apr 2023 12:21:43 AM CEST
; FORMAT={-:-/ absolute / inch / decimal}
; #@! TF.CreationDate,2023-04-13T00:21:43+02:00
; #@! TF.GenerationSoftware,Kicad,Pcbnew,6.0.11+dfsg-1
; #@! TF.FileFunction,Plated,1,2,PTH
FMAT,2
INCH
; #@! TA.AperFunction,Plated,PTH,ViaDrill
T1C0.0157
; #@! TA.AperFunction,Plated,PTH,ComponentDrill
T2C0.0300
; #@! TA.AperFunction,Plated,PTH,ComponentDrill
T3C0.0315
; #@! TA.AperFunction,Plated,PTH,ComponentDrill
T4C0.0335
; #@! TA.AperFunction,Plated,PTH,ComponentDrill
T5C0.0394
; #@! TA.AperFunction,Plated,PTH,ComponentDrill
T6C0.0433
; #@! TA.AperFunction,Plated,PTH,ComponentDrill
T7C0.0472
; #@! TA.AperFunction,Plated,PTH,ComponentDrill
T8C0.0512
; #@! TA.AperFunction,Plated,PTH,ComponentDrill
T9C0.1063
%
G90
G05
T1
X3.2Y-2.6
X3.4Y-3.4
X3.5Y-2.7
X3.6Y-4.1
X3.9Y-3.4
X3.9Y-3.5
X4.4Y-3.7
X4.8Y-2.7
T2
X3.45Y-4.0
X3.55Y-4.0
X3.65Y-4.0
X3.75Y-4.0
X3.85Y-4.0
X3.95Y-4.0
T3
X3.313Y-1.4499
X3.3131Y-2.3499
X3.413Y-1.4499
X3.4131Y-2.3499
X3.513Y-1.4499
X3.5131Y-2.3499
X3.613Y-1.4499
X3.6131Y-2.3499
X3.713Y-1.4499
X3.7131Y-2.3499
X3.813Y-1.4499
X3.8131Y-2.3499
X3.913Y-1.4499
X3.9131Y-2.3499
X4.013Y-1.4499
X4.0131Y-2.3499
X4.113Y-1.4499
X4.1131Y-2.3499
X4.213Y-1.4499
X4.2131Y-2.3499
X4.313Y-1.4499
X4.3131Y-2.3499
X4.4Y-3.5
X4.4Y-3.8
X4.413Y-1.4499
X4.4131Y-2.3499
X4.513Y-1.4499
X4.5131Y-2.3499
X4.5496Y-3.5502
X4.5496Y-3.6502
X4.5508Y-3.9006
X4.5508Y-4.0006
X4.5508Y-4.1006
X4.613Y-1.4499
X4.6131Y-2.3499
X4.713Y-1.4499
X4.7131Y-2.3499
X4.813Y-1.4499
X4.8131Y-2.3499
X4.8496Y-3.5502
X4.8496Y-3.6502
X4.85Y-3.0016
X4.8508Y-3.9006
X4.8508Y-4.0006
X4.8508Y-4.1006
X4.913Y-1.4499
X4.9131Y-2.3499
X5.013Y-1.4499
X5.0131Y-2.3499
X5.05Y-3.4
X5.05Y-3.6
X5.05Y-3.8
X5.113Y-1.4499
X5.1131Y-2.3499
X5.15Y-3.0016
X5.213Y-1.4499
X5.213Y-2.3501
X5.313Y-1.4501
X5.313Y-2.3501
X5.35Y-3.4
X5.35Y-3.6
X5.35Y-3.8
T4
X3.15Y-4.2012
X3.25Y-4.2012
X3.35Y-4.2012
X3.45Y-4.2012
X3.55Y-4.2012
X3.65Y-4.2012
X3.75Y-4.2012
X3.85Y-4.2012
T5
X3.2696Y-2.5058
X3.3696Y-2.5058
X3.4696Y-2.5058
X3.5696Y-2.5054
X3.6696Y-2.5058
X3.7696Y-2.5058
X3.8696Y-2.5058
T6
X5.1Y-4.1
X5.2Y-4.1
X5.3Y-4.1
T7
X5.0Y-2.7787
X5.1Y-2.7787
X5.2Y-2.7787
T8
X3.2157Y-4.5
X3.4126Y-4.5
X3.6094Y-4.5
X3.8063Y-4.5
X4.0031Y-4.5
X4.2Y-4.5
X4.7047Y-4.511
X4.9016Y-4.511
X5.0984Y-4.511
X5.2953Y-4.511
T9
X3.2Y-3.95
X3.2728Y-1.95
X4.35Y-4.1
X5.35Y-1.95
T0
M30
